<svg viewBox="0 0 482.048 72.152" width="482.048pt" height="72.152pt" xmlns="http://www.w3.org/2000/svg" xmlns:xlink="http://www.w3.org/1999/xlink" xmlns:h5="http://www.w3.org/1999/xhtml"><g transform="matrix(1 0 0 -1 20 23.32)"><use xlink:href="#gB3CB46ECBF13B7AFCC65D5C82C4A688" x="0" y="0" fill="#e0e0e0" fill-rule="nonzero"/><use xlink:href="#g24DE49A13CDC41C2938F6A46FEBE412" x="10.256" y="0" fill="#e0e0e0" fill-rule="nonzero"/><use xlink:href="#gB961DF2D72343F15FFACB9292F3E3495" x="17.088" y="0" fill="#e0e0e0" fill-rule="nonzero"/><use xlink:href="#gCB9A71EB920C461BD1B2AF5BFD4CBB8E" x="24.384" y="0" fill="#e0e0e0" fill-rule="nonzero"/><use xlink:href="#gD45453FCBA9F32034F18E47DB84C4F61" x="34.288" y="0" fill="#e0e0e0" fill-rule="nonzero"/><use xlink:href="#g61A0002E42392354EB85782A553A6EEE" x="42.112" y="0" fill="#e0e0e0" fill-rule="nonzero"/><use xlink:href="#g7F7C024FAF4D2294907C4143ABA88D1F" x="48.96" y="0" fill="#e0e0e0" fill-rule="nonzero"/><use xlink:href="#g20B5AD178E7D59E0439FDC6D51791342" x="54.688" y="0" fill="#e0e0e0" fill-rule="nonzero"/><use xlink:href="#g126782A56BC0402254F11EA8BA2F12E3" x="64.496" y="0" fill="#e0e0e0" fill-rule="nonzero"/><use xlink:href="#gB961DF2D72343F15FFACB9292F3E3495" x="73.424" y="0" fill="#e0e0e0" fill-rule="nonzero"/><use xlink:href="#gCB9A71EB920C461BD1B2AF5BFD4CBB8E" x="80.72" y="0" fill="#e0e0e0" fill-rule="nonzero"/><use xlink:href="#g7F7C024FAF4D2294907C4143ABA88D1F" x="90.624" y="0" fill="#e0e0e0" fill-rule="nonzero"/><use xlink:href="#gB961DF2D72343F15FFACB9292F3E3495" x="96.352" y="0" fill="#e0e0e0" fill-rule="nonzero"/><use xlink:href="#g25675555B4AE832A515728C7334821C8" x="103.648" y="0" fill="#e0e0e0" fill-rule="nonzero"/></g><g transform="matrix(1 0 0 -1 20 41.288)"><use xlink:href="#g6962E09401F6289A28317FAA8E7FC9C1" x="0" y="0" fill="#e0e0e0" fill-rule="nonzero"/><use xlink:href="#gB655B06F60CB612733AD7B4C8BAD552D" x="7.104" y="0" fill="#e0e0e0" fill-rule="nonzero"/><use xlink:href="#g6B2BD8417A153D7B2322B2C53F78B77D" x="15.104" y="0" fill="#e0e0e0" fill-rule="nonzero"/><use xlink:href="#gFE76948C2BAC56DB366E75C5D3E395C9" x="21.408" y="0" fill="#e0e0e0" fill-rule="nonzero"/><use xlink:href="#g7F1CDFC9C50812C85F36807E567EABDF" x="27.632" y="0" fill="#e0e0e0" fill-rule="nonzero"/><use xlink:href="#gA3525D446D3D83A5B7E735BB6646CDBD" x="36.08" y="0" fill="#e0e0e0" fill-rule="nonzero"/><use xlink:href="#g4A60CE28263A0313E2F1F2501A07CE8B" x="44.528" y="0" fill="#e0e0e0" fill-rule="nonzero"/><use xlink:href="#gD1F745F93AA9122F5DF54DDA8243F5F3" x="56.064" y="0" fill="#e0e0e0" fill-rule="nonzero"/><use xlink:href="#g6962E09401F6289A28317FAA8E7FC9C1" x="73.824" y="0" fill="#e0e0e0" fill-rule="nonzero"/><use xlink:href="#gB655B06F60CB612733AD7B4C8BAD552D" x="80.928" y="0" fill="#e0e0e0" fill-rule="nonzero"/><use xlink:href="#g6B2BD8417A153D7B2322B2C53F78B77D" x="88.928" y="0" fill="#e0e0e0" fill-rule="nonzero"/><use xlink:href="#gFE76948C2BAC56DB366E75C5D3E395C9" x="95.232" y="0" fill="#e0e0e0" fill-rule="nonzero"/><use xlink:href="#g7F1CDFC9C50812C85F36807E567EABDF" x="101.456" y="0" fill="#e0e0e0" fill-rule="nonzero"/><use xlink:href="#g64AA6D97DC384EDB5F6925C9B5CF4089" x="109.904" y="0" fill="#e0e0e0" fill-rule="nonzero"/><use xlink:href="#g4A60CE28263A0313E2F1F2501A07CE8B" x="118.352" y="0" fill="#e0e0e0" fill-rule="nonzero"/><use xlink:href="#gD1F745F93AA9122F5DF54DDA8243F5F3" x="129.888" y="0" fill="#e0e0e0" fill-rule="nonzero"/><use xlink:href="#g6962E09401F6289A28317FAA8E7FC9C1" x="147.648" y="0" fill="#e0e0e0" fill-rule="nonzero"/><use xlink:href="#gB655B06F60CB612733AD7B4C8BAD552D" x="154.752" y="0" fill="#e0e0e0" fill-rule="nonzero"/><use xlink:href="#g6B2BD8417A153D7B2322B2C53F78B77D" x="162.752" y="0" fill="#e0e0e0" fill-rule="nonzero"/><use xlink:href="#gFE76948C2BAC56DB366E75C5D3E395C9" x="169.056" y="0" fill="#e0e0e0" fill-rule="nonzero"/><use xlink:href="#g7F1CDFC9C50812C85F36807E567EABDF" x="175.28" y="0" fill="#e0e0e0" fill-rule="nonzero"/><use xlink:href="#gDBFAE06AF79FDD9C3E51928051970166" x="183.728" y="0" fill="#e0e0e0" fill-rule="nonzero"/><use xlink:href="#g4A60CE28263A0313E2F1F2501A07CE8B" x="190.832" y="0" fill="#e0e0e0" fill-rule="nonzero"/><use xlink:href="#gD1F745F93AA9122F5DF54DDA8243F5F3" x="202.368" y="0" fill="#e0e0e0" fill-rule="nonzero"/><use xlink:href="#gDC2710B0DEEB8F8A015586148491CBF8" x="220.128" y="0" fill="#e0e0e0" fill-rule="nonzero"/><use xlink:href="#g6962E09401F6289A28317FAA8E7FC9C1" x="233.44" y="0" fill="#e0e0e0" fill-rule="nonzero"/><use xlink:href="#gB655B06F60CB612733AD7B4C8BAD552D" x="240.544" y="0" fill="#e0e0e0" fill-rule="nonzero"/><use xlink:href="#g6B2BD8417A153D7B2322B2C53F78B77D" x="248.544" y="0" fill="#e0e0e0" fill-rule="nonzero"/><use xlink:href="#gFE76948C2BAC56DB366E75C5D3E395C9" x="254.848" y="0" fill="#e0e0e0" fill-rule="nonzero"/><use xlink:href="#g7F1CDFC9C50812C85F36807E567EABDF" x="261.072" y="0" fill="#e0e0e0" fill-rule="nonzero"/><use xlink:href="#gA3525D446D3D83A5B7E735BB6646CDBD" x="269.52" y="0" fill="#e0e0e0" fill-rule="nonzero"/><use xlink:href="#g4A60CE28263A0313E2F1F2501A07CE8B" x="277.968" y="0" fill="#e0e0e0" fill-rule="nonzero"/><use xlink:href="#g6962E09401F6289A28317FAA8E7FC9C1" x="289.504" y="0" fill="#e0e0e0" fill-rule="nonzero"/><use xlink:href="#gB655B06F60CB612733AD7B4C8BAD552D" x="296.608" y="0" fill="#e0e0e0" fill-rule="nonzero"/><use xlink:href="#g6B2BD8417A153D7B2322B2C53F78B77D" x="304.608" y="0" fill="#e0e0e0" fill-rule="nonzero"/><use xlink:href="#gFE76948C2BAC56DB366E75C5D3E395C9" x="310.912" y="0" fill="#e0e0e0" fill-rule="nonzero"/><use xlink:href="#g7F1CDFC9C50812C85F36807E567EABDF" x="317.136" y="0" fill="#e0e0e0" fill-rule="nonzero"/><use xlink:href="#g64AA6D97DC384EDB5F6925C9B5CF4089" x="325.584" y="0" fill="#e0e0e0" fill-rule="nonzero"/><use xlink:href="#g4A60CE28263A0313E2F1F2501A07CE8B" x="334.032" y="0" fill="#e0e0e0" fill-rule="nonzero"/><use xlink:href="#g6962E09401F6289A28317FAA8E7FC9C1" x="345.568" y="0" fill="#e0e0e0" fill-rule="nonzero"/><use xlink:href="#gB655B06F60CB612733AD7B4C8BAD552D" x="352.672" y="0" fill="#e0e0e0" fill-rule="nonzero"/><use xlink:href="#g6B2BD8417A153D7B2322B2C53F78B77D" x="360.672" y="0" fill="#e0e0e0" fill-rule="nonzero"/><use xlink:href="#gFE76948C2BAC56DB366E75C5D3E395C9" x="366.976" y="0" fill="#e0e0e0" fill-rule="nonzero"/><use xlink:href="#g7F1CDFC9C50812C85F36807E567EABDF" x="373.2" y="0" fill="#e0e0e0" fill-rule="nonzero"/><use xlink:href="#gDBFAE06AF79FDD9C3E51928051970166" x="381.648" y="0" fill="#e0e0e0" fill-rule="nonzero"/><use xlink:href="#g4A60CE28263A0313E2F1F2501A07CE8B" x="388.752" y="0" fill="#e0e0e0" fill-rule="nonzero"/><use xlink:href="#gF0099E97FCE47D86CFFAA01886DF78DA" x="400.288" y="0" fill="#e0e0e0" fill-rule="nonzero"/><use xlink:href="#gEEA27574DB27C08E1CA07C210D64160F" x="418.048" y="0" fill="#e0e0e0" fill-rule="nonzero"/></g><g transform="matrix(1 0 0 -1 20 59.152)"><use xlink:href="#g61BD37191BC04B89287D8B591BA5AA7F" x="0" y="0" fill="#999999" fill-rule="nonzero"/><use xlink:href="#g289ED535C508AEA31A604F0DADFA8DC1" x="5.82" y="0" fill="#999999" fill-rule="nonzero"/><use xlink:href="#g2CAEDCB9708166472B607F1B64064810" x="9.072" y="0" fill="#999999" fill-rule="nonzero"/><use xlink:href="#g82AC2E51D964EFE9E0DB4B48AD0990AD" x="13.752" y="0" fill="#999999" fill-rule="nonzero"/><use xlink:href="#g261D98180777C8DD2F1A4AD87800C02B" x="18.888" y="0" fill="#999999" fill-rule="nonzero"/><use xlink:href="#g30001D7828CC398501D0D953534F2217" x="25.344" y="0" fill="#999999" fill-rule="nonzero"/><use xlink:href="#g1BCB9C828DF030506619E4914135A997" x="30.708" y="0" fill="#999999" fill-rule="nonzero"/><use xlink:href="#g5800F2818E32936A75B31AA04C22C148" x="35.172" y="0" fill="#999999" fill-rule="nonzero"/><use xlink:href="#gAB9E0B3000B7FB6A6E20C316ADF98C85" x="39.228" y="0" fill="#999999" fill-rule="nonzero"/><use xlink:href="#gDEDC019FF1F409029582831C73222AA3" x="46.632" y="0" fill="#999999" fill-rule="nonzero"/><use xlink:href="#g82AC2E51D964EFE9E0DB4B48AD0990AD" x="52.764" y="0" fill="#999999" fill-rule="nonzero"/><use xlink:href="#g261D98180777C8DD2F1A4AD87800C02B" x="57.9" y="0" fill="#999999" fill-rule="nonzero"/><use xlink:href="#g715B92523A282CBE3B91B95199A3A2A" x="67.356" y="0" fill="#999999" fill-rule="nonzero"/><use xlink:href="#gF2FA6952BE331EABB0A764456239871F" x="75.108" y="0" fill="#999999" fill-rule="nonzero"/></g><defs><symbol id="gB3CB46ECBF13B7AFCC65D5C82C4A688" overflow="visible"><path d="M 0 0m 3.76 2.048v 4.096h 2.096c 0.736 -0.08 0.88 -0.256 0.88 -1.12v -3.072c 0 -1.328 -0.192 -1.36 -0.992 -1.44c -0.096 -0.096 -0.096 -0.448 0 -0.544c 0.672 0.016 1.248 0.032 2.032 0.032c 0.848 0 1.504 -0.016 2.192 -0.032c 0.096 0.096 0.096 0.448 0 0.544c -0.976 0.064 -1.152 0.112 -1.152 1.44v 3.184c 0 0.8 0.064 1.696 0.064 1.696c 0 0.176 -0.144 0.272 -0.368 0.272c -0.24 -0.096 -0.704 -0.128 -1.248 -0.16h -3.504v 0.704c 0 2.384 1.056 2.848 1.408 2.848c 0.528 0 0.864 -0.272 1.104 -0.928c 0.192 -0.512 0.592 -1.04 1.184 -1.04c 0.56 0 1.024 0.352 1.024 1.072c 0 0.288 -0.304 0.8 -0.8 1.072c -0.528 0.288 -1.344 0.496 -2.208 0.496c -0.992 0 -1.856 -0.24 -2.448 -0.816c -0.736 -0.72 -1.344 -1.392 -1.344 -3.2v -0.208h -0.192c -0.544 0 -1.136 -0.24 -1.136 -0.368v -0.272c 0 -0.112 0.064 -0.16 0.432 -0.16h 0.896v -4.128c 0 -1.312 -0.256 -1.456 -1.232 -1.504c -0.096 -0.096 -0.096 -0.448 0 -0.544c 0.672 0.016 1.392 0.032 2.272 0.032c 0.832 0 1.424 -0.016 2.112 -0.032c 0.096 0.096 0.096 0.448 0 0.544c -0.832 0.064 -1.072 0.192 -1.072 1.536Z "/></symbol><symbol id="g24DE49A13CDC41C2938F6A46FEBE412" overflow="visible"><path d="M 0 0m 0.768 2.336c 0.064 -0.784 0.144 -1.536 0.272 -2.144c 0.304 -0.096 1.328 -0.352 2.224 -0.352c 1.232 0 2.768 0.672 2.768 2.064c 0 0.544 -0.128 0.976 -0.496 1.376c -0.448 0.512 -1.12 0.912 -1.856 1.232c -0.64 0.272 -0.864 0.784 -0.864 1.248c 0 0.368 0.304 0.672 0.768 0.672c 0.56 0 1.104 -0.512 1.504 -1.488c 0.288 -0.048 0.464 -0.032 0.624 0.08c 0 0.576 -0.064 1.184 -0.208 1.696c -0.512 0.224 -0.912 0.384 -1.792 0.384c -0.848 0 -1.648 -0.32 -2.16 -0.832c -0.368 -0.368 -0.544 -0.816 -0.544 -1.248c 0 -0.48 0.192 -0.864 0.496 -1.2c 0.496 -0.544 1.376 -1.104 1.856 -1.328c 0.64 -0.288 0.816 -0.864 0.816 -1.248c 0 -0.512 -0.512 -0.784 -0.944 -0.784c -0.72 0 -1.488 0.736 -1.824 1.904c -0.256 0.048 -0.384 0.032 -0.64 -0.032Z "/></symbol><symbol id="gB961DF2D72343F15FFACB9292F3E3495" overflow="visible"><path d="M 0 0m 6.752 1.392c 0 0.192 -0.032 0.496 -0.208 0.496c -0.64 -0.592 -1.184 -0.896 -1.648 -0.896c -1.2 0 -2.144 0.864 -2.144 2.784c 0 1.776 0.4 2.656 1.248 2.656c 0.592 0 0.832 -0.624 0.88 -1.136c 0.048 -0.432 0.48 -0.752 0.992 -0.752c 0.512 0 0.88 0.4 0.88 0.896c 0 0.72 -0.864 1.664 -2.608 1.664c -1.888 0 -3.552 -1.52 -3.552 -3.888c 0 -1.04 0.368 -1.952 0.992 -2.544c 0.624 -0.592 1.36 -0.832 2.496 -0.832c 0.96 0 2.064 0.672 2.672 1.552Z "/></symbol><symbol id="gCB9A71EB920C461BD1B2AF5BFD4CBB8E" overflow="visible"><path d="M 0 0m 8.448 2.048v 2.496c 0 1.76 -0.752 2.56 -2.128 2.56c -0.592 0 -1.728 -0.592 -2.64 -1.152v 3.376c 0 1.04 0.048 1.632 0.048 1.632c 0 0.144 -0.112 0.208 -0.256 0.208c -0.592 -0.192 -1.872 -0.368 -3.008 -0.416c -0.048 -0.192 -0.032 -0.368 0.048 -0.512c 1.008 -0.08 1.088 -0.096 1.088 -1.2v -7.008c 0 -1.328 -0.256 -1.472 -1.232 -1.52c -0.096 -0.096 -0.096 -0.448 0 -0.544c 0.672 0.016 1.392 0.032 2.272 0.032c 0.768 0 1.264 -0.016 1.952 -0.032c 0.096 0.096 0.096 0.448 0 0.544c -0.672 0.048 -0.912 0.192 -0.912 1.52v 3.28c 0.672 0.416 1.2 0.608 1.488 0.608c 0.64 0 1.2 -0.288 1.2 -1.2v -2.672c 0 -1.344 -0.256 -1.488 -0.912 -1.536c -0.096 -0.096 -0.096 -0.448 0 -0.544c 0.672 0.016 1.184 0.032 1.952 0.032c 0.88 0 1.584 -0.016 2.272 -0.032c 0.096 0.096 0.096 0.448 0 0.544c -0.976 0.048 -1.232 0.192 -1.232 1.536Z "/></symbol><symbol id="gD45453FCBA9F32034F18E47DB84C4F61" overflow="visible"><path d="M 0 0m 6.896 2.064c -0.656 -0.672 -1.52 -0.848 -2.128 -0.848c -1.248 0 -2.016 0.72 -2.016 2.288c 0 0.112 0.016 0.176 0.016 0.256h 3.84c 0.384 0 0.464 0.272 0.464 0.496c 0 1.36 -0.528 2.848 -2.88 2.848c -1.68 0 -3.6 -1.488 -3.6 -3.936c 0 -0.928 0.336 -1.904 1.024 -2.528c 0.608 -0.544 1.392 -0.8 2.528 -0.8c 1.104 0 2.192 0.56 2.992 1.728c 0 0.208 -0.08 0.496 -0.24 0.496Z m -4.064 2.336c 0.016 0.56 0.096 1.168 0.32 1.488c 0.256 0.384 0.688 0.544 0.864 0.544c 0.432 0 1.024 -0.416 1.024 -1.696c 0 -0.096 0 -0.304 -0.032 -0.336Z "/></symbol><symbol id="g61A0002E42392354EB85782A553A6EEE" overflow="visible"><path d="M 0 0m 3.648 4.288c 0 0.576 0.176 0.816 0.384 1.056c 0.128 0.16 0.272 0.272 0.512 0.272c 0.144 0 0.32 -0.144 0.448 -0.304c 0.112 -0.128 0.384 -0.256 0.752 -0.256c 0.464 0 0.912 0.48 0.912 1.152c 0 0.416 -0.48 0.896 -1.056 0.896c -0.56 0 -1.168 -0.48 -1.904 -1.536h -0.064c -0.032 0.48 -0.112 1.264 -0.112 1.264c -0.016 0.144 -0.144 0.272 -0.368 0.272c -0.752 -0.192 -1.6 -0.416 -2.656 -0.528c -0.032 -0.096 0 -0.4 0.032 -0.496c 0.88 -0.08 1.04 -0.224 1.04 -1.136v -2.992c 0 -1.328 -0.176 -1.36 -1.152 -1.44c -0.096 -0.096 -0.096 -0.448 0 -0.544c 0.672 0.016 1.344 0.032 2.192 0.032c 0.848 0 1.504 -0.016 2.192 -0.032c 0.096 0.096 0.096 0.448 0 0.544c -0.976 0.064 -1.152 0.112 -1.152 1.44Z "/></symbol><symbol id="g7F7C024FAF4D2294907C4143ABA88D1F" overflow="visible"><path d="M 0 0m 4.368 3.44c 0.368 0 0.752 0.72 0.752 0.928c 0 0.176 -0.128 0.336 -0.576 0.336h -3.2c -0.336 0 -0.736 -0.656 -0.736 -0.928c 0 -0.176 0.208 -0.336 0.592 -0.336Z "/></symbol><symbol id="g20B5AD178E7D59E0439FDC6D51791342" overflow="visible"><path d="M 0 0m 1.6 2.032c 0 -1.328 -0.256 -1.472 -1.232 -1.52c -0.096 -0.096 -0.096 -0.448 0 -0.544c 0.672 0.016 1.392 0.032 2.272 0.032c 0.704 0 1.408 -0.016 1.792 -0.032c 0.096 0.096 0.096 0.448 0 0.544c -0.48 0.064 -0.752 0.192 -0.752 1.52v 1.312c 0.448 0 0.944 -0.048 1.104 -0.304c 0.368 -0.544 0.816 -1.2 1.088 -1.792c 0.208 -0.448 0.256 -0.592 0.256 -0.832v -0.416l 0.032 -0.032c 0 0 0.72 0.032 1.28 0.032c 0.656 0 1.552 -0.016 2.144 -0.032c 0.096 0.096 0.096 0.448 0 0.544c -0.624 0.064 -0.976 0.016 -1.456 0.736l -1.856 2.736c -0.08 0.112 -0.112 0.24 -0.048 0.32l 0.8 0.88c 0.512 0.56 0.944 1.12 2.16 1.248c 0.096 0.096 0.096 0.448 0 0.544c -0.352 -0.016 -1.36 -0.032 -1.776 -0.032c -0.592 0 -1.344 0.016 -1.936 0.032c -0.096 -0.096 -0.096 -0.448 0 -0.544c 0.864 -0.064 1.12 -0.208 0.656 -0.848c -0.352 -0.48 -0.704 -0.864 -1.024 -1.152c -0.208 -0.176 -0.944 -0.448 -1.424 -0.448v 5.344c 0 1.04 0.048 1.632 0.048 1.632c 0 0.144 -0.112 0.208 -0.256 0.208c -0.592 -0.192 -1.872 -0.368 -3.008 -0.416c -0.048 -0.192 -0.032 -0.368 0.048 -0.512c 1.008 -0.08 1.088 -0.096 1.088 -1.2Z "/></symbol><symbol id="g126782A56BC0402254F11EA8BA2F12E3" overflow="visible"><path d="M 0 0m 0.592 3.312c 0 -2.096 1.664 -3.472 3.808 -3.472c 1.136 0 2.08 0.32 2.736 0.912c 0.816 0.72 1.088 1.808 1.088 2.704c 0 2.096 -1.424 3.648 -3.808 3.648c -1.328 0 -2.32 -0.464 -2.944 -1.184c -0.608 -0.704 -0.88 -1.664 -0.88 -2.608Z m 3.568 3.12c 1.088 0 1.824 -1.296 1.824 -3.488c 0 -1.92 -0.752 -2.432 -1.328 -2.432c -1.312 0 -1.824 1.968 -1.824 3.152c 0 1.472 0.256 2.768 1.328 2.768Z "/></symbol><symbol id="g25675555B4AE832A515728C7334821C8" overflow="visible"><path d="M 0 0m 1.52 4.944v -6.704c 0 -1.328 -0.176 -1.36 -1.152 -1.44c -0.096 -0.096 -0.096 -0.448 0 -0.544c 0.672 0.016 1.344 0.032 2.192 0.032c 0.848 0 1.504 -0.016 2.192 -0.032c 0.096 0.096 0.096 0.448 0 0.544c -0.976 0.064 -1.152 0.112 -1.152 1.44v 1.872c 0.352 -0.176 0.688 -0.272 1.072 -0.272c 2.432 0 4.016 1.6 4.016 3.952c 0 0.896 -0.336 1.888 -0.96 2.512c -0.56 0.56 -1.36 0.8 -2.192 0.8c -0.464 0 -1.328 -0.56 -1.888 -1.072h -0.096c -0.032 0.448 -0.08 0.8 -0.08 0.8c -0.016 0.192 -0.144 0.272 -0.368 0.272c -0.592 -0.16 -1.552 -0.384 -2.656 -0.528c -0.032 -0.096 0 -0.416 0.032 -0.512c 0.88 -0.08 1.04 -0.208 1.04 -1.12Z m 2.08 -3.904v 4.096c 0 0.096 0 0.176 0 0.272c 0.464 0.416 1.056 0.624 1.424 0.624c 0.656 0 1.424 -0.8 1.424 -2.672c 0 -1.344 -0.48 -2.848 -1.872 -2.848c -0.176 0 -0.576 0.096 -0.976 0.528Z "/></symbol><symbol id="g6962E09401F6289A28317FAA8E7FC9C1" overflow="visible"><path d="M 0 0m 4.016 6.656c 0.672 0 1.184 -0.16 1.536 -0.48c -0.384 -0.048 -0.656 -0.4 -0.656 -0.768c 0 -0.528 0.256 -0.784 0.784 -0.784c 0.528 0 0.784 0.272 0.784 0.8c 0 1.136 -1.232 1.744 -2.464 1.744c -0.992 0 -1.808 -0.352 -2.464 -1.088c -0.656 -0.736 -0.992 -1.616 -0.992 -2.624c 0 -0.976 0.336 -1.84 0.992 -2.56c 0.656 -0.72 1.456 -1.072 2.432 -1.072c 0.8 0 1.424 0.224 1.872 0.688c 0.368 0.368 0.608 0.736 0.736 1.12c 0.048 0.144 0.064 0.24 0.064 0.304c 0 0.144 -0.096 0.208 -0.272 0.208c -0.128 0 -0.208 -0.064 -0.256 -0.192c -0.336 -1.072 -0.992 -1.616 -2 -1.616c -0.464 0 -0.912 0.208 -1.36 0.64c -0.528 0.496 -0.784 1.328 -0.784 2.512c 0 1.6 0.608 3.168 2.048 3.168Z "/></symbol><symbol id="gB655B06F60CB612733AD7B4C8BAD552D" overflow="visible"><path d="M 0 0m 3.984 -0.176c 0.992 0 1.824 0.352 2.512 1.056c 0.688 0.704 1.04 1.552 1.04 2.544c 0 1.008 -0.336 1.888 -1.008 2.624c -0.672 0.736 -1.52 1.12 -2.528 1.12c -1.008 0 -1.84 -0.384 -2.528 -1.12c -0.688 -0.736 -1.024 -1.616 -1.024 -2.624c 0 -0.992 0.336 -1.84 1.024 -2.544c 0.688 -0.704 1.536 -1.056 2.512 -1.056Z m 0.016 0.512c -0.768 0 -1.344 0.336 -1.744 1.024c -0.256 0.448 -0.384 1.184 -0.384 2.192c 0 0.976 0.128 1.68 0.368 2.128c 0.384 0.688 0.96 1.024 1.744 1.024c 0.752 0 1.328 -0.336 1.728 -0.992c 0.272 -0.448 0.4 -1.168 0.4 -2.16c 0 -1.856 -0.544 -3.216 -2.112 -3.216Z "/></symbol><symbol id="g6B2BD8417A153D7B2322B2C53F78B77D" overflow="visible"><path d="M 0 0m 5.76 2.08c 0 1.216 -0.832 1.984 -2.48 2.304c -0.752 0.144 -1.232 0.32 -1.488 0.496c -0.256 0.176 -0.384 0.432 -0.384 0.736c 0 0.752 0.56 1.12 1.68 1.12c 1.088 0 1.68 -0.608 1.76 -1.84c 0.016 -0.128 0.096 -0.192 0.256 -0.192c 0.176 0 0.272 0.144 0.272 0.432v 1.584c 0 0.304 -0.08 0.448 -0.24 0.448c -0.176 0 -0.416 -0.288 -0.576 -0.416c -0.4 0.272 -0.896 0.416 -1.472 0.416c -1.424 0 -2.56 -0.64 -2.56 -2c 0 -0.544 0.224 -1.008 0.688 -1.376c 0.56 -0.464 1.088 -0.56 2.096 -0.736c 1.04 -0.208 1.568 -0.672 1.568 -1.392c 0 -0.912 -0.56 -1.376 -1.696 -1.376c -1.104 0 -1.808 0.736 -2.112 2.192c -0.048 0.208 -0.128 0.32 -0.272 0.32c -0.176 0 -0.272 -0.16 -0.272 -0.464v -2.064c 0 -0.304 0.08 -0.448 0.24 -0.448c 0.048 0 0.128 0.048 0.256 0.16c 0.288 0.256 0.16 0.208 0.448 0.496c 0.464 -0.432 1.04 -0.656 1.712 -0.656c 1.52 0 2.576 0.784 2.576 2.256Z "/></symbol><symbol id="gFE76948C2BAC56DB366E75C5D3E395C9" overflow="visible"><path d="M 0 0m 5.088 -3.968c 0.144 0 0.224 0.08 0.224 0.224c 0 0.048 -0.032 0.112 -0.08 0.176c -0.832 0.64 -1.504 1.696 -2 3.152c -0.432 1.264 -0.656 2.512 -0.656 3.744v 1.344c 0 1.232 0.224 2.48 0.656 3.744c 0.496 1.456 1.168 2.512 2 3.152c 0.048 0.048 0.08 0.112 0.08 0.176c 0 0.144 -0.08 0.224 -0.224 0.224c -0.016 0 -0.064 -0.016 -0.112 -0.048c -0.96 -0.736 -1.76 -1.824 -2.416 -3.28c -0.624 -1.392 -0.944 -2.704 -0.944 -3.968v -1.344c 0 -1.264 0.32 -2.576 0.944 -3.968c 0.656 -1.456 1.456 -2.544 2.416 -3.28c 0.048 -0.032 0.096 -0.048 0.112 -0.048Z "/></symbol><symbol id="g7F1CDFC9C50812C85F36807E567EABDF" overflow="visible"><path d="M 0 0m 6.752 0.048c 0.32 0.016 0.8 0 1.424 -0.048v 0.624c -0.384 0 -0.672 0.048 -0.864 0.128c -0.192 0.08 -0.416 0.304 -0.672 0.672l -2 2.832c -0.048 0.144 -0.08 0.192 -0.08 0.144c 0 0.016 0.16 0.16 0.496 0.448c 0.56 0.496 0.976 0.816 1.248 0.992c 0.496 0.304 0.992 0.464 1.504 0.496v 0.608c -0.336 -0.032 -0.72 -0.048 -1.152 -0.048c -0.736 0 -1.344 0.016 -1.84 0.048v -0.608c 0.304 -0.016 0.464 -0.128 0.464 -0.336c 0 -0.192 -0.112 -0.384 -0.32 -0.576l -2.112 -1.84v 7.52l -2.4 -0.176v -0.608c 0.576 0 0.928 -0.048 1.056 -0.144c 0.128 -0.096 0.176 -0.32 0.176 -0.688v -8.224c 0 -0.304 -0.064 -0.496 -0.176 -0.56c -0.112 -0.064 -0.464 -0.08 -1.056 -0.08v -0.624l 1.776 0.048l 1.792 -0.048v 0.624c -0.592 0 -0.928 0.016 -1.04 0.08c -0.112 0.064 -0.176 0.256 -0.176 0.56v 1.6l 0.928 0.816l 0.256 -0.384c 1.04 -1.44 1.568 -2.24 1.568 -2.384c 0 -0.192 -0.192 -0.288 -0.576 -0.288v -0.624Z "/></symbol><symbol id="gA3525D446D3D83A5B7E735BB6646CDBD" overflow="visible"><path d="M 0 0m 6.688 0.048c 0.368 0.016 0.896 0 1.568 -0.048v 0.608c -0.848 0 -1.168 0.016 -1.504 0.464l -2.08 2.688c 0.688 0.848 1.152 1.424 1.408 1.728c 0.448 0.512 1.072 0.784 1.888 0.8v 0.608c -0.448 -0.032 -0.896 -0.048 -1.344 -0.048c -0.592 0 -1.12 0.016 -1.584 0.048v -0.608c 0.304 -0.032 0.464 -0.176 0.464 -0.432c 0 -0.144 -0.08 -0.32 -0.224 -0.512l -0.928 -1.152l -1.184 1.52c -0.08 0.112 -0.128 0.192 -0.128 0.24c 0 0.208 0.192 0.32 0.56 0.336v 0.608l -1.776 -0.048c -0.416 -0.016 -0.928 0 -1.552 0.048v -0.608c 0.576 0 0.944 -0.048 1.104 -0.128c 0.16 -0.08 0.416 -0.352 0.768 -0.816l 1.52 -1.984c -0.784 -1.008 -1.264 -1.616 -1.44 -1.824c -0.512 -0.624 -1.184 -0.928 -2.032 -0.928v -0.608c 0.592 0.048 1.04 0.064 1.376 0.048l 1.552 -0.048v 0.608c -0.304 0.048 -0.448 0.192 -0.448 0.432c 0 0.064 0.016 0.144 0.048 0.224c 0.096 0.208 0.528 0.752 1.296 1.664l 1.152 -1.504c 0.176 -0.224 0.272 -0.384 0.32 -0.48c 0 -0.208 -0.192 -0.32 -0.576 -0.336v -0.608Z "/></symbol><symbol id="g4A60CE28263A0313E2F1F2501A07CE8B" overflow="visible"><path d="M 0 0m 1.248 -3.92c 0.96 0.736 1.76 1.824 2.416 3.28c 0.624 1.392 0.944 2.704 0.944 3.968v 1.344c 0 1.264 -0.32 2.576 -0.944 3.968c -0.656 1.456 -1.456 2.544 -2.416 3.28c -0.048 0.032 -0.096 0.048 -0.112 0.048c -0.144 0 -0.224 -0.08 -0.224 -0.224c 0 -0.064 0.032 -0.128 0.08 -0.176c 0.832 -0.64 1.504 -1.696 2 -3.152c 0.432 -1.264 0.656 -2.512 0.656 -3.744v -1.344c 0 -1.232 -0.224 -2.48 -0.656 -3.744c -0.496 -1.456 -1.168 -2.512 -2 -3.152c -0.048 -0.064 -0.08 -0.128 -0.08 -0.176c 0 -0.144 0.08 -0.224 0.224 -0.224c 0.016 0 0.064 0.016 0.112 0.048Z "/></symbol><symbol id="gD1F745F93AA9122F5DF54DDA8243F5F3" overflow="visible"><path d="M 0 0m 11.168 4.384h -4.56v 4.56c 0 0.256 -0.128 0.384 -0.384 0.384c -0.256 0 -0.384 -0.128 -0.384 -0.384v -4.56h -4.56c -0.256 0 -0.384 -0.128 -0.384 -0.384c 0 -0.256 0.128 -0.384 0.384 -0.384h 4.56v -4.56c 0 -0.256 0.128 -0.384 0.384 -0.384c 0.256 0 0.384 0.128 0.384 0.384v 4.56h 4.56c 0.256 0 0.384 0.128 0.384 0.384c 0 0.208 -0.176 0.384 -0.384 0.384Z "/></symbol><symbol id="g64AA6D97DC384EDB5F6925C9B5CF4089" overflow="visible"><path d="M 0 0m 1.808 -3.28c 0.88 0 1.584 0.608 2.08 1.84l 2.768 6.752c 0.272 0.64 0.752 0.96 1.472 0.96v 0.624c -0.528 -0.048 -0.944 -0.064 -1.248 -0.048l -1.424 0.048v -0.608c 0.496 -0.016 0.736 -0.224 0.736 -0.624c 0 -0.096 -0.032 -0.208 -0.096 -0.352l -1.52 -3.744l -1.696 4.096c -0.048 0.128 -0.08 0.224 -0.096 0.272c 0 0.224 0.304 0.336 0.896 0.336v 0.624l -1.792 -0.048c -0.384 -0.016 -0.912 0 -1.584 0.048v -0.624c 0.848 0 1.056 0.032 1.28 -0.512l 2.352 -5.744l -0.384 -0.896c -0.432 -1.024 -0.736 -1.92 -1.744 -1.92c -0.224 0 -0.416 0.064 -0.592 0.176c 0.368 0.08 0.544 0.32 0.544 0.704c 0 0.48 -0.24 0.72 -0.736 0.72c -0.48 0 -0.72 -0.24 -0.72 -0.736c 0 -0.784 0.72 -1.344 1.504 -1.344Z "/></symbol><symbol id="gDBFAE06AF79FDD9C3E51928051970166" overflow="visible"><path d="M 0 0m 0.912 0h 5.232l 0.272 3.056h -0.512c -0.08 -0.992 -0.24 -1.664 -0.528 -2.016c -0.288 -0.352 -0.848 -0.528 -1.696 -0.528h -1.728l 4.272 5.808c 0.112 0.144 0.16 0.24 0.16 0.304c 0 0.176 -0.16 0.272 -0.464 0.272h -5.072l -0.192 -2.656h 0.528c 0.048 0.88 0.208 1.456 0.464 1.744c 0.256 0.288 0.784 0.448 1.584 0.448h 1.664l -4.288 -5.824c -0.112 -0.144 -0.16 -0.24 -0.16 -0.32c 0 -0.272 0.112 -0.288 0.464 -0.288Z "/></symbol><symbol id="gDC2710B0DEEB8F8A015586148491CBF8" overflow="visible"><path d="M 0 0m 5.648 10.832c -0.144 0 -0.272 -0.08 -0.368 -0.224l -4.832 -7.424v -0.576h 4.176v -1.312c 0 -0.288 -0.064 -0.48 -0.176 -0.56c -0.112 -0.08 -0.416 -0.112 -0.944 -0.112h -0.4v -0.624c 0.464 0.032 1.2 0.048 2.192 0.048c 0.992 0 1.728 -0.016 2.192 -0.048v 0.624h -0.4c -0.528 0 -0.832 0.032 -0.944 0.112c -0.112 0.08 -0.176 0.272 -0.176 0.56v 1.312h 1.568v 0.624h -1.568v 7.328c 0 0.16 -0.112 0.272 -0.32 0.272Z m -0.928 -1.984v -5.616h -3.648Z "/></symbol><symbol id="gF0099E97FCE47D86CFFAA01886DF78DA" overflow="visible"><path d="M 0 0m 11.168 5.872h -9.888c -0.256 0 -0.384 -0.128 -0.384 -0.368c 0 -0.24 0.128 -0.368 0.384 -0.368h 9.888c 0.256 0 0.384 0.128 0.384 0.368c 0 0.192 -0.176 0.368 -0.384 0.368Z m 0 -3.008h -9.888c -0.256 0 -0.384 -0.128 -0.384 -0.368c 0 -0.24 0.128 -0.368 0.384 -0.368h 9.888c 0.256 0 0.384 0.128 0.384 0.368c 0 0.208 -0.176 0.368 -0.384 0.368Z "/></symbol><symbol id="gEEA27574DB27C08E1CA07C210D64160F" overflow="visible"><path d="M 0 0m 3.984 -0.352c 2.256 0 3.376 1.824 3.376 5.472c 0 2.448 -0.512 4.08 -1.52 4.88c -0.56 0.432 -1.184 0.656 -1.84 0.656c -2.256 0 -3.376 -1.84 -3.376 -5.536c 0 -2.944 0.784 -5.472 3.36 -5.472Z m 1.792 8.736c 0.112 -0.56 0.16 -1.584 0.16 -3.072c 0 -1.472 -0.064 -2.56 -0.176 -3.264c -0.208 -1.28 -0.8 -1.92 -1.776 -1.92c -0.368 0 -0.736 0.144 -1.072 0.416c -0.432 0.368 -0.688 1.12 -0.8 2.272c -0.048 0.4 -0.064 1.232 -0.064 2.496c 0 1.392 0.048 2.368 0.128 2.896c 0.144 0.88 0.432 1.44 0.88 1.68c 0.352 0.192 0.656 0.288 0.928 0.288c 1.04 0 1.616 -0.848 1.792 -1.792Z "/></symbol><symbol id="g61BD37191BC04B89287D8B591BA5AA7F" overflow="visible"><path d="M 0 0m 3.396 3.876c 1.02 0 1.056 -0.276 1.092 -0.816c 0.072 -0.072 0.324 -0.072 0.396 0c -0.012 0.3 -0.024 0.648 -0.024 1.056c 0 0.408 0.012 0.72 0.024 1.032c -0.072 0.072 -0.324 0.072 -0.396 0c -0.036 -0.66 -0.072 -0.816 -1.092 -0.816h -1.116v 2.16c 0 0.648 0.144 0.768 0.672 0.768h 0.54c 1.272 0 1.572 -0.48 1.836 -1.308c 0.144 0 0.276 0.024 0.372 0.06c -0.06 0.492 -0.24 1.644 -0.264 1.74c 0 0.024 -0.012 0.036 -0.048 0.036c -0.204 -0.036 -0.264 -0.048 -0.564 -0.048h -3.06c -0.384 0 -1.068 0.012 -1.548 0.024c -0.072 -0.072 -0.072 -0.324 0 -0.396c 0.84 -0.036 1.044 -0.096 1.044 -1.092v -4.812c 0 -0.996 -0.204 -1.056 -1.044 -1.092c -0.072 -0.072 -0.072 -0.324 0 -0.396c 0.42 0.012 1.02 0.024 1.56 0.024c 0.54 0 1.128 -0.012 1.548 -0.024c 0.072 0.072 0.072 0.324 0 0.396c -0.84 0.036 -1.044 0.096 -1.044 1.092v 2.412Z "/></symbol><symbol id="g289ED535C508AEA31A604F0DADFA8DC1" overflow="visible"><path d="M 0 0m 2.172 1.464v 2.388c 0 0.6 0.048 1.368 0.048 1.368c 0 0.048 -0.06 0.084 -0.156 0.084c -0.336 -0.132 -0.816 -0.24 -1.644 -0.348c -0.024 -0.072 0 -0.264 0.024 -0.336c 0.66 -0.06 0.78 -0.132 0.78 -0.816v -2.34c 0 -0.996 -0.132 -1.032 -0.864 -1.092c -0.072 -0.072 -0.072 -0.324 0 -0.396c 0.396 0.012 0.864 0.024 1.344 0.024c 0.48 0 0.936 -0.012 1.332 -0.024c 0.072 0.072 0.072 0.324 0 0.396c -0.732 0.048 -0.864 0.096 -0.864 1.092Z m -1.092 5.724c 0 -0.312 0.288 -0.624 0.576 -0.624c 0.336 0 0.624 0.324 0.624 0.576c 0 0.288 -0.252 0.624 -0.576 0.624c -0.288 0 -0.624 -0.288 -0.624 -0.576Z "/></symbol><symbol id="g2CAEDCB9708166472B607F1B64064810" overflow="visible"><path d="M 0 0m 0.576 1.656c 0.048 -0.588 0.084 -1.152 0.084 -1.656c 0.12 0.024 0.24 0.036 0.3 0.036c 0.084 0 0.156 0 0.24 -0.024c 0.324 -0.084 0.648 -0.132 1.092 -0.132c 0.672 0 1.908 0.324 1.908 1.512c 0 0.816 -0.588 1.296 -1.404 1.596c -0.72 0.276 -1.2 0.456 -1.2 1.116c 0 0.492 0.432 0.768 0.84 0.768c 0.264 0 0.96 -0.096 1.116 -1.116c 0.072 -0.072 0.312 -0.06 0.384 0.012c 0.036 0.432 0.06 0.876 0.072 1.272c -0.372 0.06 -0.948 0.228 -1.572 0.228c -0.888 0 -1.692 -0.576 -1.692 -1.344c 0 -0.876 0.396 -1.248 1.32 -1.632c 0.996 -0.408 1.224 -0.66 1.224 -1.176c 0 -0.588 -0.576 -0.84 -1.02 -0.84c -0.468 0 -0.732 0.156 -0.852 0.288c -0.264 0.276 -0.396 0.804 -0.468 1.104c -0.072 0.072 -0.3 0.06 -0.372 -0.012Z "/></symbol><symbol id="g82AC2E51D964EFE9E0DB4B48AD0990AD" overflow="visible"><path d="M 0 0m 4.776 1.092c -0.048 0.108 -0.144 0.156 -0.252 0.168c -0.408 -0.528 -0.924 -0.792 -1.44 -0.792c -0.876 0 -1.608 0.888 -1.608 2.292c 0 1.32 0.576 2.112 1.368 2.112c 0.708 0 0.804 -0.42 0.852 -0.84c 0.036 -0.324 0.204 -0.432 0.456 -0.432c 0.252 0 0.588 0.156 0.588 0.528c 0 0.66 -0.684 1.14 -1.836 1.14c -1.188 0 -2.46 -1.068 -2.46 -2.772c 0 -1.548 0.864 -2.616 2.376 -2.616c 0.72 0 1.356 0.228 1.956 1.212Z "/></symbol><symbol id="g261D98180777C8DD2F1A4AD87800C02B" overflow="visible"><path d="M 0 0m 2.004 3.432c 0 0.252 0.108 0.396 0.204 0.504c 0.456 0.444 1.068 0.708 1.536 0.708c 0.24 0 0.492 -0.156 0.636 -0.432c 0.12 -0.24 0.144 -0.564 0.144 -0.924v -1.824c 0 -0.984 -0.12 -1.032 -0.744 -1.092c -0.06 -0.072 -0.06 -0.324 0 -0.396c 0.336 0.012 0.744 0.024 1.224 0.024c 0.48 0 0.876 -0.012 1.272 -0.024c 0.06 0.072 0.06 0.324 0 0.396c -0.672 0.06 -0.804 0.108 -0.804 1.092v 1.788c 0 0.66 -0.048 1.248 -0.324 1.608c -0.204 0.264 -0.576 0.408 -0.996 0.408c -0.588 0 -1.308 -0.156 -2.04 -0.972c 0 -0.012 -0.012 -0.012 -0.024 -0.024c -0.036 -0.048 -0.096 -0.12 -0.096 0.024l 0.012 2.7c 0 0.78 0.048 1.26 0.048 1.26c 0 0.084 -0.048 0.12 -0.156 0.12c -0.3 -0.12 -1.2 -0.288 -1.68 -0.324c -0.024 -0.096 0 -0.288 0.072 -0.36c 0.036 0 0.072 0 0.108 0c 0.528 -0.036 0.66 -0.036 0.66 -0.984v -5.244c 0 -0.996 -0.144 -1.044 -0.84 -1.092c -0.072 -0.072 -0.072 -0.324 0 -0.396c 0.396 0.012 0.84 0.024 1.32 0.024c 0.456 0 0.852 -0.012 1.188 -0.024c 0.072 0.072 0.072 0.324 0 0.396c -0.612 0.048 -0.72 0.096 -0.72 1.092Z "/></symbol><symbol id="g30001D7828CC398501D0D953534F2217" overflow="visible"><path d="M 0 0m 4.632 1.116c -0.444 -0.456 -0.792 -0.648 -1.488 -0.648c -0.432 0 -0.936 0.252 -1.308 0.864c -0.24 0.396 -0.384 0.948 -0.384 1.644l 3.192 -0.024c 0.144 0 0.228 0.072 0.228 0.204c 0 1.008 -0.36 2.088 -2.028 2.088c -1.044 0 -2.4 -0.996 -2.4 -2.82c 0 -0.672 0.168 -1.32 0.564 -1.776c 0.408 -0.48 0.972 -0.768 1.836 -0.768c 0.912 0 1.56 0.42 2.04 1.044c -0.036 0.12 -0.108 0.18 -0.252 0.192Z m -3.144 2.268c 0.228 1.356 1.068 1.464 1.356 1.464c 0.456 0 0.996 -0.252 0.996 -1.26c 0 -0.108 -0.048 -0.168 -0.18 -0.168Z "/></symbol><symbol id="g1BCB9C828DF030506619E4914135A997" overflow="visible"><path d="M 0 0m 2.112 4.296c -0.024 0.48 -0.036 0.792 -0.096 0.912c -0.024 0.06 -0.048 0.096 -0.144 0.096c -0.336 -0.132 -0.648 -0.24 -1.476 -0.348c -0.024 -0.072 0 -0.264 0.024 -0.336c 0.648 -0.06 0.78 -0.12 0.78 -0.816v -2.34c 0 -0.996 -0.144 -1.044 -0.888 -1.092c -0.072 -0.072 -0.072 -0.324 0 -0.396c 0.42 0.012 0.888 0.024 1.368 0.024c 0.48 0 1.032 -0.012 1.452 -0.024c 0.072 0.072 0.072 0.324 0 0.396c -0.84 0.06 -0.984 0.096 -0.984 1.092v 1.668c 0 0.312 0.144 0.588 0.288 0.804c 0.132 0.192 0.408 0.588 0.552 0.588c 0.108 0 0.216 -0.024 0.312 -0.156c 0.084 -0.12 0.228 -0.276 0.432 -0.276c 0.288 0 0.564 0.3 0.564 0.6c 0 0.228 -0.216 0.576 -0.72 0.576c -0.564 0 -1.056 -0.528 -1.332 -0.996c -0.072 -0.132 -0.132 -0.036 -0.132 0.024Z "/></symbol><symbol id="g5800F2818E32936A75B31AA04C22C148" overflow="visible"><path d="M 0 0m 3.252 2.676c 0.156 0 0.324 0.336 0.324 0.48c 0 0.12 -0.048 0.24 -0.168 0.24h -2.628c -0.144 0 -0.3 -0.276 -0.3 -0.492c 0 -0.12 0.072 -0.228 0.18 -0.228Z "/></symbol><symbol id="gAB9E0B3000B7FB6A6E20C316ADF98C85" overflow="visible"><path d="M 0 0m 2.292 1.464v 2.244c 0.408 -0.012 0.756 -0.144 0.996 -0.456l 1.884 -2.376c 0.24 -0.312 0.408 -0.636 0.432 -0.828c 0 -0.036 0.012 -0.072 0.06 -0.072c 0.24 0.012 0.396 0.024 0.648 0.024c 0.408 0 0.816 -0.012 1.212 -0.024c 0.072 0.072 0.072 0.324 0 0.396c -0.348 0.036 -0.684 0.072 -1.056 0.504l -2.628 3.12c -0.096 0.108 -0.156 0.204 -0.156 0.3c 0 0.084 0.012 0.168 0.42 0.588l 1.764 1.812c 0.552 0.588 1.032 0.636 1.512 0.672c 0.072 0.072 0.072 0.324 0 0.396c -0.372 -0.012 -0.756 -0.024 -1.14 -0.024c -0.444 0 -0.912 0.012 -1.356 0.024c -0.072 -0.072 -0.072 -0.324 0 -0.396c 0.432 -0.036 0.84 -0.084 0.336 -0.624l -1.98 -2.112c -0.252 -0.276 -0.528 -0.432 -0.948 -0.468v 2.112c 0 0.996 0.204 1.056 1.044 1.092c 0.072 0.072 0.072 0.324 0 0.396c -0.552 -0.012 -1.116 -0.024 -1.56 -0.024c -0.456 0 -1.008 0.012 -1.548 0.024c -0.072 -0.072 -0.072 -0.324 0 -0.396c 0.84 -0.036 1.044 -0.096 1.044 -1.092v -4.812c 0 -0.996 -0.204 -1.056 -1.044 -1.092c -0.072 -0.072 -0.072 -0.324 0 -0.396c 0.54 0.012 1.092 0.024 1.56 0.024c 0.456 0 1.008 -0.012 1.548 -0.024c 0.072 0.072 0.072 0.324 0 0.396c -0.84 0.036 -1.044 0.096 -1.044 1.092Z "/></symbol><symbol id="gDEDC019FF1F409029582831C73222AA3" overflow="visible"><path d="M 0 0m 0.492 2.46c 0 -1.224 0.816 -2.58 2.52 -2.58c 0.768 0 1.356 0.276 1.764 0.672c 0.54 0.528 0.78 1.284 0.78 2.016c 0 1.248 -0.684 2.7 -2.52 2.7c -0.792 0 -1.44 -0.324 -1.884 -0.84c -0.432 -0.516 -0.66 -1.212 -0.66 -1.968Z m 2.364 2.388c 1.032 0 1.668 -0.936 1.668 -2.664c 0 -1.512 -0.78 -1.884 -1.344 -1.884c -1.248 0 -1.656 1.512 -1.656 2.436c 0 1.044 0.252 2.112 1.332 2.112Z "/></symbol><symbol id="g715B92523A282CBE3B91B95199A3A2A" overflow="visible"><path d="M 0 0m 4.284 -0.12c 1.164 0 2.232 0.552 3.048 1.62c -0.06 0.108 -0.144 0.18 -0.276 0.18c -0.852 -0.936 -1.668 -1.308 -2.784 -1.308c -1.62 0 -2.736 1.824 -2.736 3.576c 0 1.032 0.276 1.896 0.708 2.436c 0.6 0.732 1.296 1.068 1.92 1.068c 1.656 0 2.316 -0.984 2.628 -2.016c 0.144 -0.048 0.264 -0.012 0.396 0.06c -0.06 0.624 -0.144 1.2 -0.264 1.86c -0.612 0.06 -1.152 0.54 -2.628 0.54c -1.02 0 -1.872 -0.372 -2.58 -1.02c -0.792 -0.732 -1.272 -1.908 -1.272 -3.156c 0 -2.088 1.26 -3.84 3.84 -3.84Z "/></symbol><symbol id="gF2FA6952BE331EABB0A764456239871F" overflow="visible"><path d="M 0 0m 1.248 6.276v -4.812c 0 -0.996 -0.204 -1.056 -1.044 -1.092c -0.072 -0.072 -0.072 -0.324 0 -0.396c 0.54 0.012 1.128 0.024 1.56 0.024c 0.42 0 1.128 -0.012 1.728 -0.024c 0.072 0.072 0.072 0.324 0 0.396c -0.936 0.048 -1.224 0.096 -1.224 1.092v 2.04c 0.264 -0.084 0.552 -0.12 0.972 -0.12c 2.184 0 2.844 1.428 2.844 2.448c 0 0.708 -0.468 1.992 -2.688 1.992c -0.456 0 -1.164 -0.084 -1.644 -0.084c -0.444 0 -1.068 0.012 -1.548 0.024c -0.072 -0.072 -0.072 -0.324 0 -0.396c 0.84 -0.036 1.044 -0.096 1.044 -1.092Z m 1.02 0.372c 0 0.348 0.18 0.768 1.044 0.768c 0.828 0 1.656 -0.276 1.656 -1.8c 0 -1.296 -0.624 -1.824 -1.788 -1.824c -0.3 0 -0.78 0.024 -0.912 0.06Z "/></symbol></defs></svg>