<svg viewBox="0 0 445.696 72.152" width="445.696pt" height="72.152pt" xmlns="http://www.w3.org/2000/svg" xmlns:xlink="http://www.w3.org/1999/xlink" xmlns:h5="http://www.w3.org/1999/xhtml"><g transform="matrix(1 0 0 -1 20 23.32)"><use xlink:href="#gA630A14EFF74F3B6293D723E876CFC82" x="0" y="0" fill="#e0e0e0" fill-rule="nonzero"/><use xlink:href="#g64FABD8181A0D0AE962D83CCFB91B478" x="8.336" y="0" fill="#e0e0e0" fill-rule="nonzero"/><use xlink:href="#g61A0002E42392354EB85782A553A6EEE" x="17.264" y="0" fill="#e0e0e0" fill-rule="nonzero"/><use xlink:href="#g126782A56BC0402254F11EA8BA2F12E3" x="23.984" y="0" fill="#e0e0e0" fill-rule="nonzero"/><use xlink:href="#g2B9A6BE5C96A44EC5B91CAD3E000148E" x="32.8" y="0" fill="#e0e0e0" fill-rule="nonzero"/><use xlink:href="#g3421F383F5463C054AA2595D6837E6A5" x="37.952" y="0" fill="#e0e0e0" fill-rule="nonzero"/></g><g transform="matrix(1 0 0 -1 20 41.288)"><use xlink:href="#g6B2BD8417A153D7B2322B2C53F78B77D" x="0" y="0" fill="#e0e0e0" fill-rule="nonzero"/><use xlink:href="#gDB5A245C5132F56829007895C751A9B9" x="6.304" y="0" fill="#e0e0e0" fill-rule="nonzero"/><use xlink:href="#g2D6E657268474CEE13627634B0892604" x="10.752" y="0" fill="#e0e0e0" fill-rule="nonzero"/><use xlink:href="#gFE76948C2BAC56DB366E75C5D3E395C9" x="19.648" y="0" fill="#e0e0e0" fill-rule="nonzero"/><use xlink:href="#g7F1CDFC9C50812C85F36807E567EABDF" x="25.872" y="0" fill="#e0e0e0" fill-rule="nonzero"/><use xlink:href="#gA3525D446D3D83A5B7E735BB6646CDBD" x="34.32" y="0" fill="#e0e0e0" fill-rule="nonzero"/><use xlink:href="#g4A60CE28263A0313E2F1F2501A07CE8B" x="42.768" y="0" fill="#e0e0e0" fill-rule="nonzero"/><use xlink:href="#g6962E09401F6289A28317FAA8E7FC9C1" x="54.304" y="0" fill="#e0e0e0" fill-rule="nonzero"/><use xlink:href="#gB655B06F60CB612733AD7B4C8BAD552D" x="61.408" y="0" fill="#e0e0e0" fill-rule="nonzero"/><use xlink:href="#g6B2BD8417A153D7B2322B2C53F78B77D" x="69.408" y="0" fill="#e0e0e0" fill-rule="nonzero"/><use xlink:href="#gFE76948C2BAC56DB366E75C5D3E395C9" x="75.712" y="0" fill="#e0e0e0" fill-rule="nonzero"/><use xlink:href="#g7F1CDFC9C50812C85F36807E567EABDF" x="81.936" y="0" fill="#e0e0e0" fill-rule="nonzero"/><use xlink:href="#g64AA6D97DC384EDB5F6925C9B5CF4089" x="90.384" y="0" fill="#e0e0e0" fill-rule="nonzero"/><use xlink:href="#g4A60CE28263A0313E2F1F2501A07CE8B" x="98.832" y="0" fill="#e0e0e0" fill-rule="nonzero"/><use xlink:href="#gD1F745F93AA9122F5DF54DDA8243F5F3" x="110.368" y="0" fill="#e0e0e0" fill-rule="nonzero"/><use xlink:href="#g6B2BD8417A153D7B2322B2C53F78B77D" x="128.128" y="0" fill="#e0e0e0" fill-rule="nonzero"/><use xlink:href="#gDB5A245C5132F56829007895C751A9B9" x="134.432" y="0" fill="#e0e0e0" fill-rule="nonzero"/><use xlink:href="#g2D6E657268474CEE13627634B0892604" x="138.88" y="0" fill="#e0e0e0" fill-rule="nonzero"/><use xlink:href="#gFE76948C2BAC56DB366E75C5D3E395C9" x="147.776" y="0" fill="#e0e0e0" fill-rule="nonzero"/><use xlink:href="#g7F1CDFC9C50812C85F36807E567EABDF" x="154" y="0" fill="#e0e0e0" fill-rule="nonzero"/><use xlink:href="#g64AA6D97DC384EDB5F6925C9B5CF4089" x="162.448" y="0" fill="#e0e0e0" fill-rule="nonzero"/><use xlink:href="#g4A60CE28263A0313E2F1F2501A07CE8B" x="170.896" y="0" fill="#e0e0e0" fill-rule="nonzero"/><use xlink:href="#g6962E09401F6289A28317FAA8E7FC9C1" x="182.432" y="0" fill="#e0e0e0" fill-rule="nonzero"/><use xlink:href="#gB655B06F60CB612733AD7B4C8BAD552D" x="189.536" y="0" fill="#e0e0e0" fill-rule="nonzero"/><use xlink:href="#g6B2BD8417A153D7B2322B2C53F78B77D" x="197.536" y="0" fill="#e0e0e0" fill-rule="nonzero"/><use xlink:href="#gFE76948C2BAC56DB366E75C5D3E395C9" x="203.84" y="0" fill="#e0e0e0" fill-rule="nonzero"/><use xlink:href="#g7F1CDFC9C50812C85F36807E567EABDF" x="210.064" y="0" fill="#e0e0e0" fill-rule="nonzero"/><use xlink:href="#gDBFAE06AF79FDD9C3E51928051970166" x="218.512" y="0" fill="#e0e0e0" fill-rule="nonzero"/><use xlink:href="#g4A60CE28263A0313E2F1F2501A07CE8B" x="225.616" y="0" fill="#e0e0e0" fill-rule="nonzero"/><use xlink:href="#gD1F745F93AA9122F5DF54DDA8243F5F3" x="237.152" y="0" fill="#e0e0e0" fill-rule="nonzero"/><use xlink:href="#g6B2BD8417A153D7B2322B2C53F78B77D" x="254.912" y="0" fill="#e0e0e0" fill-rule="nonzero"/><use xlink:href="#gDB5A245C5132F56829007895C751A9B9" x="261.216" y="0" fill="#e0e0e0" fill-rule="nonzero"/><use xlink:href="#g2D6E657268474CEE13627634B0892604" x="265.664" y="0" fill="#e0e0e0" fill-rule="nonzero"/><use xlink:href="#gFE76948C2BAC56DB366E75C5D3E395C9" x="274.56" y="0" fill="#e0e0e0" fill-rule="nonzero"/><use xlink:href="#g7F1CDFC9C50812C85F36807E567EABDF" x="280.784" y="0" fill="#e0e0e0" fill-rule="nonzero"/><use xlink:href="#gDBFAE06AF79FDD9C3E51928051970166" x="289.232" y="0" fill="#e0e0e0" fill-rule="nonzero"/><use xlink:href="#g4A60CE28263A0313E2F1F2501A07CE8B" x="296.336" y="0" fill="#e0e0e0" fill-rule="nonzero"/><use xlink:href="#g6962E09401F6289A28317FAA8E7FC9C1" x="307.872" y="0" fill="#e0e0e0" fill-rule="nonzero"/><use xlink:href="#gB655B06F60CB612733AD7B4C8BAD552D" x="314.976" y="0" fill="#e0e0e0" fill-rule="nonzero"/><use xlink:href="#g6B2BD8417A153D7B2322B2C53F78B77D" x="322.976" y="0" fill="#e0e0e0" fill-rule="nonzero"/><use xlink:href="#gFE76948C2BAC56DB366E75C5D3E395C9" x="329.28" y="0" fill="#e0e0e0" fill-rule="nonzero"/><use xlink:href="#g7F1CDFC9C50812C85F36807E567EABDF" x="335.504" y="0" fill="#e0e0e0" fill-rule="nonzero"/><use xlink:href="#gA3525D446D3D83A5B7E735BB6646CDBD" x="343.952" y="0" fill="#e0e0e0" fill-rule="nonzero"/><use xlink:href="#g4A60CE28263A0313E2F1F2501A07CE8B" x="352.4" y="0" fill="#e0e0e0" fill-rule="nonzero"/><use xlink:href="#gF0099E97FCE47D86CFFAA01886DF78DA" x="363.936" y="0" fill="#e0e0e0" fill-rule="nonzero"/><use xlink:href="#gEEA27574DB27C08E1CA07C210D64160F" x="381.696" y="0" fill="#e0e0e0" fill-rule="nonzero"/></g><g transform="matrix(1 0 0 -1 20 59.152)"><use xlink:href="#gD52476CD876CC5015C812EC909CD33E7" x="0" y="0" fill="#999999" fill-rule="nonzero"/><use xlink:href="#g1738B39D8F7721B664EA5B0251DB723C" x="8.22" y="0" fill="#999999" fill-rule="nonzero"/><use xlink:href="#g1BCB9C828DF030506619E4914135A997" x="14.4" y="0" fill="#999999" fill-rule="nonzero"/><use xlink:href="#gDEDC019FF1F409029582831C73222AA3" x="18.768" y="0" fill="#999999" fill-rule="nonzero"/><use xlink:href="#g289ED535C508AEA31A604F0DADFA8DC1" x="24.816" y="0" fill="#999999" fill-rule="nonzero"/><use xlink:href="#gA9D8AA38C81E5F63D053CA30FE947007" x="28.068" y="0" fill="#999999" fill-rule="nonzero"/><use xlink:href="#gC718F7B3FEBDE5FBB71AFCF9D705B32C" x="37.14" y="0" fill="#999999" fill-rule="nonzero"/><use xlink:href="#gD52476CD876CC5015C812EC909CD33E7" x="40.596" y="0" fill="#999999" fill-rule="nonzero"/><use xlink:href="#gD2D6418B9074FCF2C80BD3C34EA5A6FC" x="48.816" y="0" fill="#999999" fill-rule="nonzero"/></g><defs><symbol id="gA630A14EFF74F3B6293D723E876CFC82" overflow="visible"><path d="M 0 0m 7.472 6.304c 0.448 0 0.704 0.192 0.704 0.784c 0 0.304 -0.416 0.768 -1.024 0.768c -0.704 0 -1.632 -0.528 -2.096 -0.944c -0.288 0.16 -0.624 0.192 -1.344 0.192c -0.688 0 -1.36 -0.16 -1.888 -0.512c -0.656 -0.416 -1.088 -1.04 -1.088 -1.856c 0 -0.784 0.464 -1.632 1.232 -2.048c -0.496 -0.432 -1.264 -1.28 -1.264 -1.6c 0 -0.304 0.048 -0.496 0.208 -0.736c 0.144 -0.224 0.336 -0.352 0.656 -0.448c -0.688 -0.416 -1.392 -1.328 -1.392 -1.6c 0 -0.592 0.192 -1.28 0.624 -1.584c 0.624 -0.432 1.68 -0.528 2.448 -0.528c 2.224 0 4.768 1.168 4.768 2.928c 0 0.336 -0.16 1.024 -0.8 1.456c -0.624 0.416 -3.024 0.528 -4.208 0.528c -0.288 0 -0.72 0.032 -0.72 0.672c 0 0.256 0.16 0.48 0.24 0.672c 0.336 -0.16 0.672 -0.176 1.168 -0.176c 0.816 0 1.568 0.208 2.112 0.688c 0.464 0.416 0.784 0.976 0.784 1.696c 0 0.896 -0.448 1.488 -0.992 1.936c 0.128 0.16 0.656 0.448 0.816 0.448c 0.144 0 0.256 -0.096 0.304 -0.192c 0.064 -0.208 0.352 -0.544 0.752 -0.544Z m -4.672 -6.704c 1.232 0 3.6 -0.048 3.6 -0.896c 0 -0.576 -0.256 -1.232 -0.784 -1.52c -0.496 -0.288 -1.312 -0.32 -1.92 -0.32c -1.056 0 -1.776 0.784 -1.776 1.6c 0 0.544 0 0.912 0.176 1.232c 0.16 -0.064 0.368 -0.096 0.704 -0.096Z m 1.84 5.008c 0 -1.536 -0.448 -1.728 -0.864 -1.728c -0.992 0 -1.12 1.184 -1.12 2c 0 1.184 0.288 1.616 0.912 1.616c 0.752 0 1.072 -0.624 1.072 -1.888Z "/></symbol><symbol id="g64FABD8181A0D0AE962D83CCFB91B478" overflow="visible"><path d="M 0 0m 3.872 -2.688c 0.256 0.448 0.496 1.024 0.688 1.504c 1.28 3.088 2.064 4.816 2.912 6.608c 0.224 0.464 0.704 0.96 1.296 1.008c 0.096 0.096 0.096 0.448 0 0.544c -0.4 -0.016 -0.688 -0.032 -1.136 -0.032c -0.56 0 -1.104 0.016 -1.696 0.032c -0.096 -0.096 -0.096 -0.448 0 -0.544c 0.512 -0.048 1.024 -0.128 0.768 -0.704l -1.648 -3.696c 0 -0.016 0 -0.016 -0.016 -0.032c 0 0.016 0 0.032 -0.016 0.064l -1.488 3.344c -0.016 0.016 -0.016 0.032 -0.016 0.048c -0.288 0.624 -0.4 0.896 0.544 0.976c 0.096 0.096 0.096 0.448 0 0.544c -0.592 -0.016 -1.552 -0.032 -2.128 -0.032c -0.544 0 -1.456 0.016 -1.776 0.032c -0.096 -0.096 -0.096 -0.448 0 -0.544c 0.704 -0.064 0.832 -0.176 1.264 -1.184l 2.064 -4.736c 0.048 -0.08 0.112 -0.144 0.16 -0.208c 0.208 -0.288 0.384 -0.528 0.288 -0.752l -0.384 -0.88c -0.208 -0.496 -0.4 -0.784 -0.848 -0.784c -0.288 0 -0.336 0.064 -0.56 0.064c -0.608 0 -0.96 -0.416 -0.96 -0.736c 0 -0.208 0.048 -0.464 0.192 -0.64c 0.144 -0.176 0.416 -0.288 0.624 -0.288c 0.208 0 0.688 0.064 0.912 0.16c 0.336 0.16 0.784 0.544 0.96 0.864Z "/></symbol><symbol id="g61A0002E42392354EB85782A553A6EEE" overflow="visible"><path d="M 0 0m 3.648 4.288c 0 0.576 0.176 0.816 0.384 1.056c 0.128 0.16 0.272 0.272 0.512 0.272c 0.144 0 0.32 -0.144 0.448 -0.304c 0.112 -0.128 0.384 -0.256 0.752 -0.256c 0.464 0 0.912 0.48 0.912 1.152c 0 0.416 -0.48 0.896 -1.056 0.896c -0.56 0 -1.168 -0.48 -1.904 -1.536h -0.064c -0.032 0.48 -0.112 1.264 -0.112 1.264c -0.016 0.144 -0.144 0.272 -0.368 0.272c -0.752 -0.192 -1.6 -0.416 -2.656 -0.528c -0.032 -0.096 0 -0.4 0.032 -0.496c 0.88 -0.08 1.04 -0.224 1.04 -1.136v -2.992c 0 -1.328 -0.176 -1.36 -1.152 -1.44c -0.096 -0.096 -0.096 -0.448 0 -0.544c 0.672 0.016 1.344 0.032 2.192 0.032c 0.848 0 1.504 -0.016 2.192 -0.032c 0.096 0.096 0.096 0.448 0 0.544c -0.976 0.064 -1.152 0.112 -1.152 1.44Z "/></symbol><symbol id="g126782A56BC0402254F11EA8BA2F12E3" overflow="visible"><path d="M 0 0m 0.592 3.312c 0 -2.096 1.664 -3.472 3.808 -3.472c 1.136 0 2.08 0.32 2.736 0.912c 0.816 0.72 1.088 1.808 1.088 2.704c 0 2.096 -1.424 3.648 -3.808 3.648c -1.328 0 -2.32 -0.464 -2.944 -1.184c -0.608 -0.704 -0.88 -1.664 -0.88 -2.608Z m 3.568 3.12c 1.088 0 1.824 -1.296 1.824 -3.488c 0 -1.92 -0.752 -2.432 -1.328 -2.432c -1.312 0 -1.824 1.968 -1.824 3.152c 0 1.472 0.256 2.768 1.328 2.768Z "/></symbol><symbol id="g2B9A6BE5C96A44EC5B91CAD3E000148E" overflow="visible"><path d="M 0 0m 3.712 1.952v 3.184c 0 0.8 0.064 1.696 0.064 1.696c 0 0.176 -0.144 0.272 -0.368 0.272c -0.448 -0.176 -1.744 -0.304 -2.848 -0.448c -0.032 -0.096 0 -0.416 0.032 -0.512c 0.88 -0.08 1.04 -0.208 1.04 -1.12v -3.072c 0 -1.328 -0.176 -1.36 -1.152 -1.44c -0.096 -0.096 -0.096 -0.448 0 -0.544c 0.672 0.016 1.344 0.032 2.192 0.032c 0.848 0 1.504 -0.016 2.192 -0.032c 0.096 0.096 0.096 0.448 0 0.544c -0.976 0.064 -1.152 0.112 -1.152 1.44Z m -2.16 7.584c 0 -0.528 0.384 -1.056 1.024 -1.056c 0.72 0 1.136 0.576 1.136 0.992c 0 0.48 -0.368 1.056 -1.04 1.056c -0.752 0 -1.12 -0.512 -1.12 -0.992Z "/></symbol><symbol id="g3421F383F5463C054AA2595D6837E6A5" overflow="visible"><path d="M 0 0m 5.68 0.768c 0.032 -0.384 0.064 -0.656 0.064 -0.656c 0.016 -0.192 0.144 -0.272 0.368 -0.272c 0.592 0.16 1.552 0.384 2.656 0.528c 0.032 0.096 0 0.416 -0.032 0.512c -0.864 0.08 -1.04 0.336 -1.04 1.248v 7.2c 0 1.04 0.048 1.632 0.048 1.632c 0 0.144 -0.112 0.208 -0.256 0.208c -0.592 -0.192 -1.872 -0.368 -3.008 -0.416c -0.048 -0.192 -0.032 -0.4 0.048 -0.544c 1.008 -0.08 1.088 -0.096 1.088 -1.2v -2.08c -0.304 0.096 -0.688 0.176 -1.152 0.176c -2.064 0 -3.872 -1.808 -3.872 -3.936c 0 -0.944 0.336 -2.048 1.12 -2.656c 0.576 -0.448 0.976 -0.672 1.872 -0.672c 0.432 0 1.616 0.704 1.952 0.928Z m -0.048 0.752c -0.336 -0.272 -1.184 -0.624 -1.376 -0.624c -0.8 0 -1.424 0.896 -1.424 2.768c 0 0.848 0.096 1.584 0.4 2.08c 0.272 0.432 0.704 0.688 1.184 0.688c 0.416 0 0.816 -0.048 1.2 -0.576v -3.936c 0 -0.128 0 -0.272 0.016 -0.4Z "/></symbol><symbol id="g6B2BD8417A153D7B2322B2C53F78B77D" overflow="visible"><path d="M 0 0m 5.76 2.08c 0 1.216 -0.832 1.984 -2.48 2.304c -0.752 0.144 -1.232 0.32 -1.488 0.496c -0.256 0.176 -0.384 0.432 -0.384 0.736c 0 0.752 0.56 1.12 1.68 1.12c 1.088 0 1.68 -0.608 1.76 -1.84c 0.016 -0.128 0.096 -0.192 0.256 -0.192c 0.176 0 0.272 0.144 0.272 0.432v 1.584c 0 0.304 -0.08 0.448 -0.24 0.448c -0.176 0 -0.416 -0.288 -0.576 -0.416c -0.4 0.272 -0.896 0.416 -1.472 0.416c -1.424 0 -2.56 -0.64 -2.56 -2c 0 -0.544 0.224 -1.008 0.688 -1.376c 0.56 -0.464 1.088 -0.56 2.096 -0.736c 1.04 -0.208 1.568 -0.672 1.568 -1.392c 0 -0.912 -0.56 -1.376 -1.696 -1.376c -1.104 0 -1.808 0.736 -2.112 2.192c -0.048 0.208 -0.128 0.32 -0.272 0.32c -0.176 0 -0.272 -0.16 -0.272 -0.464v -2.064c 0 -0.304 0.08 -0.448 0.24 -0.448c 0.048 0 0.128 0.048 0.256 0.16c 0.288 0.256 0.16 0.208 0.448 0.496c 0.464 -0.432 1.04 -0.656 1.712 -0.656c 1.52 0 2.576 0.784 2.576 2.256Z "/></symbol><symbol id="gDB5A245C5132F56829007895C751A9B9" overflow="visible"><path d="M 0 0m 3.104 9.616c 0 0.48 -0.4 0.896 -0.88 0.896c -0.48 0 -0.896 -0.416 -0.896 -0.896c 0 -0.48 0.4 -0.912 0.88 -0.912c 0.496 0 0.896 0.416 0.896 0.912Z m -0.816 -9.568l 1.664 -0.048v 0.624c -0.528 0 -0.848 0.032 -0.944 0.096c -0.096 0.064 -0.128 0.24 -0.128 0.528v 5.872l -2.288 -0.192v -0.608c 0.528 0 0.864 -0.048 0.976 -0.128c 0.112 -0.08 0.16 -0.304 0.16 -0.672v -4.256c 0 -0.304 -0.048 -0.496 -0.16 -0.56c -0.112 -0.064 -0.464 -0.08 -1.04 -0.08v -0.624Z "/></symbol><symbol id="g2D6E657268474CEE13627634B0892604" overflow="visible"><path d="M 0 0m 5.024 6.608c 0.72 0 1.088 -0.56 1.088 -1.696v -3.648c 0 -0.304 -0.048 -0.496 -0.16 -0.56c -0.112 -0.064 -0.464 -0.096 -1.056 -0.096v -0.608l 1.84 0.048l 1.824 -0.048v 0.608c -0.512 0 -0.848 0.016 -1.008 0.064c -0.16 0.048 -0.224 0.16 -0.224 0.352v 2.992c 0 0.752 -0.016 1.28 -0.064 1.584c -0.16 0.976 -0.88 1.472 -2.144 1.472c -1.008 0 -1.76 -0.48 -2.256 -1.44v 1.44l -2.352 -0.176v -0.608c 0.576 0 0.928 -0.048 1.056 -0.144c 0.128 -0.096 0.176 -0.304 0.176 -0.672v -4.208c 0 -0.304 -0.064 -0.496 -0.176 -0.56c -0.112 -0.064 -0.464 -0.096 -1.056 -0.096v -0.608l 1.84 0.048l 1.824 -0.048v 0.608c -0.592 0 -0.928 0.032 -1.04 0.096c -0.112 0.064 -0.176 0.256 -0.176 0.56v 2.88c 0 1.296 0.816 2.464 2.064 2.464Z "/></symbol><symbol id="gFE76948C2BAC56DB366E75C5D3E395C9" overflow="visible"><path d="M 0 0m 5.088 -3.968c 0.144 0 0.224 0.08 0.224 0.224c 0 0.048 -0.032 0.112 -0.08 0.176c -0.832 0.64 -1.504 1.696 -2 3.152c -0.432 1.264 -0.656 2.512 -0.656 3.744v 1.344c 0 1.232 0.224 2.48 0.656 3.744c 0.496 1.456 1.168 2.512 2 3.152c 0.048 0.048 0.08 0.112 0.08 0.176c 0 0.144 -0.08 0.224 -0.224 0.224c -0.016 0 -0.064 -0.016 -0.112 -0.048c -0.96 -0.736 -1.76 -1.824 -2.416 -3.28c -0.624 -1.392 -0.944 -2.704 -0.944 -3.968v -1.344c 0 -1.264 0.32 -2.576 0.944 -3.968c 0.656 -1.456 1.456 -2.544 2.416 -3.28c 0.048 -0.032 0.096 -0.048 0.112 -0.048Z "/></symbol><symbol id="g7F1CDFC9C50812C85F36807E567EABDF" overflow="visible"><path d="M 0 0m 6.752 0.048c 0.32 0.016 0.8 0 1.424 -0.048v 0.624c -0.384 0 -0.672 0.048 -0.864 0.128c -0.192 0.08 -0.416 0.304 -0.672 0.672l -2 2.832c -0.048 0.144 -0.08 0.192 -0.08 0.144c 0 0.016 0.16 0.16 0.496 0.448c 0.56 0.496 0.976 0.816 1.248 0.992c 0.496 0.304 0.992 0.464 1.504 0.496v 0.608c -0.336 -0.032 -0.72 -0.048 -1.152 -0.048c -0.736 0 -1.344 0.016 -1.84 0.048v -0.608c 0.304 -0.016 0.464 -0.128 0.464 -0.336c 0 -0.192 -0.112 -0.384 -0.32 -0.576l -2.112 -1.84v 7.52l -2.4 -0.176v -0.608c 0.576 0 0.928 -0.048 1.056 -0.144c 0.128 -0.096 0.176 -0.32 0.176 -0.688v -8.224c 0 -0.304 -0.064 -0.496 -0.176 -0.56c -0.112 -0.064 -0.464 -0.08 -1.056 -0.08v -0.624l 1.776 0.048l 1.792 -0.048v 0.624c -0.592 0 -0.928 0.016 -1.04 0.08c -0.112 0.064 -0.176 0.256 -0.176 0.56v 1.6l 0.928 0.816l 0.256 -0.384c 1.04 -1.44 1.568 -2.24 1.568 -2.384c 0 -0.192 -0.192 -0.288 -0.576 -0.288v -0.624Z "/></symbol><symbol id="gA3525D446D3D83A5B7E735BB6646CDBD" overflow="visible"><path d="M 0 0m 6.688 0.048c 0.368 0.016 0.896 0 1.568 -0.048v 0.608c -0.848 0 -1.168 0.016 -1.504 0.464l -2.08 2.688c 0.688 0.848 1.152 1.424 1.408 1.728c 0.448 0.512 1.072 0.784 1.888 0.8v 0.608c -0.448 -0.032 -0.896 -0.048 -1.344 -0.048c -0.592 0 -1.12 0.016 -1.584 0.048v -0.608c 0.304 -0.032 0.464 -0.176 0.464 -0.432c 0 -0.144 -0.08 -0.32 -0.224 -0.512l -0.928 -1.152l -1.184 1.52c -0.08 0.112 -0.128 0.192 -0.128 0.24c 0 0.208 0.192 0.32 0.56 0.336v 0.608l -1.776 -0.048c -0.416 -0.016 -0.928 0 -1.552 0.048v -0.608c 0.576 0 0.944 -0.048 1.104 -0.128c 0.16 -0.08 0.416 -0.352 0.768 -0.816l 1.52 -1.984c -0.784 -1.008 -1.264 -1.616 -1.44 -1.824c -0.512 -0.624 -1.184 -0.928 -2.032 -0.928v -0.608c 0.592 0.048 1.04 0.064 1.376 0.048l 1.552 -0.048v 0.608c -0.304 0.048 -0.448 0.192 -0.448 0.432c 0 0.064 0.016 0.144 0.048 0.224c 0.096 0.208 0.528 0.752 1.296 1.664l 1.152 -1.504c 0.176 -0.224 0.272 -0.384 0.32 -0.48c 0 -0.208 -0.192 -0.32 -0.576 -0.336v -0.608Z "/></symbol><symbol id="g4A60CE28263A0313E2F1F2501A07CE8B" overflow="visible"><path d="M 0 0m 1.248 -3.92c 0.96 0.736 1.76 1.824 2.416 3.28c 0.624 1.392 0.944 2.704 0.944 3.968v 1.344c 0 1.264 -0.32 2.576 -0.944 3.968c -0.656 1.456 -1.456 2.544 -2.416 3.28c -0.048 0.032 -0.096 0.048 -0.112 0.048c -0.144 0 -0.224 -0.08 -0.224 -0.224c 0 -0.064 0.032 -0.128 0.08 -0.176c 0.832 -0.64 1.504 -1.696 2 -3.152c 0.432 -1.264 0.656 -2.512 0.656 -3.744v -1.344c 0 -1.232 -0.224 -2.48 -0.656 -3.744c -0.496 -1.456 -1.168 -2.512 -2 -3.152c -0.048 -0.064 -0.08 -0.128 -0.08 -0.176c 0 -0.144 0.08 -0.224 0.224 -0.224c 0.016 0 0.064 0.016 0.112 0.048Z "/></symbol><symbol id="g6962E09401F6289A28317FAA8E7FC9C1" overflow="visible"><path d="M 0 0m 4.016 6.656c 0.672 0 1.184 -0.16 1.536 -0.48c -0.384 -0.048 -0.656 -0.4 -0.656 -0.768c 0 -0.528 0.256 -0.784 0.784 -0.784c 0.528 0 0.784 0.272 0.784 0.8c 0 1.136 -1.232 1.744 -2.464 1.744c -0.992 0 -1.808 -0.352 -2.464 -1.088c -0.656 -0.736 -0.992 -1.616 -0.992 -2.624c 0 -0.976 0.336 -1.84 0.992 -2.56c 0.656 -0.72 1.456 -1.072 2.432 -1.072c 0.8 0 1.424 0.224 1.872 0.688c 0.368 0.368 0.608 0.736 0.736 1.12c 0.048 0.144 0.064 0.24 0.064 0.304c 0 0.144 -0.096 0.208 -0.272 0.208c -0.128 0 -0.208 -0.064 -0.256 -0.192c -0.336 -1.072 -0.992 -1.616 -2 -1.616c -0.464 0 -0.912 0.208 -1.36 0.64c -0.528 0.496 -0.784 1.328 -0.784 2.512c 0 1.6 0.608 3.168 2.048 3.168Z "/></symbol><symbol id="gB655B06F60CB612733AD7B4C8BAD552D" overflow="visible"><path d="M 0 0m 3.984 -0.176c 0.992 0 1.824 0.352 2.512 1.056c 0.688 0.704 1.04 1.552 1.04 2.544c 0 1.008 -0.336 1.888 -1.008 2.624c -0.672 0.736 -1.52 1.12 -2.528 1.12c -1.008 0 -1.84 -0.384 -2.528 -1.12c -0.688 -0.736 -1.024 -1.616 -1.024 -2.624c 0 -0.992 0.336 -1.84 1.024 -2.544c 0.688 -0.704 1.536 -1.056 2.512 -1.056Z m 0.016 0.512c -0.768 0 -1.344 0.336 -1.744 1.024c -0.256 0.448 -0.384 1.184 -0.384 2.192c 0 0.976 0.128 1.68 0.368 2.128c 0.384 0.688 0.96 1.024 1.744 1.024c 0.752 0 1.328 -0.336 1.728 -0.992c 0.272 -0.448 0.4 -1.168 0.4 -2.16c 0 -1.856 -0.544 -3.216 -2.112 -3.216Z "/></symbol><symbol id="g64AA6D97DC384EDB5F6925C9B5CF4089" overflow="visible"><path d="M 0 0m 1.808 -3.28c 0.88 0 1.584 0.608 2.08 1.84l 2.768 6.752c 0.272 0.64 0.752 0.96 1.472 0.96v 0.624c -0.528 -0.048 -0.944 -0.064 -1.248 -0.048l -1.424 0.048v -0.608c 0.496 -0.016 0.736 -0.224 0.736 -0.624c 0 -0.096 -0.032 -0.208 -0.096 -0.352l -1.52 -3.744l -1.696 4.096c -0.048 0.128 -0.08 0.224 -0.096 0.272c 0 0.224 0.304 0.336 0.896 0.336v 0.624l -1.792 -0.048c -0.384 -0.016 -0.912 0 -1.584 0.048v -0.624c 0.848 0 1.056 0.032 1.28 -0.512l 2.352 -5.744l -0.384 -0.896c -0.432 -1.024 -0.736 -1.92 -1.744 -1.92c -0.224 0 -0.416 0.064 -0.592 0.176c 0.368 0.08 0.544 0.32 0.544 0.704c 0 0.48 -0.24 0.72 -0.736 0.72c -0.48 0 -0.72 -0.24 -0.72 -0.736c 0 -0.784 0.72 -1.344 1.504 -1.344Z "/></symbol><symbol id="gD1F745F93AA9122F5DF54DDA8243F5F3" overflow="visible"><path d="M 0 0m 11.168 4.384h -4.56v 4.56c 0 0.256 -0.128 0.384 -0.384 0.384c -0.256 0 -0.384 -0.128 -0.384 -0.384v -4.56h -4.56c -0.256 0 -0.384 -0.128 -0.384 -0.384c 0 -0.256 0.128 -0.384 0.384 -0.384h 4.56v -4.56c 0 -0.256 0.128 -0.384 0.384 -0.384c 0.256 0 0.384 0.128 0.384 0.384v 4.56h 4.56c 0.256 0 0.384 0.128 0.384 0.384c 0 0.208 -0.176 0.384 -0.384 0.384Z "/></symbol><symbol id="gDBFAE06AF79FDD9C3E51928051970166" overflow="visible"><path d="M 0 0m 0.912 0h 5.232l 0.272 3.056h -0.512c -0.08 -0.992 -0.24 -1.664 -0.528 -2.016c -0.288 -0.352 -0.848 -0.528 -1.696 -0.528h -1.728l 4.272 5.808c 0.112 0.144 0.16 0.24 0.16 0.304c 0 0.176 -0.16 0.272 -0.464 0.272h -5.072l -0.192 -2.656h 0.528c 0.048 0.88 0.208 1.456 0.464 1.744c 0.256 0.288 0.784 0.448 1.584 0.448h 1.664l -4.288 -5.824c -0.112 -0.144 -0.16 -0.24 -0.16 -0.32c 0 -0.272 0.112 -0.288 0.464 -0.288Z "/></symbol><symbol id="gF0099E97FCE47D86CFFAA01886DF78DA" overflow="visible"><path d="M 0 0m 11.168 5.872h -9.888c -0.256 0 -0.384 -0.128 -0.384 -0.368c 0 -0.24 0.128 -0.368 0.384 -0.368h 9.888c 0.256 0 0.384 0.128 0.384 0.368c 0 0.192 -0.176 0.368 -0.384 0.368Z m 0 -3.008h -9.888c -0.256 0 -0.384 -0.128 -0.384 -0.368c 0 -0.24 0.128 -0.368 0.384 -0.368h 9.888c 0.256 0 0.384 0.128 0.384 0.368c 0 0.208 -0.176 0.368 -0.384 0.368Z "/></symbol><symbol id="gEEA27574DB27C08E1CA07C210D64160F" overflow="visible"><path d="M 0 0m 3.984 -0.352c 2.256 0 3.376 1.824 3.376 5.472c 0 2.448 -0.512 4.08 -1.52 4.88c -0.56 0.432 -1.184 0.656 -1.84 0.656c -2.256 0 -3.376 -1.84 -3.376 -5.536c 0 -2.944 0.784 -5.472 3.36 -5.472Z m 1.792 8.736c 0.112 -0.56 0.16 -1.584 0.16 -3.072c 0 -1.472 -0.064 -2.56 -0.176 -3.264c -0.208 -1.28 -0.8 -1.92 -1.776 -1.92c -0.368 0 -0.736 0.144 -1.072 0.416c -0.432 0.368 -0.688 1.12 -0.8 2.272c -0.048 0.4 -0.064 1.232 -0.064 2.496c 0 1.392 0.048 2.368 0.128 2.896c 0.144 0.88 0.432 1.44 0.88 1.68c 0.352 0.192 0.656 0.288 0.928 0.288c 1.04 0 1.616 -0.848 1.792 -1.792Z "/></symbol><symbol id="gD52476CD876CC5015C812EC909CD33E7" overflow="visible"><path d="M 0 0m 4.524 7.896c -2.004 0 -4.08 -1.572 -4.08 -4.212c 0 -2.16 1.488 -3.804 3.78 -3.804c 1.416 0 2.532 0.3 3.348 0.996c -0.132 0.108 -0.192 0.204 -0.192 0.336v 1.392c 0 0.42 0.204 0.54 0.552 0.576c 0.072 0.072 0.072 0.36 0 0.432c -0.288 -0.012 -0.588 -0.024 -1.068 -0.024c -0.396 0 -0.96 0.012 -1.488 0.024c -0.072 -0.072 -0.072 -0.36 0 -0.432c 0.66 -0.048 0.984 -0.096 0.984 -0.576v -1.836c -0.408 -0.384 -1.212 -0.456 -1.86 -0.456c -1.896 0 -2.904 2.028 -2.904 3.612c 0 2.1 1.368 3.54 2.76 3.54c 1.74 0 2.232 -0.996 2.544 -2.028c 0.132 -0.012 0.264 0.012 0.396 0.072c -0.024 0.504 -0.084 0.984 -0.276 1.848c -0.72 0.12 -1.164 0.54 -2.496 0.54Z "/></symbol><symbol id="g1738B39D8F7721B664EA5B0251DB723C" overflow="visible"><path d="M 0 0m 2.448 -1.92c 0.192 0.336 0.348 0.672 0.492 1.032c 0.96 2.316 1.5 3.552 2.124 4.896c 0.24 0.504 0.408 0.696 0.972 0.768c 0.072 0.072 0.072 0.324 0 0.396c -0.24 -0.012 -0.516 -0.024 -0.852 -0.024c -0.36 0 -0.732 0.012 -1.092 0.024c -0.072 -0.072 -0.072 -0.324 0 -0.396c 0.384 -0.036 0.768 -0.108 0.576 -0.54l -1.188 -2.748c -0.084 -0.192 -0.192 -0.228 -0.288 0.012l -1.068 2.496c -0.216 0.504 -0.276 0.732 0.396 0.78c 0.072 0.072 0.072 0.324 0 0.396c -0.444 -0.012 -0.924 -0.024 -1.356 -0.024c -0.408 0 -0.732 0.012 -0.972 0.024c -0.072 -0.072 -0.072 -0.324 0 -0.396c 0.48 -0.06 0.636 -0.168 0.948 -0.9l 1.356 -3.156c 0.108 -0.24 0.288 -0.792 0.168 -1.128c -0.144 -0.396 -0.288 -0.732 -0.468 -1.104c -0.132 -0.24 -0.3 -0.348 -0.6 -0.348c -0.168 0 -0.216 0.036 -0.348 0.036c -0.348 0 -0.528 -0.36 -0.528 -0.516c 0 -0.252 0.24 -0.444 0.564 -0.444c 0.252 0 0.732 0.096 1.164 0.864Z "/></symbol><symbol id="g1BCB9C828DF030506619E4914135A997" overflow="visible"><path d="M 0 0m 2.112 4.296c -0.024 0.48 -0.036 0.792 -0.096 0.912c -0.024 0.06 -0.048 0.096 -0.144 0.096c -0.336 -0.132 -0.648 -0.24 -1.476 -0.348c -0.024 -0.072 0 -0.264 0.024 -0.336c 0.648 -0.06 0.78 -0.12 0.78 -0.816v -2.34c 0 -0.996 -0.144 -1.044 -0.888 -1.092c -0.072 -0.072 -0.072 -0.324 0 -0.396c 0.42 0.012 0.888 0.024 1.368 0.024c 0.48 0 1.032 -0.012 1.452 -0.024c 0.072 0.072 0.072 0.324 0 0.396c -0.84 0.06 -0.984 0.096 -0.984 1.092v 1.668c 0 0.312 0.144 0.588 0.288 0.804c 0.132 0.192 0.408 0.588 0.552 0.588c 0.108 0 0.216 -0.024 0.312 -0.156c 0.084 -0.12 0.228 -0.276 0.432 -0.276c 0.288 0 0.564 0.3 0.564 0.6c 0 0.228 -0.216 0.576 -0.72 0.576c -0.564 0 -1.056 -0.528 -1.332 -0.996c -0.072 -0.132 -0.132 -0.036 -0.132 0.024Z "/></symbol><symbol id="gDEDC019FF1F409029582831C73222AA3" overflow="visible"><path d="M 0 0m 0.492 2.46c 0 -1.224 0.816 -2.58 2.52 -2.58c 0.768 0 1.356 0.276 1.764 0.672c 0.54 0.528 0.78 1.284 0.78 2.016c 0 1.248 -0.684 2.7 -2.52 2.7c -0.792 0 -1.44 -0.324 -1.884 -0.84c -0.432 -0.516 -0.66 -1.212 -0.66 -1.968Z m 2.364 2.388c 1.032 0 1.668 -0.936 1.668 -2.664c 0 -1.512 -0.78 -1.884 -1.344 -1.884c -1.248 0 -1.656 1.512 -1.656 2.436c 0 1.044 0.252 2.112 1.332 2.112Z "/></symbol><symbol id="g289ED535C508AEA31A604F0DADFA8DC1" overflow="visible"><path d="M 0 0m 2.172 1.464v 2.388c 0 0.6 0.048 1.368 0.048 1.368c 0 0.048 -0.06 0.084 -0.156 0.084c -0.336 -0.132 -0.816 -0.24 -1.644 -0.348c -0.024 -0.072 0 -0.264 0.024 -0.336c 0.66 -0.06 0.78 -0.132 0.78 -0.816v -2.34c 0 -0.996 -0.132 -1.032 -0.864 -1.092c -0.072 -0.072 -0.072 -0.324 0 -0.396c 0.396 0.012 0.864 0.024 1.344 0.024c 0.48 0 0.936 -0.012 1.332 -0.024c 0.072 0.072 0.072 0.324 0 0.396c -0.732 0.048 -0.864 0.096 -0.864 1.092Z m -1.092 5.724c 0 -0.312 0.288 -0.624 0.576 -0.624c 0.336 0 0.624 0.324 0.624 0.576c 0 0.288 -0.252 0.624 -0.576 0.624c -0.288 0 -0.624 -0.288 -0.624 -0.576Z "/></symbol><symbol id="gA9D8AA38C81E5F63D053CA30FE947007" overflow="visible"><path d="M 0 0m 4.008 0.6c 0.06 0.048 0.168 0.072 0.18 -0.012c 0.036 -0.288 0.132 -0.708 0.132 -0.708c 0.096 -0.036 0.156 -0.024 0.228 0c 0.264 0.216 0.684 0.396 1.416 0.48c 0.072 0.072 0.072 0.252 0 0.324c -0.768 0.06 -0.876 0.288 -0.876 0.876v 5.436c 0 0.78 0.048 1.26 0.048 1.26c 0 0.084 -0.048 0.12 -0.156 0.12c -0.3 -0.12 -1.2 -0.288 -1.68 -0.324c -0.024 -0.096 0 -0.288 0.072 -0.36c 0.036 0 0.072 0 0.108 0c 0.528 -0.036 0.66 -0.036 0.66 -0.984v -1.536c 0 -0.084 -0.024 -0.108 -0.108 -0.108c -0.048 0 -0.54 0.204 -0.936 0.204c -0.792 0 -1.32 -0.264 -1.8 -0.72c -0.516 -0.516 -0.828 -1.224 -0.828 -2.112c 0 -1.476 0.744 -2.556 2.04 -2.556c 0.468 0 0.912 0.24 1.5 0.72Z m 0.132 0.888c 0 -0.228 -0.024 -0.324 -0.192 -0.468c -0.444 -0.384 -0.828 -0.576 -1.128 -0.576c -0.648 0 -1.32 0.708 -1.32 2.208c 0 0.864 0.168 1.344 0.348 1.596c 0.372 0.564 0.876 0.6 1.116 0.6c 0.432 0 0.732 -0.156 0.972 -0.432c 0.168 -0.192 0.204 -0.276 0.204 -0.648Z "/></symbol><symbol id="gC718F7B3FEBDE5FBB71AFCF9D705B32C" overflow="visible"><path d="M 0 0m 0.528 3.024c 0 -0.54 0.048 -3.312 2.544 -5.472c 0.12 0.024 0.216 0.108 0.252 0.204c -0.396 0.456 -1.8 2.112 -1.8 5.268c 0 3.156 1.416 4.812 1.8 5.244c -0.036 0.12 -0.12 0.204 -0.252 0.216c -1.428 -1.224 -2.544 -3.228 -2.544 -5.46Z "/></symbol><symbol id="gD2D6418B9074FCF2C80BD3C34EA5A6FC" overflow="visible"><path d="M 0 0m 3.048 3.024c 0 0.54 -0.048 3.312 -2.544 5.472c -0.12 -0.024 -0.216 -0.108 -0.252 -0.204c 0.396 -0.456 1.8 -2.112 1.8 -5.268c 0 -3.156 -1.416 -4.812 -1.8 -5.244c 0.036 -0.12 0.12 -0.204 0.252 -0.216c 1.428 1.224 2.544 3.228 2.544 5.46Z "/></symbol></defs></svg>