<svg viewBox="0 0 1187.056 72.216" width="1187.056pt" height="72.216pt" xmlns="http://www.w3.org/2000/svg" xmlns:xlink="http://www.w3.org/1999/xlink" xmlns:h5="http://www.w3.org/1999/xhtml"><g transform="matrix(1 0 0 -1 20 23.32)"><use xlink:href="#g61EA393B90741C3EDE06DC292B33906" x="0" y="0" fill="#e0e0e0" fill-rule="nonzero"/><use xlink:href="#g2B9A6BE5C96A44EC5B91CAD3E000148E" x="5.2" y="0" fill="#e0e0e0" fill-rule="nonzero"/><use xlink:href="#g3421F383F5463C054AA2595D6837E6A5" x="10.352" y="0" fill="#e0e0e0" fill-rule="nonzero"/><use xlink:href="#g2B9A6BE5C96A44EC5B91CAD3E000148E" x="19.328" y="0" fill="#e0e0e0" fill-rule="nonzero"/><use xlink:href="#g461A94E8E5A1E9889ED891CA38E20E98" x="24.48" y="0" fill="#e0e0e0" fill-rule="nonzero"/><use xlink:href="#g126782A56BC0402254F11EA8BA2F12E3" x="34.336" y="0" fill="#e0e0e0" fill-rule="nonzero"/><use xlink:href="#g2B9A6BE5C96A44EC5B91CAD3E000148E" x="43.152" y="0" fill="#e0e0e0" fill-rule="nonzero"/><use xlink:href="#g3421F383F5463C054AA2595D6837E6A5" x="48.304" y="0" fill="#e0e0e0" fill-rule="nonzero"/></g><g transform="matrix(1 0 0 -1 20 41.32)"><use xlink:href="#gC78D2E7D9EA87BC1AFBD842563F2A3D9" x="0" y="0" fill="#e0e0e0" fill-rule="nonzero"/><use xlink:href="#g744926B2392A1FD015E7E66AFAD5FEF" x="8" y="0" fill="#e0e0e0" fill-rule="nonzero"/><use xlink:href="#g61D8EC4F8C3F73283F1E8A8BB7A6372D" x="16" y="0" fill="#e0e0e0" fill-rule="nonzero"/><use xlink:href="#g38C4A629BD10FDE6DFB054A96D51AEC4" x="29.312" y="0" fill="#e0e0e0" fill-rule="nonzero"/><use xlink:href="#g6B2BD8417A153D7B2322B2C53F78B77D" x="33.76" y="0" fill="#e0e0e0" fill-rule="nonzero"/><use xlink:href="#gDB5A245C5132F56829007895C751A9B9" x="40.064" y="0" fill="#e0e0e0" fill-rule="nonzero"/><use xlink:href="#g2D6E657268474CEE13627634B0892604" x="44.512" y="0" fill="#e0e0e0" fill-rule="nonzero"/><use xlink:href="#gFE76948C2BAC56DB366E75C5D3E395C9" x="53.408" y="0" fill="#e0e0e0" fill-rule="nonzero"/><use xlink:href="#g61D8EC4F8C3F73283F1E8A8BB7A6372D" x="59.632" y="0" fill="#e0e0e0" fill-rule="nonzero"/><use xlink:href="#g7F1CDFC9C50812C85F36807E567EABDF" x="67.632" y="0" fill="#e0e0e0" fill-rule="nonzero"/><use xlink:href="#gA3525D446D3D83A5B7E735BB6646CDBD" x="76.08" y="0" fill="#e0e0e0" fill-rule="nonzero"/><use xlink:href="#g4A60CE28263A0313E2F1F2501A07CE8B" x="84.528" y="0" fill="#e0e0e0" fill-rule="nonzero"/><use xlink:href="#g6962E09401F6289A28317FAA8E7FC9C1" x="96.064" y="0" fill="#e0e0e0" fill-rule="nonzero"/><use xlink:href="#gB655B06F60CB612733AD7B4C8BAD552D" x="103.168" y="0" fill="#e0e0e0" fill-rule="nonzero"/><use xlink:href="#g6B2BD8417A153D7B2322B2C53F78B77D" x="111.168" y="0" fill="#e0e0e0" fill-rule="nonzero"/><use xlink:href="#gFE76948C2BAC56DB366E75C5D3E395C9" x="117.472" y="0" fill="#e0e0e0" fill-rule="nonzero"/><use xlink:href="#g7F1CDFC9C50812C85F36807E567EABDF" x="123.696" y="0" fill="#e0e0e0" fill-rule="nonzero"/><use xlink:href="#g64AA6D97DC384EDB5F6925C9B5CF4089" x="132.144" y="0" fill="#e0e0e0" fill-rule="nonzero"/><use xlink:href="#g4A60CE28263A0313E2F1F2501A07CE8B" x="140.592" y="0" fill="#e0e0e0" fill-rule="nonzero"/><use xlink:href="#g6B2BD8417A153D7B2322B2C53F78B77D" x="152.128" y="0" fill="#e0e0e0" fill-rule="nonzero"/><use xlink:href="#gDB5A245C5132F56829007895C751A9B9" x="158.432" y="0" fill="#e0e0e0" fill-rule="nonzero"/><use xlink:href="#g2D6E657268474CEE13627634B0892604" x="162.88" y="0" fill="#e0e0e0" fill-rule="nonzero"/><use xlink:href="#gFE76948C2BAC56DB366E75C5D3E395C9" x="171.776" y="0" fill="#e0e0e0" fill-rule="nonzero"/><use xlink:href="#g7F1CDFC9C50812C85F36807E567EABDF" x="178" y="0" fill="#e0e0e0" fill-rule="nonzero"/><use xlink:href="#gDBFAE06AF79FDD9C3E51928051970166" x="186.448" y="0" fill="#e0e0e0" fill-rule="nonzero"/><use xlink:href="#g4A60CE28263A0313E2F1F2501A07CE8B" x="193.552" y="0" fill="#e0e0e0" fill-rule="nonzero"/><use xlink:href="#gD1F745F93AA9122F5DF54DDA8243F5F3" x="205.088" y="0" fill="#e0e0e0" fill-rule="nonzero"/><use xlink:href="#g6B2BD8417A153D7B2322B2C53F78B77D" x="222.848" y="0" fill="#e0e0e0" fill-rule="nonzero"/><use xlink:href="#gDB5A245C5132F56829007895C751A9B9" x="229.152" y="0" fill="#e0e0e0" fill-rule="nonzero"/><use xlink:href="#g2D6E657268474CEE13627634B0892604" x="233.6" y="0" fill="#e0e0e0" fill-rule="nonzero"/><use xlink:href="#gFE76948C2BAC56DB366E75C5D3E395C9" x="242.496" y="0" fill="#e0e0e0" fill-rule="nonzero"/><use xlink:href="#g61D8EC4F8C3F73283F1E8A8BB7A6372D" x="248.72" y="0" fill="#e0e0e0" fill-rule="nonzero"/><use xlink:href="#g7F1CDFC9C50812C85F36807E567EABDF" x="256.72" y="0" fill="#e0e0e0" fill-rule="nonzero"/><use xlink:href="#g64AA6D97DC384EDB5F6925C9B5CF4089" x="265.168" y="0" fill="#e0e0e0" fill-rule="nonzero"/><use xlink:href="#g4A60CE28263A0313E2F1F2501A07CE8B" x="273.616" y="0" fill="#e0e0e0" fill-rule="nonzero"/><use xlink:href="#g6962E09401F6289A28317FAA8E7FC9C1" x="285.152" y="0" fill="#e0e0e0" fill-rule="nonzero"/><use xlink:href="#gB655B06F60CB612733AD7B4C8BAD552D" x="292.256" y="0" fill="#e0e0e0" fill-rule="nonzero"/><use xlink:href="#g6B2BD8417A153D7B2322B2C53F78B77D" x="300.256" y="0" fill="#e0e0e0" fill-rule="nonzero"/><use xlink:href="#gFE76948C2BAC56DB366E75C5D3E395C9" x="306.56" y="0" fill="#e0e0e0" fill-rule="nonzero"/><use xlink:href="#g7F1CDFC9C50812C85F36807E567EABDF" x="312.784" y="0" fill="#e0e0e0" fill-rule="nonzero"/><use xlink:href="#gDBFAE06AF79FDD9C3E51928051970166" x="321.232" y="0" fill="#e0e0e0" fill-rule="nonzero"/><use xlink:href="#g4A60CE28263A0313E2F1F2501A07CE8B" x="328.336" y="0" fill="#e0e0e0" fill-rule="nonzero"/><use xlink:href="#g6B2BD8417A153D7B2322B2C53F78B77D" x="339.872" y="0" fill="#e0e0e0" fill-rule="nonzero"/><use xlink:href="#gDB5A245C5132F56829007895C751A9B9" x="346.176" y="0" fill="#e0e0e0" fill-rule="nonzero"/><use xlink:href="#g2D6E657268474CEE13627634B0892604" x="350.624" y="0" fill="#e0e0e0" fill-rule="nonzero"/><use xlink:href="#gFE76948C2BAC56DB366E75C5D3E395C9" x="359.52" y="0" fill="#e0e0e0" fill-rule="nonzero"/><use xlink:href="#g7F1CDFC9C50812C85F36807E567EABDF" x="365.744" y="0" fill="#e0e0e0" fill-rule="nonzero"/><use xlink:href="#gA3525D446D3D83A5B7E735BB6646CDBD" x="374.192" y="0" fill="#e0e0e0" fill-rule="nonzero"/><use xlink:href="#g4A60CE28263A0313E2F1F2501A07CE8B" x="382.64" y="0" fill="#e0e0e0" fill-rule="nonzero"/><use xlink:href="#gD1F745F93AA9122F5DF54DDA8243F5F3" x="394.176" y="0" fill="#e0e0e0" fill-rule="nonzero"/><use xlink:href="#g6B2BD8417A153D7B2322B2C53F78B77D" x="411.936" y="0" fill="#e0e0e0" fill-rule="nonzero"/><use xlink:href="#gDB5A245C5132F56829007895C751A9B9" x="418.24" y="0" fill="#e0e0e0" fill-rule="nonzero"/><use xlink:href="#g2D6E657268474CEE13627634B0892604" x="422.688" y="0" fill="#e0e0e0" fill-rule="nonzero"/><use xlink:href="#gFE76948C2BAC56DB366E75C5D3E395C9" x="431.584" y="0" fill="#e0e0e0" fill-rule="nonzero"/><use xlink:href="#g61D8EC4F8C3F73283F1E8A8BB7A6372D" x="437.808" y="0" fill="#e0e0e0" fill-rule="nonzero"/><use xlink:href="#g7F1CDFC9C50812C85F36807E567EABDF" x="445.808" y="0" fill="#e0e0e0" fill-rule="nonzero"/><use xlink:href="#gDBFAE06AF79FDD9C3E51928051970166" x="454.256" y="0" fill="#e0e0e0" fill-rule="nonzero"/><use xlink:href="#g4A60CE28263A0313E2F1F2501A07CE8B" x="461.36" y="0" fill="#e0e0e0" fill-rule="nonzero"/><use xlink:href="#g6962E09401F6289A28317FAA8E7FC9C1" x="472.896" y="0" fill="#e0e0e0" fill-rule="nonzero"/><use xlink:href="#gB655B06F60CB612733AD7B4C8BAD552D" x="480" y="0" fill="#e0e0e0" fill-rule="nonzero"/><use xlink:href="#g6B2BD8417A153D7B2322B2C53F78B77D" x="488" y="0" fill="#e0e0e0" fill-rule="nonzero"/><use xlink:href="#gFE76948C2BAC56DB366E75C5D3E395C9" x="494.304" y="0" fill="#e0e0e0" fill-rule="nonzero"/><use xlink:href="#g7F1CDFC9C50812C85F36807E567EABDF" x="500.528" y="0" fill="#e0e0e0" fill-rule="nonzero"/><use xlink:href="#gA3525D446D3D83A5B7E735BB6646CDBD" x="508.976" y="0" fill="#e0e0e0" fill-rule="nonzero"/><use xlink:href="#g4A60CE28263A0313E2F1F2501A07CE8B" x="517.424" y="0" fill="#e0e0e0" fill-rule="nonzero"/><use xlink:href="#g6B2BD8417A153D7B2322B2C53F78B77D" x="528.96" y="0" fill="#e0e0e0" fill-rule="nonzero"/><use xlink:href="#gDB5A245C5132F56829007895C751A9B9" x="535.264" y="0" fill="#e0e0e0" fill-rule="nonzero"/><use xlink:href="#g2D6E657268474CEE13627634B0892604" x="539.712" y="0" fill="#e0e0e0" fill-rule="nonzero"/><use xlink:href="#gFE76948C2BAC56DB366E75C5D3E395C9" x="548.608" y="0" fill="#e0e0e0" fill-rule="nonzero"/><use xlink:href="#g7F1CDFC9C50812C85F36807E567EABDF" x="554.832" y="0" fill="#e0e0e0" fill-rule="nonzero"/><use xlink:href="#g64AA6D97DC384EDB5F6925C9B5CF4089" x="563.28" y="0" fill="#e0e0e0" fill-rule="nonzero"/><use xlink:href="#g4A60CE28263A0313E2F1F2501A07CE8B" x="571.728" y="0" fill="#e0e0e0" fill-rule="nonzero"/><use xlink:href="#gC0832B6C2AF3D05AA2320B6E93F37B72" x="577.952" y="0" fill="#e0e0e0" fill-rule="nonzero"/><use xlink:href="#gE3198AC751C1E446B3B88AA1B1278476" x="587.712" y="0" fill="#e0e0e0" fill-rule="nonzero"/><use xlink:href="#gC78D2E7D9EA87BC1AFBD842563F2A3D9" x="598.352" y="0" fill="#e0e0e0" fill-rule="nonzero"/><use xlink:href="#g744926B2392A1FD015E7E66AFAD5FEF" x="606.352" y="0" fill="#e0e0e0" fill-rule="nonzero"/><use xlink:href="#g61D8EC4F8C3F73283F1E8A8BB7A6372D" x="614.352" y="0" fill="#e0e0e0" fill-rule="nonzero"/><use xlink:href="#g38C4A629BD10FDE6DFB054A96D51AEC4" x="627.664" y="0" fill="#e0e0e0" fill-rule="nonzero"/><use xlink:href="#g6962E09401F6289A28317FAA8E7FC9C1" x="632.112" y="0" fill="#e0e0e0" fill-rule="nonzero"/><use xlink:href="#gB655B06F60CB612733AD7B4C8BAD552D" x="639.216" y="0" fill="#e0e0e0" fill-rule="nonzero"/><use xlink:href="#g6B2BD8417A153D7B2322B2C53F78B77D" x="647.216" y="0" fill="#e0e0e0" fill-rule="nonzero"/><use xlink:href="#gFE76948C2BAC56DB366E75C5D3E395C9" x="653.52" y="0" fill="#e0e0e0" fill-rule="nonzero"/><use xlink:href="#g61D8EC4F8C3F73283F1E8A8BB7A6372D" x="659.744" y="0" fill="#e0e0e0" fill-rule="nonzero"/><use xlink:href="#g7F1CDFC9C50812C85F36807E567EABDF" x="667.744" y="0" fill="#e0e0e0" fill-rule="nonzero"/><use xlink:href="#gA3525D446D3D83A5B7E735BB6646CDBD" x="676.192" y="0" fill="#e0e0e0" fill-rule="nonzero"/><use xlink:href="#g4A60CE28263A0313E2F1F2501A07CE8B" x="684.64" y="0" fill="#e0e0e0" fill-rule="nonzero"/><use xlink:href="#g6962E09401F6289A28317FAA8E7FC9C1" x="696.176" y="0" fill="#e0e0e0" fill-rule="nonzero"/><use xlink:href="#gB655B06F60CB612733AD7B4C8BAD552D" x="703.28" y="0" fill="#e0e0e0" fill-rule="nonzero"/><use xlink:href="#g6B2BD8417A153D7B2322B2C53F78B77D" x="711.28" y="0" fill="#e0e0e0" fill-rule="nonzero"/><use xlink:href="#gFE76948C2BAC56DB366E75C5D3E395C9" x="717.584" y="0" fill="#e0e0e0" fill-rule="nonzero"/><use xlink:href="#g61D8EC4F8C3F73283F1E8A8BB7A6372D" x="723.808" y="0" fill="#e0e0e0" fill-rule="nonzero"/><use xlink:href="#g7F1CDFC9C50812C85F36807E567EABDF" x="731.808" y="0" fill="#e0e0e0" fill-rule="nonzero"/><use xlink:href="#g64AA6D97DC384EDB5F6925C9B5CF4089" x="740.256" y="0" fill="#e0e0e0" fill-rule="nonzero"/><use xlink:href="#g4A60CE28263A0313E2F1F2501A07CE8B" x="748.704" y="0" fill="#e0e0e0" fill-rule="nonzero"/><use xlink:href="#gD1F745F93AA9122F5DF54DDA8243F5F3" x="760.24" y="0" fill="#e0e0e0" fill-rule="nonzero"/><use xlink:href="#g6962E09401F6289A28317FAA8E7FC9C1" x="778" y="0" fill="#e0e0e0" fill-rule="nonzero"/><use xlink:href="#gB655B06F60CB612733AD7B4C8BAD552D" x="785.104" y="0" fill="#e0e0e0" fill-rule="nonzero"/><use xlink:href="#g6B2BD8417A153D7B2322B2C53F78B77D" x="793.104" y="0" fill="#e0e0e0" fill-rule="nonzero"/><use xlink:href="#gFE76948C2BAC56DB366E75C5D3E395C9" x="799.408" y="0" fill="#e0e0e0" fill-rule="nonzero"/><use xlink:href="#g61D8EC4F8C3F73283F1E8A8BB7A6372D" x="805.632" y="0" fill="#e0e0e0" fill-rule="nonzero"/><use xlink:href="#g7F1CDFC9C50812C85F36807E567EABDF" x="813.632" y="0" fill="#e0e0e0" fill-rule="nonzero"/><use xlink:href="#g64AA6D97DC384EDB5F6925C9B5CF4089" x="822.08" y="0" fill="#e0e0e0" fill-rule="nonzero"/><use xlink:href="#g4A60CE28263A0313E2F1F2501A07CE8B" x="830.528" y="0" fill="#e0e0e0" fill-rule="nonzero"/><use xlink:href="#g6962E09401F6289A28317FAA8E7FC9C1" x="842.064" y="0" fill="#e0e0e0" fill-rule="nonzero"/><use xlink:href="#gB655B06F60CB612733AD7B4C8BAD552D" x="849.168" y="0" fill="#e0e0e0" fill-rule="nonzero"/><use xlink:href="#g6B2BD8417A153D7B2322B2C53F78B77D" x="857.168" y="0" fill="#e0e0e0" fill-rule="nonzero"/><use xlink:href="#gFE76948C2BAC56DB366E75C5D3E395C9" x="863.472" y="0" fill="#e0e0e0" fill-rule="nonzero"/><use xlink:href="#g61D8EC4F8C3F73283F1E8A8BB7A6372D" x="869.696" y="0" fill="#e0e0e0" fill-rule="nonzero"/><use xlink:href="#g7F1CDFC9C50812C85F36807E567EABDF" x="877.696" y="0" fill="#e0e0e0" fill-rule="nonzero"/><use xlink:href="#gDBFAE06AF79FDD9C3E51928051970166" x="886.144" y="0" fill="#e0e0e0" fill-rule="nonzero"/><use xlink:href="#g4A60CE28263A0313E2F1F2501A07CE8B" x="893.248" y="0" fill="#e0e0e0" fill-rule="nonzero"/><use xlink:href="#gD1F745F93AA9122F5DF54DDA8243F5F3" x="904.784" y="0" fill="#e0e0e0" fill-rule="nonzero"/><use xlink:href="#g6962E09401F6289A28317FAA8E7FC9C1" x="922.544" y="0" fill="#e0e0e0" fill-rule="nonzero"/><use xlink:href="#gB655B06F60CB612733AD7B4C8BAD552D" x="929.648" y="0" fill="#e0e0e0" fill-rule="nonzero"/><use xlink:href="#g6B2BD8417A153D7B2322B2C53F78B77D" x="937.648" y="0" fill="#e0e0e0" fill-rule="nonzero"/><use xlink:href="#gFE76948C2BAC56DB366E75C5D3E395C9" x="943.952" y="0" fill="#e0e0e0" fill-rule="nonzero"/><use xlink:href="#g61D8EC4F8C3F73283F1E8A8BB7A6372D" x="950.176" y="0" fill="#e0e0e0" fill-rule="nonzero"/><use xlink:href="#g7F1CDFC9C50812C85F36807E567EABDF" x="958.176" y="0" fill="#e0e0e0" fill-rule="nonzero"/><use xlink:href="#gDBFAE06AF79FDD9C3E51928051970166" x="966.624" y="0" fill="#e0e0e0" fill-rule="nonzero"/><use xlink:href="#g4A60CE28263A0313E2F1F2501A07CE8B" x="973.728" y="0" fill="#e0e0e0" fill-rule="nonzero"/><use xlink:href="#g6962E09401F6289A28317FAA8E7FC9C1" x="985.264" y="0" fill="#e0e0e0" fill-rule="nonzero"/><use xlink:href="#gB655B06F60CB612733AD7B4C8BAD552D" x="992.368" y="0" fill="#e0e0e0" fill-rule="nonzero"/><use xlink:href="#g6B2BD8417A153D7B2322B2C53F78B77D" x="1000.368" y="0" fill="#e0e0e0" fill-rule="nonzero"/><use xlink:href="#gFE76948C2BAC56DB366E75C5D3E395C9" x="1006.672" y="0" fill="#e0e0e0" fill-rule="nonzero"/><use xlink:href="#g61D8EC4F8C3F73283F1E8A8BB7A6372D" x="1012.896" y="0" fill="#e0e0e0" fill-rule="nonzero"/><use xlink:href="#g7F1CDFC9C50812C85F36807E567EABDF" x="1020.896" y="0" fill="#e0e0e0" fill-rule="nonzero"/><use xlink:href="#gA3525D446D3D83A5B7E735BB6646CDBD" x="1029.344" y="0" fill="#e0e0e0" fill-rule="nonzero"/><use xlink:href="#g4A60CE28263A0313E2F1F2501A07CE8B" x="1037.792" y="0" fill="#e0e0e0" fill-rule="nonzero"/><use xlink:href="#gC0832B6C2AF3D05AA2320B6E93F37B72" x="1044.016" y="0" fill="#e0e0e0" fill-rule="nonzero"/><use xlink:href="#gD1F745F93AA9122F5DF54DDA8243F5F3" x="1053.776" y="0" fill="#e0e0e0" fill-rule="nonzero"/><use xlink:href="#gEEA27574DB27C08E1CA07C210D64160F" x="1071.536" y="0" fill="#e0e0e0" fill-rule="nonzero"/><use xlink:href="#g9C01E32E134F132C8AC5A7719EE77841" x="1079.536" y="0" fill="#e0e0e0" fill-rule="nonzero"/><use xlink:href="#gC78D2E7D9EA87BC1AFBD842563F2A3D9" x="1083.984" y="0" fill="#e0e0e0" fill-rule="nonzero"/><use xlink:href="#g73C3368B6AFB192C266BD482D9C9B36" x="1091.984" y="0" fill="#e0e0e0" fill-rule="nonzero"/><use xlink:href="#gF0099E97FCE47D86CFFAA01886DF78DA" x="1105.296" y="0" fill="#e0e0e0" fill-rule="nonzero"/><use xlink:href="#gEEA27574DB27C08E1CA07C210D64160F" x="1123.056" y="0" fill="#e0e0e0" fill-rule="nonzero"/></g><g transform="matrix(1 0 0 -1 20 59.216)"><use xlink:href="#g24A3A5C51680CE47A828CF005627D2FA" x="0" y="0" fill="#999999" fill-rule="nonzero"/><use xlink:href="#g289ED535C508AEA31A604F0DADFA8DC1" x="6.336" y="0" fill="#999999" fill-rule="nonzero"/><use xlink:href="#gA9D8AA38C81E5F63D053CA30FE947007" x="9.588" y="0" fill="#999999" fill-rule="nonzero"/><use xlink:href="#g289ED535C508AEA31A604F0DADFA8DC1" x="15.66" y="0" fill="#999999" fill-rule="nonzero"/><use xlink:href="#g2F2DE93C75BB70AB44F4889228F287DB" x="18.912" y="0" fill="#999999" fill-rule="nonzero"/><use xlink:href="#gDEDC019FF1F409029582831C73222AA3" x="25.416" y="0" fill="#999999" fill-rule="nonzero"/><use xlink:href="#g289ED535C508AEA31A604F0DADFA8DC1" x="31.464" y="0" fill="#999999" fill-rule="nonzero"/><use xlink:href="#gA9D8AA38C81E5F63D053CA30FE947007" x="34.716" y="0" fill="#999999" fill-rule="nonzero"/></g><defs><symbol id="g61EA393B90741C3EDE06DC292B33906" overflow="visible"><path d="M 0 0m 1.6 2.032c 0 -1.328 -0.256 -1.472 -1.232 -1.52c -0.096 -0.096 -0.096 -0.448 0 -0.544c 0.672 0.016 1.392 0.032 2.272 0.032c 0.88 0 1.584 -0.016 2.272 -0.032c 0.096 0.096 0.096 0.448 0 0.544c -0.976 0.048 -1.232 0.192 -1.232 1.52v 7.296c 0 1.04 0.048 1.632 0.048 1.632c 0 0.144 -0.112 0.208 -0.256 0.208c -0.592 -0.192 -1.872 -0.368 -3.008 -0.416c -0.048 -0.192 -0.032 -0.368 0.048 -0.512c 1.008 -0.08 1.088 -0.096 1.088 -1.2Z "/></symbol><symbol id="g2B9A6BE5C96A44EC5B91CAD3E000148E" overflow="visible"><path d="M 0 0m 3.712 1.952v 3.184c 0 0.8 0.064 1.696 0.064 1.696c 0 0.176 -0.144 0.272 -0.368 0.272c -0.448 -0.176 -1.744 -0.304 -2.848 -0.448c -0.032 -0.096 0 -0.416 0.032 -0.512c 0.88 -0.08 1.04 -0.208 1.04 -1.12v -3.072c 0 -1.328 -0.176 -1.36 -1.152 -1.44c -0.096 -0.096 -0.096 -0.448 0 -0.544c 0.672 0.016 1.344 0.032 2.192 0.032c 0.848 0 1.504 -0.016 2.192 -0.032c 0.096 0.096 0.096 0.448 0 0.544c -0.976 0.064 -1.152 0.112 -1.152 1.44Z m -2.16 7.584c 0 -0.528 0.384 -1.056 1.024 -1.056c 0.72 0 1.136 0.576 1.136 0.992c 0 0.48 -0.368 1.056 -1.04 1.056c -0.752 0 -1.12 -0.512 -1.12 -0.992Z "/></symbol><symbol id="g3421F383F5463C054AA2595D6837E6A5" overflow="visible"><path d="M 0 0m 5.68 0.768c 0.032 -0.384 0.064 -0.656 0.064 -0.656c 0.016 -0.192 0.144 -0.272 0.368 -0.272c 0.592 0.16 1.552 0.384 2.656 0.528c 0.032 0.096 0 0.416 -0.032 0.512c -0.864 0.08 -1.04 0.336 -1.04 1.248v 7.2c 0 1.04 0.048 1.632 0.048 1.632c 0 0.144 -0.112 0.208 -0.256 0.208c -0.592 -0.192 -1.872 -0.368 -3.008 -0.416c -0.048 -0.192 -0.032 -0.4 0.048 -0.544c 1.008 -0.08 1.088 -0.096 1.088 -1.2v -2.08c -0.304 0.096 -0.688 0.176 -1.152 0.176c -2.064 0 -3.872 -1.808 -3.872 -3.936c 0 -0.944 0.336 -2.048 1.12 -2.656c 0.576 -0.448 0.976 -0.672 1.872 -0.672c 0.432 0 1.616 0.704 1.952 0.928Z m -0.048 0.752c -0.336 -0.272 -1.184 -0.624 -1.376 -0.624c -0.8 0 -1.424 0.896 -1.424 2.768c 0 0.848 0.096 1.584 0.4 2.08c 0.272 0.432 0.704 0.688 1.184 0.688c 0.416 0 0.816 -0.048 1.2 -0.576v -3.936c 0 -0.128 0 -0.272 0.016 -0.4Z "/></symbol><symbol id="g461A94E8E5A1E9889ED891CA38E20E98" overflow="visible"><path d="M 0 0m 3.648 1.952v 3.216c 0.64 0.432 1.28 0.752 1.568 0.752c 0.64 0 1.12 -0.288 1.12 -1.2v -2.672c 0 -1.344 -0.256 -1.488 -0.912 -1.536c -0.096 -0.096 -0.096 -0.448 0 -0.544c 0.672 0.016 1.184 0.032 1.952 0.032c 0.88 0 1.584 -0.016 2.272 -0.032c 0.096 0.096 0.096 0.448 0 0.544c -0.976 0.048 -1.232 0.192 -1.232 1.536v 2.496c 0 1.76 -0.752 2.56 -2.128 2.56c -0.64 0 -1.776 -0.704 -2.656 -1.312c -0.048 0.56 -0.112 1.04 -0.112 1.04c -0.016 0.192 -0.144 0.272 -0.368 0.272c -0.592 -0.16 -1.552 -0.384 -2.656 -0.528c -0.032 -0.096 0 -0.416 0.032 -0.512c 0.88 -0.08 1.04 -0.208 1.04 -1.12v -2.992c 0 -1.328 -0.176 -1.36 -1.152 -1.44c -0.096 -0.096 -0.096 -0.448 0 -0.544c 0.672 0.016 1.344 0.032 2.192 0.032c 0.736 0 1.184 -0.016 1.872 -0.032c 0.096 0.096 0.096 0.448 0 0.544c -0.672 0.064 -0.832 0.112 -0.832 1.44Z "/></symbol><symbol id="g126782A56BC0402254F11EA8BA2F12E3" overflow="visible"><path d="M 0 0m 0.592 3.312c 0 -2.096 1.664 -3.472 3.808 -3.472c 1.136 0 2.08 0.32 2.736 0.912c 0.816 0.72 1.088 1.808 1.088 2.704c 0 2.096 -1.424 3.648 -3.808 3.648c -1.328 0 -2.32 -0.464 -2.944 -1.184c -0.608 -0.704 -0.88 -1.664 -0.88 -2.608Z m 3.568 3.12c 1.088 0 1.824 -1.296 1.824 -3.488c 0 -1.92 -0.752 -2.432 -1.328 -2.432c -1.312 0 -1.824 1.968 -1.824 3.152c 0 1.472 0.256 2.768 1.328 2.768Z "/></symbol><symbol id="gC78D2E7D9EA87BC1AFBD842563F2A3D9" overflow="visible"><path d="M 0 0m 4.304 10.656c -0.656 -0.672 -1.616 -1.008 -2.88 -1.008v -0.624c 0.832 0 1.52 0.128 2.048 0.384v -8.096c 0 -0.288 -0.064 -0.48 -0.208 -0.56c -0.144 -0.08 -0.544 -0.128 -1.184 -0.128h -0.56v -0.624c 0.4 0.032 1.264 0.048 2.592 0.048c 1.328 0 2.192 -0.016 2.592 -0.048v 0.624h -0.56c -0.656 0 -1.056 0.048 -1.184 0.128c -0.128 0.08 -0.208 0.272 -0.208 0.56v 8.864c 0 0.384 -0.032 0.48 -0.448 0.48Z "/></symbol><symbol id="g744926B2392A1FD015E7E66AFAD5FEF" overflow="visible"><path d="M 0 0m 7.104 11.488c 0.016 0.032 0.016 0.08 0.016 0.128c 0 0.256 -0.128 0.384 -0.384 0.384c -0.176 0 -0.288 -0.08 -0.352 -0.256l -5.472 -15.232c -0.016 -0.032 -0.016 -0.08 -0.016 -0.128c 0 -0.256 0.128 -0.384 0.384 -0.384c 0.176 0 0.288 0.08 0.352 0.256Z "/></symbol><symbol id="g61D8EC4F8C3F73283F1E8A8BB7A6372D" overflow="visible"><path d="M 0 0m 3.792 10.656c -0.816 0 -1.504 -0.288 -2.096 -0.864c -0.592 -0.576 -0.896 -1.248 -0.896 -2.064c 0 -0.544 0.4 -0.944 0.896 -0.944c 0.48 0 0.88 0.416 0.88 0.896c 0 0.528 -0.384 0.896 -0.896 0.896c -0.048 0 -0.08 0 -0.112 -0.016c 0.304 0.784 1.008 1.472 2.016 1.472c 1.312 0 2.048 -1.136 2.048 -2.512c 0 -1.072 -0.544 -2.224 -1.632 -3.44l -3.008 -3.392c -0.208 -0.24 -0.192 -0.224 -0.192 -0.688h 5.936l 0.464 2.88h -0.528c -0.128 -0.816 -0.24 -1.28 -0.336 -1.424c -0.08 -0.08 -0.56 -0.112 -1.44 -0.112h -2.672l 1.552 1.52c 1.088 1.024 2.464 2.128 2.928 2.976c 0.32 0.56 0.48 1.12 0.48 1.68c 0 1.888 -1.472 3.136 -3.392 3.136Z "/></symbol><symbol id="g38C4A629BD10FDE6DFB054A96D51AEC4" overflow="visible"><path d="M 0 0m 3.728 -3.232h -1.184v 14.464h 1.184c 0.24 0 0.368 0.128 0.368 0.384c 0 0.256 -0.128 0.384 -0.368 0.384h -1.904v -16h 1.904c 0.24 0 0.368 0.128 0.368 0.384c 0 0.192 -0.176 0.384 -0.368 0.384Z "/></symbol><symbol id="g6B2BD8417A153D7B2322B2C53F78B77D" overflow="visible"><path d="M 0 0m 5.76 2.08c 0 1.216 -0.832 1.984 -2.48 2.304c -0.752 0.144 -1.232 0.32 -1.488 0.496c -0.256 0.176 -0.384 0.432 -0.384 0.736c 0 0.752 0.56 1.12 1.68 1.12c 1.088 0 1.68 -0.608 1.76 -1.84c 0.016 -0.128 0.096 -0.192 0.256 -0.192c 0.176 0 0.272 0.144 0.272 0.432v 1.584c 0 0.304 -0.08 0.448 -0.24 0.448c -0.176 0 -0.416 -0.288 -0.576 -0.416c -0.4 0.272 -0.896 0.416 -1.472 0.416c -1.424 0 -2.56 -0.64 -2.56 -2c 0 -0.544 0.224 -1.008 0.688 -1.376c 0.56 -0.464 1.088 -0.56 2.096 -0.736c 1.04 -0.208 1.568 -0.672 1.568 -1.392c 0 -0.912 -0.56 -1.376 -1.696 -1.376c -1.104 0 -1.808 0.736 -2.112 2.192c -0.048 0.208 -0.128 0.32 -0.272 0.32c -0.176 0 -0.272 -0.16 -0.272 -0.464v -2.064c 0 -0.304 0.08 -0.448 0.24 -0.448c 0.048 0 0.128 0.048 0.256 0.16c 0.288 0.256 0.16 0.208 0.448 0.496c 0.464 -0.432 1.04 -0.656 1.712 -0.656c 1.52 0 2.576 0.784 2.576 2.256Z "/></symbol><symbol id="gDB5A245C5132F56829007895C751A9B9" overflow="visible"><path d="M 0 0m 3.104 9.616c 0 0.48 -0.4 0.896 -0.88 0.896c -0.48 0 -0.896 -0.416 -0.896 -0.896c 0 -0.48 0.4 -0.912 0.88 -0.912c 0.496 0 0.896 0.416 0.896 0.912Z m -0.816 -9.568l 1.664 -0.048v 0.624c -0.528 0 -0.848 0.032 -0.944 0.096c -0.096 0.064 -0.128 0.24 -0.128 0.528v 5.872l -2.288 -0.192v -0.608c 0.528 0 0.864 -0.048 0.976 -0.128c 0.112 -0.08 0.16 -0.304 0.16 -0.672v -4.256c 0 -0.304 -0.048 -0.496 -0.16 -0.56c -0.112 -0.064 -0.464 -0.08 -1.04 -0.08v -0.624Z "/></symbol><symbol id="g2D6E657268474CEE13627634B0892604" overflow="visible"><path d="M 0 0m 5.024 6.608c 0.72 0 1.088 -0.56 1.088 -1.696v -3.648c 0 -0.304 -0.048 -0.496 -0.16 -0.56c -0.112 -0.064 -0.464 -0.096 -1.056 -0.096v -0.608l 1.84 0.048l 1.824 -0.048v 0.608c -0.512 0 -0.848 0.016 -1.008 0.064c -0.16 0.048 -0.224 0.16 -0.224 0.352v 2.992c 0 0.752 -0.016 1.28 -0.064 1.584c -0.16 0.976 -0.88 1.472 -2.144 1.472c -1.008 0 -1.76 -0.48 -2.256 -1.44v 1.44l -2.352 -0.176v -0.608c 0.576 0 0.928 -0.048 1.056 -0.144c 0.128 -0.096 0.176 -0.304 0.176 -0.672v -4.208c 0 -0.304 -0.064 -0.496 -0.176 -0.56c -0.112 -0.064 -0.464 -0.096 -1.056 -0.096v -0.608l 1.84 0.048l 1.824 -0.048v 0.608c -0.592 0 -0.928 0.032 -1.04 0.096c -0.112 0.064 -0.176 0.256 -0.176 0.56v 2.88c 0 1.296 0.816 2.464 2.064 2.464Z "/></symbol><symbol id="gFE76948C2BAC56DB366E75C5D3E395C9" overflow="visible"><path d="M 0 0m 5.088 -3.968c 0.144 0 0.224 0.08 0.224 0.224c 0 0.048 -0.032 0.112 -0.08 0.176c -0.832 0.64 -1.504 1.696 -2 3.152c -0.432 1.264 -0.656 2.512 -0.656 3.744v 1.344c 0 1.232 0.224 2.48 0.656 3.744c 0.496 1.456 1.168 2.512 2 3.152c 0.048 0.048 0.08 0.112 0.08 0.176c 0 0.144 -0.08 0.224 -0.224 0.224c -0.016 0 -0.064 -0.016 -0.112 -0.048c -0.96 -0.736 -1.76 -1.824 -2.416 -3.28c -0.624 -1.392 -0.944 -2.704 -0.944 -3.968v -1.344c 0 -1.264 0.32 -2.576 0.944 -3.968c 0.656 -1.456 1.456 -2.544 2.416 -3.28c 0.048 -0.032 0.096 -0.048 0.112 -0.048Z "/></symbol><symbol id="g7F1CDFC9C50812C85F36807E567EABDF" overflow="visible"><path d="M 0 0m 6.752 0.048c 0.32 0.016 0.8 0 1.424 -0.048v 0.624c -0.384 0 -0.672 0.048 -0.864 0.128c -0.192 0.08 -0.416 0.304 -0.672 0.672l -2 2.832c -0.048 0.144 -0.08 0.192 -0.08 0.144c 0 0.016 0.16 0.16 0.496 0.448c 0.56 0.496 0.976 0.816 1.248 0.992c 0.496 0.304 0.992 0.464 1.504 0.496v 0.608c -0.336 -0.032 -0.72 -0.048 -1.152 -0.048c -0.736 0 -1.344 0.016 -1.84 0.048v -0.608c 0.304 -0.016 0.464 -0.128 0.464 -0.336c 0 -0.192 -0.112 -0.384 -0.32 -0.576l -2.112 -1.84v 7.52l -2.4 -0.176v -0.608c 0.576 0 0.928 -0.048 1.056 -0.144c 0.128 -0.096 0.176 -0.32 0.176 -0.688v -8.224c 0 -0.304 -0.064 -0.496 -0.176 -0.56c -0.112 -0.064 -0.464 -0.08 -1.056 -0.08v -0.624l 1.776 0.048l 1.792 -0.048v 0.624c -0.592 0 -0.928 0.016 -1.04 0.08c -0.112 0.064 -0.176 0.256 -0.176 0.56v 1.6l 0.928 0.816l 0.256 -0.384c 1.04 -1.44 1.568 -2.24 1.568 -2.384c 0 -0.192 -0.192 -0.288 -0.576 -0.288v -0.624Z "/></symbol><symbol id="gA3525D446D3D83A5B7E735BB6646CDBD" overflow="visible"><path d="M 0 0m 6.688 0.048c 0.368 0.016 0.896 0 1.568 -0.048v 0.608c -0.848 0 -1.168 0.016 -1.504 0.464l -2.08 2.688c 0.688 0.848 1.152 1.424 1.408 1.728c 0.448 0.512 1.072 0.784 1.888 0.8v 0.608c -0.448 -0.032 -0.896 -0.048 -1.344 -0.048c -0.592 0 -1.12 0.016 -1.584 0.048v -0.608c 0.304 -0.032 0.464 -0.176 0.464 -0.432c 0 -0.144 -0.08 -0.32 -0.224 -0.512l -0.928 -1.152l -1.184 1.52c -0.08 0.112 -0.128 0.192 -0.128 0.24c 0 0.208 0.192 0.32 0.56 0.336v 0.608l -1.776 -0.048c -0.416 -0.016 -0.928 0 -1.552 0.048v -0.608c 0.576 0 0.944 -0.048 1.104 -0.128c 0.16 -0.08 0.416 -0.352 0.768 -0.816l 1.52 -1.984c -0.784 -1.008 -1.264 -1.616 -1.44 -1.824c -0.512 -0.624 -1.184 -0.928 -2.032 -0.928v -0.608c 0.592 0.048 1.04 0.064 1.376 0.048l 1.552 -0.048v 0.608c -0.304 0.048 -0.448 0.192 -0.448 0.432c 0 0.064 0.016 0.144 0.048 0.224c 0.096 0.208 0.528 0.752 1.296 1.664l 1.152 -1.504c 0.176 -0.224 0.272 -0.384 0.32 -0.48c 0 -0.208 -0.192 -0.32 -0.576 -0.336v -0.608Z "/></symbol><symbol id="g4A60CE28263A0313E2F1F2501A07CE8B" overflow="visible"><path d="M 0 0m 1.248 -3.92c 0.96 0.736 1.76 1.824 2.416 3.28c 0.624 1.392 0.944 2.704 0.944 3.968v 1.344c 0 1.264 -0.32 2.576 -0.944 3.968c -0.656 1.456 -1.456 2.544 -2.416 3.28c -0.048 0.032 -0.096 0.048 -0.112 0.048c -0.144 0 -0.224 -0.08 -0.224 -0.224c 0 -0.064 0.032 -0.128 0.08 -0.176c 0.832 -0.64 1.504 -1.696 2 -3.152c 0.432 -1.264 0.656 -2.512 0.656 -3.744v -1.344c 0 -1.232 -0.224 -2.48 -0.656 -3.744c -0.496 -1.456 -1.168 -2.512 -2 -3.152c -0.048 -0.064 -0.08 -0.128 -0.08 -0.176c 0 -0.144 0.08 -0.224 0.224 -0.224c 0.016 0 0.064 0.016 0.112 0.048Z "/></symbol><symbol id="g6962E09401F6289A28317FAA8E7FC9C1" overflow="visible"><path d="M 0 0m 4.016 6.656c 0.672 0 1.184 -0.16 1.536 -0.48c -0.384 -0.048 -0.656 -0.4 -0.656 -0.768c 0 -0.528 0.256 -0.784 0.784 -0.784c 0.528 0 0.784 0.272 0.784 0.8c 0 1.136 -1.232 1.744 -2.464 1.744c -0.992 0 -1.808 -0.352 -2.464 -1.088c -0.656 -0.736 -0.992 -1.616 -0.992 -2.624c 0 -0.976 0.336 -1.84 0.992 -2.56c 0.656 -0.72 1.456 -1.072 2.432 -1.072c 0.8 0 1.424 0.224 1.872 0.688c 0.368 0.368 0.608 0.736 0.736 1.12c 0.048 0.144 0.064 0.24 0.064 0.304c 0 0.144 -0.096 0.208 -0.272 0.208c -0.128 0 -0.208 -0.064 -0.256 -0.192c -0.336 -1.072 -0.992 -1.616 -2 -1.616c -0.464 0 -0.912 0.208 -1.36 0.64c -0.528 0.496 -0.784 1.328 -0.784 2.512c 0 1.6 0.608 3.168 2.048 3.168Z "/></symbol><symbol id="gB655B06F60CB612733AD7B4C8BAD552D" overflow="visible"><path d="M 0 0m 3.984 -0.176c 0.992 0 1.824 0.352 2.512 1.056c 0.688 0.704 1.04 1.552 1.04 2.544c 0 1.008 -0.336 1.888 -1.008 2.624c -0.672 0.736 -1.52 1.12 -2.528 1.12c -1.008 0 -1.84 -0.384 -2.528 -1.12c -0.688 -0.736 -1.024 -1.616 -1.024 -2.624c 0 -0.992 0.336 -1.84 1.024 -2.544c 0.688 -0.704 1.536 -1.056 2.512 -1.056Z m 0.016 0.512c -0.768 0 -1.344 0.336 -1.744 1.024c -0.256 0.448 -0.384 1.184 -0.384 2.192c 0 0.976 0.128 1.68 0.368 2.128c 0.384 0.688 0.96 1.024 1.744 1.024c 0.752 0 1.328 -0.336 1.728 -0.992c 0.272 -0.448 0.4 -1.168 0.4 -2.16c 0 -1.856 -0.544 -3.216 -2.112 -3.216Z "/></symbol><symbol id="g64AA6D97DC384EDB5F6925C9B5CF4089" overflow="visible"><path d="M 0 0m 1.808 -3.28c 0.88 0 1.584 0.608 2.08 1.84l 2.768 6.752c 0.272 0.64 0.752 0.96 1.472 0.96v 0.624c -0.528 -0.048 -0.944 -0.064 -1.248 -0.048l -1.424 0.048v -0.608c 0.496 -0.016 0.736 -0.224 0.736 -0.624c 0 -0.096 -0.032 -0.208 -0.096 -0.352l -1.52 -3.744l -1.696 4.096c -0.048 0.128 -0.08 0.224 -0.096 0.272c 0 0.224 0.304 0.336 0.896 0.336v 0.624l -1.792 -0.048c -0.384 -0.016 -0.912 0 -1.584 0.048v -0.624c 0.848 0 1.056 0.032 1.28 -0.512l 2.352 -5.744l -0.384 -0.896c -0.432 -1.024 -0.736 -1.92 -1.744 -1.92c -0.224 0 -0.416 0.064 -0.592 0.176c 0.368 0.08 0.544 0.32 0.544 0.704c 0 0.48 -0.24 0.72 -0.736 0.72c -0.48 0 -0.72 -0.24 -0.72 -0.736c 0 -0.784 0.72 -1.344 1.504 -1.344Z "/></symbol><symbol id="gDBFAE06AF79FDD9C3E51928051970166" overflow="visible"><path d="M 0 0m 0.912 0h 5.232l 0.272 3.056h -0.512c -0.08 -0.992 -0.24 -1.664 -0.528 -2.016c -0.288 -0.352 -0.848 -0.528 -1.696 -0.528h -1.728l 4.272 5.808c 0.112 0.144 0.16 0.24 0.16 0.304c 0 0.176 -0.16 0.272 -0.464 0.272h -5.072l -0.192 -2.656h 0.528c 0.048 0.88 0.208 1.456 0.464 1.744c 0.256 0.288 0.784 0.448 1.584 0.448h 1.664l -4.288 -5.824c -0.112 -0.144 -0.16 -0.24 -0.16 -0.32c 0 -0.272 0.112 -0.288 0.464 -0.288Z "/></symbol><symbol id="gD1F745F93AA9122F5DF54DDA8243F5F3" overflow="visible"><path d="M 0 0m 11.168 4.384h -4.56v 4.56c 0 0.256 -0.128 0.384 -0.384 0.384c -0.256 0 -0.384 -0.128 -0.384 -0.384v -4.56h -4.56c -0.256 0 -0.384 -0.128 -0.384 -0.384c 0 -0.256 0.128 -0.384 0.384 -0.384h 4.56v -4.56c 0 -0.256 0.128 -0.384 0.384 -0.384c 0.256 0 0.384 0.128 0.384 0.384v 4.56h 4.56c 0.256 0 0.384 0.128 0.384 0.384c 0 0.208 -0.176 0.384 -0.384 0.384Z "/></symbol><symbol id="gC0832B6C2AF3D05AA2320B6E93F37B72" overflow="visible"><path d="M 0 0m 0.72 -4h 1.904v 16h -1.904c -0.24 0 -0.368 -0.128 -0.368 -0.384c 0 -0.256 0.128 -0.384 0.368 -0.384h 1.184v -14.464h -1.184c -0.24 0 -0.368 -0.128 -0.368 -0.384c 0 -0.256 0.128 -0.384 0.368 -0.384Z "/></symbol><symbol id="gE3198AC751C1E446B3B88AA1B1278476" overflow="visible"><path d="M 0 0m 0.176 2.992h 4.24v 0.928h -4.24Z "/></symbol><symbol id="gEEA27574DB27C08E1CA07C210D64160F" overflow="visible"><path d="M 0 0m 3.984 -0.352c 2.256 0 3.376 1.824 3.376 5.472c 0 2.448 -0.512 4.08 -1.52 4.88c -0.56 0.432 -1.184 0.656 -1.84 0.656c -2.256 0 -3.376 -1.84 -3.376 -5.536c 0 -2.944 0.784 -5.472 3.36 -5.472Z m 1.792 8.736c 0.112 -0.56 0.16 -1.584 0.16 -3.072c 0 -1.472 -0.064 -2.56 -0.176 -3.264c -0.208 -1.28 -0.8 -1.92 -1.776 -1.92c -0.368 0 -0.736 0.144 -1.072 0.416c -0.432 0.368 -0.688 1.12 -0.8 2.272c -0.048 0.4 -0.064 1.232 -0.064 2.496c 0 1.392 0.048 2.368 0.128 2.896c 0.144 0.88 0.432 1.44 0.88 1.68c 0.352 0.192 0.656 0.288 0.928 0.288c 1.04 0 1.616 -0.848 1.792 -1.792Z "/></symbol><symbol id="g9C01E32E134F132C8AC5A7719EE77841" overflow="visible"><path d="M 0 0m 3.072 0.848c 0 0.464 -0.384 0.848 -0.848 0.848c -0.464 0 -0.848 -0.384 -0.848 -0.848c 0 -0.464 0.384 -0.848 0.848 -0.848c 0.464 0 0.848 0.384 0.848 0.848Z "/></symbol><symbol id="g73C3368B6AFB192C266BD482D9C9B36" overflow="visible"><path d="M 0 0m 1.888 5.04c 0.08 0 0.176 0.064 0.256 0.176c 0.48 0.72 1.136 1.072 1.968 1.072c 0.56 0 0.992 -0.32 1.28 -0.976c 0.176 -0.432 0.272 -1.088 0.272 -1.968c 0 -1.008 -0.128 -1.712 -0.368 -2.128c -0.4 -0.656 -0.944 -0.992 -1.632 -0.992c -1.072 0 -1.92 0.768 -2.208 1.6c 0.048 -0.016 0.08 0 0.144 0c 0.48 0 0.88 0.368 0.88 0.848c 0 0.496 -0.4 0.832 -0.88 0.832c -0.56 0 -0.8 -0.304 -0.8 -0.896c 0 -1.6 1.296 -2.96 2.896 -2.96c 0.976 0 1.808 0.352 2.48 1.056c 0.672 0.704 1.008 1.552 1.008 2.528c 0 0.928 -0.272 1.728 -0.816 2.416c -0.592 0.752 -1.328 1.12 -2.224 1.12c -0.752 0 -1.408 -0.24 -1.936 -0.72v 2.848c 0.432 -0.128 0.848 -0.192 1.28 -0.192c 0.736 0 1.376 0.176 1.92 0.544c 0.496 0.304 0.832 0.608 1.024 0.896c 0.096 0.128 0.144 0.224 0.144 0.272c 0 0.16 -0.08 0.24 -0.24 0.24c -0.88 -0.336 -1.632 -0.512 -2.24 -0.512c -0.72 0 -1.408 0.144 -2.064 0.448c -0.08 0.032 -0.144 0.048 -0.208 0.048c -0.144 0 -0.224 -0.144 -0.224 -0.448v -4.672c 0 -0.336 0 -0.48 0.288 -0.48Z "/></symbol><symbol id="gF0099E97FCE47D86CFFAA01886DF78DA" overflow="visible"><path d="M 0 0m 11.168 5.872h -9.888c -0.256 0 -0.384 -0.128 -0.384 -0.368c 0 -0.24 0.128 -0.368 0.384 -0.368h 9.888c 0.256 0 0.384 0.128 0.384 0.368c 0 0.192 -0.176 0.368 -0.384 0.368Z m 0 -3.008h -9.888c -0.256 0 -0.384 -0.128 -0.384 -0.368c 0 -0.24 0.128 -0.368 0.384 -0.368h 9.888c 0.256 0 0.384 0.128 0.384 0.368c 0 0.208 -0.176 0.368 -0.384 0.368Z "/></symbol><symbol id="g24A3A5C51680CE47A828CF005627D2FA" overflow="visible"><path d="M 0 0m 1.788 0h 2.556c 0.324 0 1.428 -0.024 1.428 -0.024c 0.12 0.6 0.24 1.38 0.312 2.004c -0.12 0.06 -0.252 0.084 -0.396 0.06c -0.24 -0.864 -0.684 -1.572 -1.956 -1.572h -0.756c -0.468 0 -0.684 0.228 -0.684 0.84v 4.968c 0 0.996 0.204 1.056 1.044 1.092c 0.072 0.072 0.072 0.324 0 0.396c -0.54 -0.012 -1.104 -0.024 -1.56 -0.024c -0.432 0 -0.996 0.012 -1.548 0.024c -0.072 -0.072 -0.072 -0.324 0 -0.396c 0.84 -0.036 1.044 -0.096 1.044 -1.092v -4.812c 0 -0.996 -0.204 -1.056 -1.044 -1.092c -0.072 -0.072 -0.072 -0.324 0 -0.396c 0.468 0.012 1.152 0.024 1.56 0.024Z "/></symbol><symbol id="g289ED535C508AEA31A604F0DADFA8DC1" overflow="visible"><path d="M 0 0m 2.172 1.464v 2.388c 0 0.6 0.048 1.368 0.048 1.368c 0 0.048 -0.06 0.084 -0.156 0.084c -0.336 -0.132 -0.816 -0.24 -1.644 -0.348c -0.024 -0.072 0 -0.264 0.024 -0.336c 0.66 -0.06 0.78 -0.132 0.78 -0.816v -2.34c 0 -0.996 -0.132 -1.032 -0.864 -1.092c -0.072 -0.072 -0.072 -0.324 0 -0.396c 0.396 0.012 0.864 0.024 1.344 0.024c 0.48 0 0.936 -0.012 1.332 -0.024c 0.072 0.072 0.072 0.324 0 0.396c -0.732 0.048 -0.864 0.096 -0.864 1.092Z m -1.092 5.724c 0 -0.312 0.288 -0.624 0.576 -0.624c 0.336 0 0.624 0.324 0.624 0.576c 0 0.288 -0.252 0.624 -0.576 0.624c -0.288 0 -0.624 -0.288 -0.624 -0.576Z "/></symbol><symbol id="gA9D8AA38C81E5F63D053CA30FE947007" overflow="visible"><path d="M 0 0m 4.008 0.6c 0.06 0.048 0.168 0.072 0.18 -0.012c 0.036 -0.288 0.132 -0.708 0.132 -0.708c 0.096 -0.036 0.156 -0.024 0.228 0c 0.264 0.216 0.684 0.396 1.416 0.48c 0.072 0.072 0.072 0.252 0 0.324c -0.768 0.06 -0.876 0.288 -0.876 0.876v 5.436c 0 0.78 0.048 1.26 0.048 1.26c 0 0.084 -0.048 0.12 -0.156 0.12c -0.3 -0.12 -1.2 -0.288 -1.68 -0.324c -0.024 -0.096 0 -0.288 0.072 -0.36c 0.036 0 0.072 0 0.108 0c 0.528 -0.036 0.66 -0.036 0.66 -0.984v -1.536c 0 -0.084 -0.024 -0.108 -0.108 -0.108c -0.048 0 -0.54 0.204 -0.936 0.204c -0.792 0 -1.32 -0.264 -1.8 -0.72c -0.516 -0.516 -0.828 -1.224 -0.828 -2.112c 0 -1.476 0.744 -2.556 2.04 -2.556c 0.468 0 0.912 0.24 1.5 0.72Z m 0.132 0.888c 0 -0.228 -0.024 -0.324 -0.192 -0.468c -0.444 -0.384 -0.828 -0.576 -1.128 -0.576c -0.648 0 -1.32 0.708 -1.32 2.208c 0 0.864 0.168 1.344 0.348 1.596c 0.372 0.564 0.876 0.6 1.116 0.6c 0.432 0 0.732 -0.156 0.972 -0.432c 0.168 -0.192 0.204 -0.276 0.204 -0.648Z "/></symbol><symbol id="g2F2DE93C75BB70AB44F4889228F287DB" overflow="visible"><path d="M 0 0m 2.208 4.296c -0.072 -0.084 -0.144 -0.108 -0.144 0c -0.012 0.324 -0.036 0.792 -0.096 0.912c -0.024 0.06 -0.048 0.096 -0.144 0.096c -0.336 -0.132 -0.648 -0.24 -1.476 -0.348c -0.024 -0.072 0 -0.264 0.024 -0.336c 0.648 -0.06 0.78 -0.12 0.78 -0.816v -2.34c 0 -0.984 -0.12 -1.032 -0.84 -1.092c -0.072 -0.072 -0.072 -0.324 0 -0.396c 0.36 0.012 0.84 0.024 1.32 0.024c 0.48 0 0.84 -0.012 1.2 -0.024c 0.072 0.072 0.072 0.324 0 0.396c -0.612 0.06 -0.732 0.108 -0.732 1.092v 1.968c 0 0.252 0.108 0.396 0.204 0.504c 0.456 0.444 0.996 0.708 1.464 0.708c 0.24 0 0.492 -0.156 0.636 -0.432c 0.12 -0.24 0.144 -0.564 0.144 -0.924v -1.824c 0 -0.984 -0.12 -1.032 -0.744 -1.092c -0.06 -0.072 -0.06 -0.324 0 -0.396c 0.36 0.012 0.744 0.024 1.224 0.024c 0.48 0 0.912 -0.012 1.272 -0.024c 0.06 0.072 0.06 0.324 0 0.396c -0.672 0.06 -0.804 0.108 -0.804 1.092v 1.788c 0 0.66 -0.048 1.236 -0.324 1.608c -0.204 0.264 -0.576 0.408 -0.996 0.408c -0.588 0 -1.26 -0.156 -1.968 -0.972Z "/></symbol><symbol id="gDEDC019FF1F409029582831C73222AA3" overflow="visible"><path d="M 0 0m 0.492 2.46c 0 -1.224 0.816 -2.58 2.52 -2.58c 0.768 0 1.356 0.276 1.764 0.672c 0.54 0.528 0.78 1.284 0.78 2.016c 0 1.248 -0.684 2.7 -2.52 2.7c -0.792 0 -1.44 -0.324 -1.884 -0.84c -0.432 -0.516 -0.66 -1.212 -0.66 -1.968Z m 2.364 2.388c 1.032 0 1.668 -0.936 1.668 -2.664c 0 -1.512 -0.78 -1.884 -1.344 -1.884c -1.248 0 -1.656 1.512 -1.656 2.436c 0 1.044 0.252 2.112 1.332 2.112Z "/></symbol></defs></svg>