<svg viewBox="0 0 77.936 24.74" width="77.936pt" height="24.74pt" xmlns="http://www.w3.org/2000/svg" xmlns:xlink="http://www.w3.org/1999/xlink" xmlns:h5="http://www.w3.org/1999/xhtml"><g transform="matrix(1 0 0 -1 8 15.87)"><use xlink:href="#g6A49BDAD86D143A5261F10C90C063B86" x="0" y="0" fill="#999999" fill-rule="nonzero"/></g><g transform="matrix(1 0 0 -1 19.231111111 15.87)"><use xlink:href="#g6AC36FCCE93CA059F72FE052A0A8D5C" x="0" y="0" fill="#999999" fill-rule="nonzero"/></g><g transform="matrix(1 0 0 -1 33.234222222 15.87)"><use xlink:href="#g577281DF0D2A2F42B27F2ABEF12F94B7" x="0" y="0" fill="#999999" fill-rule="nonzero"/></g><g transform="matrix(1 0 0 -1 48.155111111 15.87)"><use xlink:href="#g6345AC2EA3077C6DC759383F852E3A07" x="0" y="0" fill="#999999" fill-rule="nonzero"/></g><g transform="matrix(1 0 0 -1 62.936 15.87)"><use xlink:href="#g64DDA120CCDFF694739BA6AC3A364A95" x="0" y="0" fill="#999999" fill-rule="nonzero"/></g><defs><symbol id="g6A49BDAD86D143A5261F10C90C063B86" overflow="visible"><path d="M 0 0m 7.728 8.862c 0 0.616 -0.602 1.008 -1.26 1.008c -0.868 0 -1.47 -0.56 -1.792 -1.666c -0.07 -0.252 -0.224 -0.966 -0.448 -2.142h -0.91c -0.308 0 -0.462 -0.014 -0.462 -0.308c 0 -0.154 0.14 -0.224 0.434 -0.224h 0.84l -1.022 -5.418c -0.154 -0.798 -0.294 -1.386 -0.42 -1.778c -0.168 -0.518 -0.406 -0.784 -0.714 -0.784c -0.21 0 -0.378 0.056 -0.532 0.154c 0.448 0.07 0.672 0.336 0.672 0.784c 0 0.364 -0.182 0.546 -0.56 0.546c -0.476 0 -0.812 -0.42 -0.812 -0.896c 0 -0.616 0.574 -1.008 1.232 -1.008c 0.35 0 0.672 0.14 0.938 0.434c 0.448 0.462 0.798 1.12 1.05 2.002c 0.154 0.546 0.294 1.078 0.392 1.61l 0.812 4.354h 1.148c 0.322 0 0.462 0.014 0.462 0.336c 0 0.126 -0.14 0.196 -0.42 0.196h -1.078c 0.084 0.574 0.476 2.688 0.602 2.954c 0.14 0.294 0.336 0.434 0.588 0.434c 0.21 0 0.392 -0.056 0.546 -0.154c -0.434 -0.098 -0.658 -0.35 -0.658 -0.784c 0 -0.364 0.182 -0.546 0.56 -0.546c 0.476 0 0.812 0.42 0.812 0.896Z "/></symbol><symbol id="g6AC36FCCE93CA059F72FE052A0A8D5C" overflow="visible"><path d="M 0 0m 9.772 3.78h -8.652c -0.224 0 -0.336 -0.098 -0.336 -0.28c 0 -0.182 0.112 -0.28 0.336 -0.28h 8.652c 0.224 0 0.336 0.098 0.336 0.28c 0 0.168 -0.168 0.28 -0.336 0.28Z "/></symbol><symbol id="g577281DF0D2A2F42B27F2ABEF12F94B7" overflow="visible"><path d="M 0 0m 2.072 3.052c 0 1.792 0.784 3.612 1.666 4.62c 0.714 0.826 1.946 1.652 3.332 1.652c 1.456 0 2.17 -1.106 2.17 -2.618c 0 -0.126 -0.042 -0.574 -0.042 -0.7c 0 -0.126 0.084 -0.196 0.266 -0.196c 0.07 0 0.126 0.014 0.168 0.028c 0.07 0.098 0.112 0.196 0.14 0.294l 0.868 3.542c 0 0.126 -0.07 0.196 -0.21 0.196c -0.056 0 -0.14 -0.056 -0.252 -0.182l -0.91 -1.022c -0.546 0.798 -1.316 1.204 -2.31 1.204c -0.77 0 -1.526 -0.182 -2.296 -0.532c -1.554 -0.728 -2.688 -1.876 -3.416 -3.444c -0.364 -0.77 -0.546 -1.554 -0.546 -2.352c 0 -1.12 0.35 -2.03 1.064 -2.758c 0.714 -0.728 1.624 -1.092 2.744 -1.092c 1.106 0 2.114 0.406 3.024 1.204c 0.378 0.322 0.7 0.714 0.966 1.148c 0.378 0.63 0.574 1.064 0.574 1.33c 0 0.126 -0.07 0.196 -0.224 0.196c -0.126 0 -0.196 -0.056 -0.224 -0.182c -0.294 -0.91 -0.756 -1.638 -1.386 -2.156c -0.798 -0.658 -1.638 -0.994 -2.506 -0.994c -1.68 0 -2.66 1.134 -2.66 2.814Z "/></symbol><symbol id="g6345AC2EA3077C6DC759383F852E3A07" overflow="visible"><path d="M 0 0m 9.772 5.138h -8.652c -0.224 0 -0.336 -0.112 -0.336 -0.322c 0 -0.21 0.112 -0.322 0.336 -0.322h 8.652c 0.224 0 0.336 0.112 0.336 0.322c 0 0.168 -0.154 0.322 -0.336 0.322Z m 0 -2.632h -8.652c -0.224 0 -0.336 -0.112 -0.336 -0.322c 0 -0.21 0.112 -0.322 0.336 -0.322h 8.652c 0.224 0 0.336 0.112 0.336 0.322c 0 0.182 -0.154 0.322 -0.336 0.322Z "/></symbol><symbol id="g64DDA120CCDFF694739BA6AC3A364A95" overflow="visible"><path d="M 0 0m 3.486 -0.308c 1.974 0 2.954 1.596 2.954 4.788c 0 2.142 -0.448 3.57 -1.33 4.27c -0.49 0.378 -1.036 0.574 -1.61 0.574c -1.974 0 -2.954 -1.61 -2.954 -4.844c 0 -2.576 0.686 -4.788 2.94 -4.788Z m 1.568 7.644c 0.098 -0.49 0.14 -1.386 0.14 -2.688c 0 -1.288 -0.056 -2.24 -0.154 -2.856c -0.182 -1.12 -0.7 -1.68 -1.554 -1.68c -0.322 0 -0.644 0.126 -0.938 0.364c -0.378 0.322 -0.602 0.98 -0.7 1.988c -0.042 0.35 -0.056 1.078 -0.056 2.184c 0 1.218 0.042 2.072 0.112 2.534c 0.126 0.77 0.378 1.26 0.77 1.47c 0.308 0.168 0.574 0.252 0.812 0.252c 0.91 0 1.414 -0.742 1.568 -1.568Z "/></symbol></defs></svg>