<svg viewBox="0 0 107.9884 44.3932" width="107.9884pt" height="44.3932pt" xmlns="http://www.w3.org/2000/svg" xmlns:xlink="http://www.w3.org/1999/xlink" xmlns:h5="http://www.w3.org/1999/xhtml"><g transform="matrix(1 0 0 -1 8 27.2492)"><use xlink:href="#g6A49BDAD86D143A5261F10C90C063B86" x="0" y="0" fill="#999999" fill-rule="nonzero"/></g><g transform="matrix(1 0 0 -1 16.12 22.1672)"><use xlink:href="#g1E919D664F661A87A3A41274200B1A27" x="0" y="0" fill="#999999" fill-rule="nonzero"/></g><g transform="matrix(1 0 0 -1 25.591311111 27.2492)"><use xlink:href="#g6AC36FCCE93CA059F72FE052A0A8D5C" x="0" y="0" fill="#999999" fill-rule="nonzero"/></g><g transform="matrix(1 0 0 -1 39.594422222 27.2492)"><use xlink:href="#g809FAD854284324907F2188E0A5D5AC5" x="0" y="0" fill="#999999" fill-rule="nonzero"/></g><g transform="matrix(1 0 0 -1 51.249422222 17.7712)"><use xlink:href="#g841CEAB431FAED42CA3F58915AD85C66" x="0" y="0" fill="#999999" fill-rule="nonzero"/></g><g transform="matrix(1 0 0 -1 50.276422222 36.8532)"><use xlink:href="#gF7AA3A90CE4C43FF3863DB44F534455A" x="0" y="0" fill="#999999" fill-rule="nonzero"/></g><path fill="none" stroke="#999999" stroke-width="0.672" stroke-linecap="butt" stroke-linejoin="miter" stroke-miterlimit="4" transform="translate(50.276422222 23.7492)" d="M 0 0h 7"/><g transform="matrix(1 0 0 -1 58.676422222 27.2492)"><use xlink:href="#g51B18B7C5BF8397EE1ECD6EECFE3DD63" x="0" y="0" fill="#999999" fill-rule="nonzero"/></g><g transform="matrix(1 0 0 -1 67.958422222 12.5072)"><use xlink:href="#g1E919D664F661A87A3A41274200B1A27" x="0" y="0" fill="#999999" fill-rule="nonzero"/></g><g transform="matrix(1 0 0 -1 78.207511111 27.2492)"><use xlink:href="#g6345AC2EA3077C6DC759383F852E3A07" x="0" y="0" fill="#999999" fill-rule="nonzero"/></g><g transform="matrix(1 0 0 -1 92.9884 27.2492)"><use xlink:href="#g64DDA120CCDFF694739BA6AC3A364A95" x="0" y="0" fill="#999999" fill-rule="nonzero"/></g><defs><symbol id="g6A49BDAD86D143A5261F10C90C063B86" overflow="visible"><path d="M 0 0m 7.728 8.862c 0 0.616 -0.602 1.008 -1.26 1.008c -0.868 0 -1.47 -0.56 -1.792 -1.666c -0.07 -0.252 -0.224 -0.966 -0.448 -2.142h -0.91c -0.308 0 -0.462 -0.014 -0.462 -0.308c 0 -0.154 0.14 -0.224 0.434 -0.224h 0.84l -1.022 -5.418c -0.154 -0.798 -0.294 -1.386 -0.42 -1.778c -0.168 -0.518 -0.406 -0.784 -0.714 -0.784c -0.21 0 -0.378 0.056 -0.532 0.154c 0.448 0.07 0.672 0.336 0.672 0.784c 0 0.364 -0.182 0.546 -0.56 0.546c -0.476 0 -0.812 -0.42 -0.812 -0.896c 0 -0.616 0.574 -1.008 1.232 -1.008c 0.35 0 0.672 0.14 0.938 0.434c 0.448 0.462 0.798 1.12 1.05 2.002c 0.154 0.546 0.294 1.078 0.392 1.61l 0.812 4.354h 1.148c 0.322 0 0.462 0.014 0.462 0.336c 0 0.126 -0.14 0.196 -0.42 0.196h -1.078c 0.084 0.574 0.476 2.688 0.602 2.954c 0.14 0.294 0.336 0.434 0.588 0.434c 0.21 0 0.392 -0.056 0.546 -0.154c -0.434 -0.098 -0.658 -0.35 -0.658 -0.784c 0 -0.364 0.182 -0.546 0.56 -0.546c 0.476 0 0.812 0.42 0.812 0.896Z "/></symbol><symbol id="g1E919D664F661A87A3A41274200B1A27" overflow="visible"><path d="M 0 0m 1.1662 4.1552c 0.3136 0 0.5488 0.2352 0.5488 0.5488c 0 0.3528 -0.1862 0.539 -0.5488 0.5488c 0.2156 0.4606 0.7056 0.833 1.3426 0.833c 0.8624 0 1.4308 -0.6468 1.4308 -1.5092c 0 -0.4704 -0.1666 -0.9212 -0.5096 -1.3622c -0.1666 -0.2254 -0.294 -0.3822 -0.3822 -0.4704l -2.3226 -2.303c -0.1274 -0.1176 -0.1078 -0.147 -0.1078 -0.441h 4.0376l 0.3038 1.8424h -0.4116c -0.0686 -0.5194 -0.147 -0.8232 -0.2352 -0.8918c -0.049 -0.0294 -0.3528 -0.049 -0.931 -0.049h -1.666c 0.6566 0.5782 1.2642 1.0976 1.8424 1.5582c 0.441 0.343 0.7546 0.6468 0.9506 0.9114c 0.294 0.3822 0.441 0.784 0.441 1.2054c 0 0.6076 -0.2352 1.0878 -0.7154 1.4406c -0.4214 0.3234 -0.9506 0.49 -1.5778 0.49c -0.539 0 -0.9996 -0.1568 -1.4014 -0.4704c -0.4214 -0.343 -0.637 -0.7742 -0.637 -1.3034c 0 -0.3332 0.245 -0.5782 0.5488 -0.5782Z "/></symbol><symbol id="g6AC36FCCE93CA059F72FE052A0A8D5C" overflow="visible"><path d="M 0 0m 9.772 3.78h -8.652c -0.224 0 -0.336 -0.098 -0.336 -0.28c 0 -0.182 0.112 -0.28 0.336 -0.28h 8.652c 0.224 0 0.336 0.098 0.336 0.28c 0 0.168 -0.168 0.28 -0.336 0.28Z "/></symbol><symbol id="g809FAD854284324907F2188E0A5D5AC5" overflow="visible"><path d="M 0 0m 8.232 -11.144c 0.182 0 0.28 0.098 0.28 0.28c 0 0.084 -0.028 0.154 -0.098 0.224c -1.414 1.064 -2.534 2.912 -3.36 5.53c -0.714 2.226 -1.064 4.396 -1.064 6.524v 4.172c 0 2.128 0.35 4.298 1.064 6.524c 0.826 2.618 1.946 4.466 3.36 5.53c 0.07 0.07 0.098 0.14 0.098 0.224c 0 0.182 -0.098 0.28 -0.28 0.28c -0.07 0 -0.126 -0.014 -0.168 -0.056c -1.568 -1.19 -2.856 -3.094 -3.864 -5.684c -0.924 -2.366 -1.386 -4.648 -1.386 -6.818v -4.172c 0 -2.17 0.462 -4.452 1.386 -6.818c 1.008 -2.59 2.296 -4.494 3.864 -5.684c 0.042 -0.042 0.098 -0.056 0.168 -0.056Z "/></symbol><symbol id="g841CEAB431FAED42CA3F58915AD85C66" overflow="visible"><path d="M 0 0m 4.62 5.866c 0 0.126 -0.14 0.196 -0.434 0.196h -1.134c 0.364 1.456 0.546 2.212 0.546 2.268c 0 0.294 -0.154 0.434 -0.448 0.434c -0.322 0 -0.518 -0.182 -0.602 -0.546l -0.518 -2.156h -1.246c -0.308 0 -0.462 -0.014 -0.462 -0.308c 0 -0.154 0.14 -0.224 0.434 -0.224h 1.134c -0.686 -2.73 -1.022 -4.172 -1.022 -4.354c 0 -0.784 0.532 -1.33 1.316 -1.33c 0.532 0 0.994 0.238 1.4 0.728c 0.336 0.406 0.574 0.798 0.728 1.176c 0.056 0.154 0.084 0.238 0.084 0.28c 0 0.126 -0.07 0.196 -0.21 0.196c -0.112 0 -0.196 -0.07 -0.252 -0.224c -0.476 -1.162 -1.05 -1.736 -1.736 -1.736c -0.238 0 -0.364 0.196 -0.364 0.574c 0 0.21 0.028 0.434 0.084 0.658l 0.994 4.032h 1.246c 0.364 0 0.462 0.028 0.462 0.336Z "/></symbol><symbol id="gF7AA3A90CE4C43FF3863DB44F534455A" overflow="visible"><path d="M 0 0m 3.318 9.324c -0.714 0 -1.316 -0.252 -1.834 -0.756c -0.518 -0.504 -0.784 -1.092 -0.784 -1.806c 0 -0.476 0.35 -0.826 0.784 -0.826c 0.42 0 0.77 0.364 0.77 0.784c 0 0.462 -0.336 0.784 -0.784 0.784c -0.042 0 -0.07 0 -0.098 -0.014c 0.266 0.686 0.882 1.288 1.764 1.288c 1.148 0 1.792 -0.994 1.792 -2.198c 0 -0.938 -0.476 -1.946 -1.428 -3.01l -2.632 -2.968c -0.182 -0.21 -0.168 -0.196 -0.168 -0.602h 5.194l 0.406 2.52h -0.462c -0.112 -0.714 -0.21 -1.12 -0.294 -1.246c -0.07 -0.07 -0.49 -0.098 -1.26 -0.098h -2.338l 1.358 1.33c 0.952 0.896 2.156 1.862 2.562 2.604c 0.28 0.49 0.42 0.98 0.42 1.47c 0 1.652 -1.288 2.744 -2.968 2.744Z "/></symbol><symbol id="g51B18B7C5BF8397EE1ECD6EECFE3DD63" overflow="visible"><path d="M 0 0m 1.204 -11.088c 1.568 1.19 2.856 3.094 3.878 5.684c 0.924 2.366 1.386 4.648 1.386 6.818v 4.172c 0 2.17 -0.462 4.452 -1.386 6.818c -1.022 2.59 -2.31 4.494 -3.878 5.684c -0.042 0.042 -0.084 0.056 -0.154 0.056c -0.182 0 -0.28 -0.098 -0.28 -0.28c 0 -0.098 0.028 -0.168 0.098 -0.224c 1.414 -1.078 2.534 -2.912 3.36 -5.53c 0.714 -2.212 1.064 -4.382 1.064 -6.524v -4.172c 0 -2.128 -0.35 -4.298 -1.064 -6.524c -0.826 -2.618 -1.946 -4.466 -3.36 -5.53c -0.07 -0.056 -0.098 -0.126 -0.098 -0.224c 0 -0.182 0.098 -0.28 0.28 -0.28c 0.07 0 0.112 0.014 0.154 0.056Z "/></symbol><symbol id="g6345AC2EA3077C6DC759383F852E3A07" overflow="visible"><path d="M 0 0m 9.772 5.138h -8.652c -0.224 0 -0.336 -0.112 -0.336 -0.322c 0 -0.21 0.112 -0.322 0.336 -0.322h 8.652c 0.224 0 0.336 0.112 0.336 0.322c 0 0.168 -0.154 0.322 -0.336 0.322Z m 0 -2.632h -8.652c -0.224 0 -0.336 -0.112 -0.336 -0.322c 0 -0.21 0.112 -0.322 0.336 -0.322h 8.652c 0.224 0 0.336 0.112 0.336 0.322c 0 0.182 -0.154 0.322 -0.336 0.322Z "/></symbol><symbol id="g64DDA120CCDFF694739BA6AC3A364A95" overflow="visible"><path d="M 0 0m 3.486 -0.308c 1.974 0 2.954 1.596 2.954 4.788c 0 2.142 -0.448 3.57 -1.33 4.27c -0.49 0.378 -1.036 0.574 -1.61 0.574c -1.974 0 -2.954 -1.61 -2.954 -4.844c 0 -2.576 0.686 -4.788 2.94 -4.788Z m 1.568 7.644c 0.098 -0.49 0.14 -1.386 0.14 -2.688c 0 -1.288 -0.056 -2.24 -0.154 -2.856c -0.182 -1.12 -0.7 -1.68 -1.554 -1.68c -0.322 0 -0.644 0.126 -0.938 0.364c -0.378 0.322 -0.602 0.98 -0.7 1.988c -0.042 0.35 -0.056 1.078 -0.056 2.184c 0 1.218 0.042 2.072 0.112 2.534c 0.126 0.77 0.378 1.26 0.77 1.47c 0.308 0.168 0.574 0.252 0.812 0.252c 0.91 0 1.414 -0.742 1.568 -1.568Z "/></symbol></defs></svg>