<svg viewBox="0 0 498.944 72.216" width="498.944pt" height="72.216pt" xmlns="http://www.w3.org/2000/svg" xmlns:xlink="http://www.w3.org/1999/xlink" xmlns:h5="http://www.w3.org/1999/xhtml"><g transform="matrix(1 0 0 -1 20 23.32)"><use xlink:href="#g461A94E8E5A1E9889ED891CA38E20E98" x="0" y="0" fill="#e0e0e0" fill-rule="nonzero"/><use xlink:href="#gD45453FCBA9F32034F18E47DB84C4F61" x="9.856" y="0" fill="#e0e0e0" fill-rule="nonzero"/><use xlink:href="#g126782A56BC0402254F11EA8BA2F12E3" x="17.792" y="0" fill="#e0e0e0" fill-rule="nonzero"/><use xlink:href="#gEEEE8393AB87ABE8C30D915B54A5B850" x="26.496" y="0" fill="#e0e0e0" fill-rule="nonzero"/><use xlink:href="#g2B9A6BE5C96A44EC5B91CAD3E000148E" x="34.96" y="0" fill="#e0e0e0" fill-rule="nonzero"/><use xlink:href="#g7C81421972BB8C34D2DBDD88188DF443" x="40.112" y="0" fill="#e0e0e0" fill-rule="nonzero"/><use xlink:href="#g24DE49A13CDC41C2938F6A46FEBE412" x="49.68" y="0" fill="#e0e0e0" fill-rule="nonzero"/></g><g transform="matrix(1 0 0 -1 20 41.32)"><use xlink:href="#gC9C87B8954CD60BC7BD0149E0DE29F7C" x="0" y="0" fill="#e0e0e0" fill-rule="nonzero"/><use xlink:href="#g38C4A629BD10FDE6DFB054A96D51AEC4" x="8" y="0" fill="#e0e0e0" fill-rule="nonzero"/><use xlink:href="#g6962E09401F6289A28317FAA8E7FC9C1" x="12.448" y="0" fill="#e0e0e0" fill-rule="nonzero"/><use xlink:href="#gB655B06F60CB612733AD7B4C8BAD552D" x="19.552" y="0" fill="#e0e0e0" fill-rule="nonzero"/><use xlink:href="#g6B2BD8417A153D7B2322B2C53F78B77D" x="27.552" y="0" fill="#e0e0e0" fill-rule="nonzero"/><use xlink:href="#gFE76948C2BAC56DB366E75C5D3E395C9" x="33.856" y="0" fill="#e0e0e0" fill-rule="nonzero"/><use xlink:href="#g7F1CDFC9C50812C85F36807E567EABDF" x="40.08" y="0" fill="#e0e0e0" fill-rule="nonzero"/><use xlink:href="#gA3525D446D3D83A5B7E735BB6646CDBD" x="48.528" y="0" fill="#e0e0e0" fill-rule="nonzero"/><use xlink:href="#g4A60CE28263A0313E2F1F2501A07CE8B" x="56.976" y="0" fill="#e0e0e0" fill-rule="nonzero"/><use xlink:href="#gD1F745F93AA9122F5DF54DDA8243F5F3" x="68.512" y="0" fill="#e0e0e0" fill-rule="nonzero"/><use xlink:href="#g6962E09401F6289A28317FAA8E7FC9C1" x="86.272" y="0" fill="#e0e0e0" fill-rule="nonzero"/><use xlink:href="#gB655B06F60CB612733AD7B4C8BAD552D" x="93.376" y="0" fill="#e0e0e0" fill-rule="nonzero"/><use xlink:href="#g6B2BD8417A153D7B2322B2C53F78B77D" x="101.376" y="0" fill="#e0e0e0" fill-rule="nonzero"/><use xlink:href="#gFE76948C2BAC56DB366E75C5D3E395C9" x="107.68" y="0" fill="#e0e0e0" fill-rule="nonzero"/><use xlink:href="#g7F1CDFC9C50812C85F36807E567EABDF" x="113.904" y="0" fill="#e0e0e0" fill-rule="nonzero"/><use xlink:href="#g64AA6D97DC384EDB5F6925C9B5CF4089" x="122.352" y="0" fill="#e0e0e0" fill-rule="nonzero"/><use xlink:href="#g4A60CE28263A0313E2F1F2501A07CE8B" x="130.8" y="0" fill="#e0e0e0" fill-rule="nonzero"/><use xlink:href="#gD1F745F93AA9122F5DF54DDA8243F5F3" x="142.336" y="0" fill="#e0e0e0" fill-rule="nonzero"/><use xlink:href="#g6962E09401F6289A28317FAA8E7FC9C1" x="160.096" y="0" fill="#e0e0e0" fill-rule="nonzero"/><use xlink:href="#gB655B06F60CB612733AD7B4C8BAD552D" x="167.2" y="0" fill="#e0e0e0" fill-rule="nonzero"/><use xlink:href="#g6B2BD8417A153D7B2322B2C53F78B77D" x="175.2" y="0" fill="#e0e0e0" fill-rule="nonzero"/><use xlink:href="#gFE76948C2BAC56DB366E75C5D3E395C9" x="181.504" y="0" fill="#e0e0e0" fill-rule="nonzero"/><use xlink:href="#g7F1CDFC9C50812C85F36807E567EABDF" x="187.728" y="0" fill="#e0e0e0" fill-rule="nonzero"/><use xlink:href="#gDBFAE06AF79FDD9C3E51928051970166" x="196.176" y="0" fill="#e0e0e0" fill-rule="nonzero"/><use xlink:href="#g4A60CE28263A0313E2F1F2501A07CE8B" x="203.28" y="0" fill="#e0e0e0" fill-rule="nonzero"/><use xlink:href="#gC0832B6C2AF3D05AA2320B6E93F37B72" x="209.504" y="0" fill="#e0e0e0" fill-rule="nonzero"/><use xlink:href="#gD1F745F93AA9122F5DF54DDA8243F5F3" x="219.264" y="0" fill="#e0e0e0" fill-rule="nonzero"/><use xlink:href="#gDC2710B0DEEB8F8A015586148491CBF8" x="237.024" y="0" fill="#e0e0e0" fill-rule="nonzero"/><use xlink:href="#g6962E09401F6289A28317FAA8E7FC9C1" x="250.336" y="0" fill="#e0e0e0" fill-rule="nonzero"/><use xlink:href="#gB655B06F60CB612733AD7B4C8BAD552D" x="257.44" y="0" fill="#e0e0e0" fill-rule="nonzero"/><use xlink:href="#g6B2BD8417A153D7B2322B2C53F78B77D" x="265.44" y="0" fill="#e0e0e0" fill-rule="nonzero"/><use xlink:href="#gFE76948C2BAC56DB366E75C5D3E395C9" x="271.744" y="0" fill="#e0e0e0" fill-rule="nonzero"/><use xlink:href="#g7F1CDFC9C50812C85F36807E567EABDF" x="277.968" y="0" fill="#e0e0e0" fill-rule="nonzero"/><use xlink:href="#gA3525D446D3D83A5B7E735BB6646CDBD" x="286.416" y="0" fill="#e0e0e0" fill-rule="nonzero"/><use xlink:href="#g4A60CE28263A0313E2F1F2501A07CE8B" x="294.864" y="0" fill="#e0e0e0" fill-rule="nonzero"/><use xlink:href="#g6962E09401F6289A28317FAA8E7FC9C1" x="306.4" y="0" fill="#e0e0e0" fill-rule="nonzero"/><use xlink:href="#gB655B06F60CB612733AD7B4C8BAD552D" x="313.504" y="0" fill="#e0e0e0" fill-rule="nonzero"/><use xlink:href="#g6B2BD8417A153D7B2322B2C53F78B77D" x="321.504" y="0" fill="#e0e0e0" fill-rule="nonzero"/><use xlink:href="#gFE76948C2BAC56DB366E75C5D3E395C9" x="327.808" y="0" fill="#e0e0e0" fill-rule="nonzero"/><use xlink:href="#g7F1CDFC9C50812C85F36807E567EABDF" x="334.032" y="0" fill="#e0e0e0" fill-rule="nonzero"/><use xlink:href="#g64AA6D97DC384EDB5F6925C9B5CF4089" x="342.48" y="0" fill="#e0e0e0" fill-rule="nonzero"/><use xlink:href="#g4A60CE28263A0313E2F1F2501A07CE8B" x="350.928" y="0" fill="#e0e0e0" fill-rule="nonzero"/><use xlink:href="#g6962E09401F6289A28317FAA8E7FC9C1" x="362.464" y="0" fill="#e0e0e0" fill-rule="nonzero"/><use xlink:href="#gB655B06F60CB612733AD7B4C8BAD552D" x="369.568" y="0" fill="#e0e0e0" fill-rule="nonzero"/><use xlink:href="#g6B2BD8417A153D7B2322B2C53F78B77D" x="377.568" y="0" fill="#e0e0e0" fill-rule="nonzero"/><use xlink:href="#gFE76948C2BAC56DB366E75C5D3E395C9" x="383.872" y="0" fill="#e0e0e0" fill-rule="nonzero"/><use xlink:href="#g7F1CDFC9C50812C85F36807E567EABDF" x="390.096" y="0" fill="#e0e0e0" fill-rule="nonzero"/><use xlink:href="#gDBFAE06AF79FDD9C3E51928051970166" x="398.544" y="0" fill="#e0e0e0" fill-rule="nonzero"/><use xlink:href="#g4A60CE28263A0313E2F1F2501A07CE8B" x="405.648" y="0" fill="#e0e0e0" fill-rule="nonzero"/><use xlink:href="#gF0099E97FCE47D86CFFAA01886DF78DA" x="417.184" y="0" fill="#e0e0e0" fill-rule="nonzero"/><use xlink:href="#gEEA27574DB27C08E1CA07C210D64160F" x="434.944" y="0" fill="#e0e0e0" fill-rule="nonzero"/></g><g transform="matrix(1 0 0 -1 20 59.216)"><use xlink:href="#g8C34A5E102379CA54DADE164EA618DB" x="0" y="0" fill="#999999" fill-rule="nonzero"/><use xlink:href="#g30001D7828CC398501D0D953534F2217" x="8.388" y="0" fill="#999999" fill-rule="nonzero"/><use xlink:href="#gDEDC019FF1F409029582831C73222AA3" x="13.836" y="0" fill="#999999" fill-rule="nonzero"/><use xlink:href="#g5723DCFBFCE5C740FA2BDFF816BBC144" x="19.8" y="0" fill="#999999" fill-rule="nonzero"/><use xlink:href="#g289ED535C508AEA31A604F0DADFA8DC1" x="25.764" y="0" fill="#999999" fill-rule="nonzero"/><use xlink:href="#gFEBA94A6A36FE679041CEBCA8D53F665" x="29.016" y="0" fill="#999999" fill-rule="nonzero"/><use xlink:href="#g2CAEDCB9708166472B607F1B64064810" x="35.388" y="0" fill="#999999" fill-rule="nonzero"/></g><defs><symbol id="g461A94E8E5A1E9889ED891CA38E20E98" overflow="visible"><path d="M 0 0m 3.648 1.952v 3.216c 0.64 0.432 1.28 0.752 1.568 0.752c 0.64 0 1.12 -0.288 1.12 -1.2v -2.672c 0 -1.344 -0.256 -1.488 -0.912 -1.536c -0.096 -0.096 -0.096 -0.448 0 -0.544c 0.672 0.016 1.184 0.032 1.952 0.032c 0.88 0 1.584 -0.016 2.272 -0.032c 0.096 0.096 0.096 0.448 0 0.544c -0.976 0.048 -1.232 0.192 -1.232 1.536v 2.496c 0 1.76 -0.752 2.56 -2.128 2.56c -0.64 0 -1.776 -0.704 -2.656 -1.312c -0.048 0.56 -0.112 1.04 -0.112 1.04c -0.016 0.192 -0.144 0.272 -0.368 0.272c -0.592 -0.16 -1.552 -0.384 -2.656 -0.528c -0.032 -0.096 0 -0.416 0.032 -0.512c 0.88 -0.08 1.04 -0.208 1.04 -1.12v -2.992c 0 -1.328 -0.176 -1.36 -1.152 -1.44c -0.096 -0.096 -0.096 -0.448 0 -0.544c 0.672 0.016 1.344 0.032 2.192 0.032c 0.736 0 1.184 -0.016 1.872 -0.032c 0.096 0.096 0.096 0.448 0 0.544c -0.672 0.064 -0.832 0.112 -0.832 1.44Z "/></symbol><symbol id="gD45453FCBA9F32034F18E47DB84C4F61" overflow="visible"><path d="M 0 0m 6.896 2.064c -0.656 -0.672 -1.52 -0.848 -2.128 -0.848c -1.248 0 -2.016 0.72 -2.016 2.288c 0 0.112 0.016 0.176 0.016 0.256h 3.84c 0.384 0 0.464 0.272 0.464 0.496c 0 1.36 -0.528 2.848 -2.88 2.848c -1.68 0 -3.6 -1.488 -3.6 -3.936c 0 -0.928 0.336 -1.904 1.024 -2.528c 0.608 -0.544 1.392 -0.8 2.528 -0.8c 1.104 0 2.192 0.56 2.992 1.728c 0 0.208 -0.08 0.496 -0.24 0.496Z m -4.064 2.336c 0.016 0.56 0.096 1.168 0.32 1.488c 0.256 0.384 0.688 0.544 0.864 0.544c 0.432 0 1.024 -0.416 1.024 -1.696c 0 -0.096 0 -0.304 -0.032 -0.336Z "/></symbol><symbol id="g126782A56BC0402254F11EA8BA2F12E3" overflow="visible"><path d="M 0 0m 0.592 3.312c 0 -2.096 1.664 -3.472 3.808 -3.472c 1.136 0 2.08 0.32 2.736 0.912c 0.816 0.72 1.088 1.808 1.088 2.704c 0 2.096 -1.424 3.648 -3.808 3.648c -1.328 0 -2.32 -0.464 -2.944 -1.184c -0.608 -0.704 -0.88 -1.664 -0.88 -2.608Z m 3.568 3.12c 1.088 0 1.824 -1.296 1.824 -3.488c 0 -1.92 -0.752 -2.432 -1.328 -2.432c -1.312 0 -1.824 1.968 -1.824 3.152c 0 1.472 0.256 2.768 1.328 2.768Z "/></symbol><symbol id="gEEEE8393AB87ABE8C30D915B54A5B850" overflow="visible"><path d="M 0 0m 5.472 6.432c 0.864 -0.064 0.976 -0.32 0.624 -1.136l -1.264 -2.928c -0.064 -0.144 -0.128 -0.032 -0.176 0.08l -1.008 2.848c -0.032 0.08 -0.064 0.16 -0.08 0.224c -0.224 0.608 -0.32 0.832 0.576 0.912c 0.096 0.096 0.096 0.448 0 0.544c -0.592 -0.016 -1.232 -0.032 -2.016 -0.032c -0.56 0 -1.376 0.016 -1.968 0.032c -0.096 -0.096 -0.096 -0.448 0 -0.544c 0.928 -0.112 0.96 -0.432 1.28 -1.232l 2.096 -5.056c 0.096 -0.24 0.368 -0.336 0.576 -0.336c 0.16 0 0.48 0.032 0.624 0.368l 2.192 5.008c 0.32 0.72 0.528 1.168 1.376 1.248c 0.096 0.096 0.096 0.448 0 0.544c -0.352 -0.016 -0.864 -0.032 -1.216 -0.032c -0.592 0 -1.184 0.016 -1.616 0.032c -0.096 -0.096 -0.096 -0.448 0 -0.544Z "/></symbol><symbol id="g2B9A6BE5C96A44EC5B91CAD3E000148E" overflow="visible"><path d="M 0 0m 3.712 1.952v 3.184c 0 0.8 0.064 1.696 0.064 1.696c 0 0.176 -0.144 0.272 -0.368 0.272c -0.448 -0.176 -1.744 -0.304 -2.848 -0.448c -0.032 -0.096 0 -0.416 0.032 -0.512c 0.88 -0.08 1.04 -0.208 1.04 -1.12v -3.072c 0 -1.328 -0.176 -1.36 -1.152 -1.44c -0.096 -0.096 -0.096 -0.448 0 -0.544c 0.672 0.016 1.344 0.032 2.192 0.032c 0.848 0 1.504 -0.016 2.192 -0.032c 0.096 0.096 0.096 0.448 0 0.544c -0.976 0.064 -1.152 0.112 -1.152 1.44Z m -2.16 7.584c 0 -0.528 0.384 -1.056 1.024 -1.056c 0.72 0 1.136 0.576 1.136 0.992c 0 0.48 -0.368 1.056 -1.04 1.056c -0.752 0 -1.12 -0.512 -1.12 -0.992Z "/></symbol><symbol id="g7C81421972BB8C34D2DBDD88188DF443" overflow="visible"><path d="M 0 0m 8.16 2.128v 2.768c 0 1.344 0.032 1.152 0.032 1.536c 0 0.272 -0.064 0.448 -0.16 0.544c -0.288 -0.016 -0.608 -0.032 -0.912 -0.032c -0.448 0 -1.488 0.016 -2.112 0.032c -0.096 -0.096 -0.096 -0.448 0 -0.544c 0.816 -0.08 1.072 -0.192 1.072 -1.536v -2.96c 0 -0.16 0 -0.32 0.016 -0.48c -0.656 -0.4 -1.184 -0.432 -1.472 -0.432c -0.64 0 -1.12 0.08 -1.12 1.2v 2.672c 0 1.344 0.032 1.152 0.032 1.536c 0 0.272 -0.064 0.448 -0.16 0.544c -0.288 -0.016 -0.624 -0.032 -0.912 -0.032c -0.816 0 -1.424 0.016 -2.112 0.032c -0.096 -0.096 -0.096 -0.448 0 -0.544c 0.736 -0.032 1.072 -0.192 1.072 -1.536v -2.496c 0 -1.696 0.672 -2.56 2.048 -2.56c 0.576 0 1.744 0.464 2.672 0.976c 0.032 -0.4 0.064 -0.704 0.064 -0.704c 0.016 -0.192 0.144 -0.272 0.368 -0.272c 0.592 0.16 1.552 0.384 2.656 0.528c 0.032 0.096 0 0.416 -0.032 0.512c -0.864 0.08 -1.04 0.336 -1.04 1.248Z "/></symbol><symbol id="g24DE49A13CDC41C2938F6A46FEBE412" overflow="visible"><path d="M 0 0m 0.768 2.336c 0.064 -0.784 0.144 -1.536 0.272 -2.144c 0.304 -0.096 1.328 -0.352 2.224 -0.352c 1.232 0 2.768 0.672 2.768 2.064c 0 0.544 -0.128 0.976 -0.496 1.376c -0.448 0.512 -1.12 0.912 -1.856 1.232c -0.64 0.272 -0.864 0.784 -0.864 1.248c 0 0.368 0.304 0.672 0.768 0.672c 0.56 0 1.104 -0.512 1.504 -1.488c 0.288 -0.048 0.464 -0.032 0.624 0.08c 0 0.576 -0.064 1.184 -0.208 1.696c -0.512 0.224 -0.912 0.384 -1.792 0.384c -0.848 0 -1.648 -0.32 -2.16 -0.832c -0.368 -0.368 -0.544 -0.816 -0.544 -1.248c 0 -0.48 0.192 -0.864 0.496 -1.2c 0.496 -0.544 1.376 -1.104 1.856 -1.328c 0.64 -0.288 0.816 -0.864 0.816 -1.248c 0 -0.512 -0.512 -0.784 -0.944 -0.784c -0.72 0 -1.488 0.736 -1.824 1.904c -0.256 0.048 -0.384 0.032 -0.64 -0.032Z "/></symbol><symbol id="gC9C87B8954CD60BC7BD0149E0DE29F7C" overflow="visible"><path d="M 0 0m 4.848 5.648c 1.056 0.4 2.048 1.408 2.048 2.768c 0 0.688 -0.336 1.248 -0.992 1.68c -0.576 0.368 -1.232 0.56 -1.968 0.56c -0.72 0 -1.344 -0.192 -1.904 -0.56c -0.624 -0.416 -0.944 -0.96 -0.944 -1.648c 0 -0.528 0.352 -0.896 0.864 -0.896c 0.512 0 0.864 0.368 0.864 0.88c 0 0.528 -0.304 0.816 -0.912 0.848c 0.416 0.56 1.072 0.848 1.968 0.848c 0.96 0 1.44 -0.56 1.44 -1.696c 0 -0.672 -0.128 -1.232 -0.368 -1.696c -0.432 -0.768 -1.024 -0.912 -2.016 -0.912c -0.192 -0.032 -0.288 -0.112 -0.288 -0.256c 0 -0.24 0.112 -0.24 0.432 -0.24h 0.688c 1.2 0 1.808 -0.848 1.808 -2.56c 0 -1.36 -0.496 -2.544 -1.712 -2.544c -1.04 0 -1.808 0.352 -2.272 1.056c 0.56 -0.016 0.976 0.4 0.976 0.944c 0 0.544 -0.4 0.944 -0.944 0.944c -0.624 0 -0.944 -0.32 -0.944 -0.976c 0 -0.784 0.352 -1.408 1.056 -1.904c 0.624 -0.432 1.36 -0.64 2.176 -0.64c 0.912 0 1.696 0.304 2.384 0.896c 0.688 0.592 1.024 1.328 1.024 2.224c 0 1.504 -1.184 2.544 -2.464 2.88Z "/></symbol><symbol id="g38C4A629BD10FDE6DFB054A96D51AEC4" overflow="visible"><path d="M 0 0m 3.728 -3.232h -1.184v 14.464h 1.184c 0.24 0 0.368 0.128 0.368 0.384c 0 0.256 -0.128 0.384 -0.368 0.384h -1.904v -16h 1.904c 0.24 0 0.368 0.128 0.368 0.384c 0 0.192 -0.176 0.384 -0.368 0.384Z "/></symbol><symbol id="g6962E09401F6289A28317FAA8E7FC9C1" overflow="visible"><path d="M 0 0m 4.016 6.656c 0.672 0 1.184 -0.16 1.536 -0.48c -0.384 -0.048 -0.656 -0.4 -0.656 -0.768c 0 -0.528 0.256 -0.784 0.784 -0.784c 0.528 0 0.784 0.272 0.784 0.8c 0 1.136 -1.232 1.744 -2.464 1.744c -0.992 0 -1.808 -0.352 -2.464 -1.088c -0.656 -0.736 -0.992 -1.616 -0.992 -2.624c 0 -0.976 0.336 -1.84 0.992 -2.56c 0.656 -0.72 1.456 -1.072 2.432 -1.072c 0.8 0 1.424 0.224 1.872 0.688c 0.368 0.368 0.608 0.736 0.736 1.12c 0.048 0.144 0.064 0.24 0.064 0.304c 0 0.144 -0.096 0.208 -0.272 0.208c -0.128 0 -0.208 -0.064 -0.256 -0.192c -0.336 -1.072 -0.992 -1.616 -2 -1.616c -0.464 0 -0.912 0.208 -1.36 0.64c -0.528 0.496 -0.784 1.328 -0.784 2.512c 0 1.6 0.608 3.168 2.048 3.168Z "/></symbol><symbol id="gB655B06F60CB612733AD7B4C8BAD552D" overflow="visible"><path d="M 0 0m 3.984 -0.176c 0.992 0 1.824 0.352 2.512 1.056c 0.688 0.704 1.04 1.552 1.04 2.544c 0 1.008 -0.336 1.888 -1.008 2.624c -0.672 0.736 -1.52 1.12 -2.528 1.12c -1.008 0 -1.84 -0.384 -2.528 -1.12c -0.688 -0.736 -1.024 -1.616 -1.024 -2.624c 0 -0.992 0.336 -1.84 1.024 -2.544c 0.688 -0.704 1.536 -1.056 2.512 -1.056Z m 0.016 0.512c -0.768 0 -1.344 0.336 -1.744 1.024c -0.256 0.448 -0.384 1.184 -0.384 2.192c 0 0.976 0.128 1.68 0.368 2.128c 0.384 0.688 0.96 1.024 1.744 1.024c 0.752 0 1.328 -0.336 1.728 -0.992c 0.272 -0.448 0.4 -1.168 0.4 -2.16c 0 -1.856 -0.544 -3.216 -2.112 -3.216Z "/></symbol><symbol id="g6B2BD8417A153D7B2322B2C53F78B77D" overflow="visible"><path d="M 0 0m 5.76 2.08c 0 1.216 -0.832 1.984 -2.48 2.304c -0.752 0.144 -1.232 0.32 -1.488 0.496c -0.256 0.176 -0.384 0.432 -0.384 0.736c 0 0.752 0.56 1.12 1.68 1.12c 1.088 0 1.68 -0.608 1.76 -1.84c 0.016 -0.128 0.096 -0.192 0.256 -0.192c 0.176 0 0.272 0.144 0.272 0.432v 1.584c 0 0.304 -0.08 0.448 -0.24 0.448c -0.176 0 -0.416 -0.288 -0.576 -0.416c -0.4 0.272 -0.896 0.416 -1.472 0.416c -1.424 0 -2.56 -0.64 -2.56 -2c 0 -0.544 0.224 -1.008 0.688 -1.376c 0.56 -0.464 1.088 -0.56 2.096 -0.736c 1.04 -0.208 1.568 -0.672 1.568 -1.392c 0 -0.912 -0.56 -1.376 -1.696 -1.376c -1.104 0 -1.808 0.736 -2.112 2.192c -0.048 0.208 -0.128 0.32 -0.272 0.32c -0.176 0 -0.272 -0.16 -0.272 -0.464v -2.064c 0 -0.304 0.08 -0.448 0.24 -0.448c 0.048 0 0.128 0.048 0.256 0.16c 0.288 0.256 0.16 0.208 0.448 0.496c 0.464 -0.432 1.04 -0.656 1.712 -0.656c 1.52 0 2.576 0.784 2.576 2.256Z "/></symbol><symbol id="gFE76948C2BAC56DB366E75C5D3E395C9" overflow="visible"><path d="M 0 0m 5.088 -3.968c 0.144 0 0.224 0.08 0.224 0.224c 0 0.048 -0.032 0.112 -0.08 0.176c -0.832 0.64 -1.504 1.696 -2 3.152c -0.432 1.264 -0.656 2.512 -0.656 3.744v 1.344c 0 1.232 0.224 2.48 0.656 3.744c 0.496 1.456 1.168 2.512 2 3.152c 0.048 0.048 0.08 0.112 0.08 0.176c 0 0.144 -0.08 0.224 -0.224 0.224c -0.016 0 -0.064 -0.016 -0.112 -0.048c -0.96 -0.736 -1.76 -1.824 -2.416 -3.28c -0.624 -1.392 -0.944 -2.704 -0.944 -3.968v -1.344c 0 -1.264 0.32 -2.576 0.944 -3.968c 0.656 -1.456 1.456 -2.544 2.416 -3.28c 0.048 -0.032 0.096 -0.048 0.112 -0.048Z "/></symbol><symbol id="g7F1CDFC9C50812C85F36807E567EABDF" overflow="visible"><path d="M 0 0m 6.752 0.048c 0.32 0.016 0.8 0 1.424 -0.048v 0.624c -0.384 0 -0.672 0.048 -0.864 0.128c -0.192 0.08 -0.416 0.304 -0.672 0.672l -2 2.832c -0.048 0.144 -0.08 0.192 -0.08 0.144c 0 0.016 0.16 0.16 0.496 0.448c 0.56 0.496 0.976 0.816 1.248 0.992c 0.496 0.304 0.992 0.464 1.504 0.496v 0.608c -0.336 -0.032 -0.72 -0.048 -1.152 -0.048c -0.736 0 -1.344 0.016 -1.84 0.048v -0.608c 0.304 -0.016 0.464 -0.128 0.464 -0.336c 0 -0.192 -0.112 -0.384 -0.32 -0.576l -2.112 -1.84v 7.52l -2.4 -0.176v -0.608c 0.576 0 0.928 -0.048 1.056 -0.144c 0.128 -0.096 0.176 -0.32 0.176 -0.688v -8.224c 0 -0.304 -0.064 -0.496 -0.176 -0.56c -0.112 -0.064 -0.464 -0.08 -1.056 -0.08v -0.624l 1.776 0.048l 1.792 -0.048v 0.624c -0.592 0 -0.928 0.016 -1.04 0.08c -0.112 0.064 -0.176 0.256 -0.176 0.56v 1.6l 0.928 0.816l 0.256 -0.384c 1.04 -1.44 1.568 -2.24 1.568 -2.384c 0 -0.192 -0.192 -0.288 -0.576 -0.288v -0.624Z "/></symbol><symbol id="gA3525D446D3D83A5B7E735BB6646CDBD" overflow="visible"><path d="M 0 0m 6.688 0.048c 0.368 0.016 0.896 0 1.568 -0.048v 0.608c -0.848 0 -1.168 0.016 -1.504 0.464l -2.08 2.688c 0.688 0.848 1.152 1.424 1.408 1.728c 0.448 0.512 1.072 0.784 1.888 0.8v 0.608c -0.448 -0.032 -0.896 -0.048 -1.344 -0.048c -0.592 0 -1.12 0.016 -1.584 0.048v -0.608c 0.304 -0.032 0.464 -0.176 0.464 -0.432c 0 -0.144 -0.08 -0.32 -0.224 -0.512l -0.928 -1.152l -1.184 1.52c -0.08 0.112 -0.128 0.192 -0.128 0.24c 0 0.208 0.192 0.32 0.56 0.336v 0.608l -1.776 -0.048c -0.416 -0.016 -0.928 0 -1.552 0.048v -0.608c 0.576 0 0.944 -0.048 1.104 -0.128c 0.16 -0.08 0.416 -0.352 0.768 -0.816l 1.52 -1.984c -0.784 -1.008 -1.264 -1.616 -1.44 -1.824c -0.512 -0.624 -1.184 -0.928 -2.032 -0.928v -0.608c 0.592 0.048 1.04 0.064 1.376 0.048l 1.552 -0.048v 0.608c -0.304 0.048 -0.448 0.192 -0.448 0.432c 0 0.064 0.016 0.144 0.048 0.224c 0.096 0.208 0.528 0.752 1.296 1.664l 1.152 -1.504c 0.176 -0.224 0.272 -0.384 0.32 -0.48c 0 -0.208 -0.192 -0.32 -0.576 -0.336v -0.608Z "/></symbol><symbol id="g4A60CE28263A0313E2F1F2501A07CE8B" overflow="visible"><path d="M 0 0m 1.248 -3.92c 0.96 0.736 1.76 1.824 2.416 3.28c 0.624 1.392 0.944 2.704 0.944 3.968v 1.344c 0 1.264 -0.32 2.576 -0.944 3.968c -0.656 1.456 -1.456 2.544 -2.416 3.28c -0.048 0.032 -0.096 0.048 -0.112 0.048c -0.144 0 -0.224 -0.08 -0.224 -0.224c 0 -0.064 0.032 -0.128 0.08 -0.176c 0.832 -0.64 1.504 -1.696 2 -3.152c 0.432 -1.264 0.656 -2.512 0.656 -3.744v -1.344c 0 -1.232 -0.224 -2.48 -0.656 -3.744c -0.496 -1.456 -1.168 -2.512 -2 -3.152c -0.048 -0.064 -0.08 -0.128 -0.08 -0.176c 0 -0.144 0.08 -0.224 0.224 -0.224c 0.016 0 0.064 0.016 0.112 0.048Z "/></symbol><symbol id="gD1F745F93AA9122F5DF54DDA8243F5F3" overflow="visible"><path d="M 0 0m 11.168 4.384h -4.56v 4.56c 0 0.256 -0.128 0.384 -0.384 0.384c -0.256 0 -0.384 -0.128 -0.384 -0.384v -4.56h -4.56c -0.256 0 -0.384 -0.128 -0.384 -0.384c 0 -0.256 0.128 -0.384 0.384 -0.384h 4.56v -4.56c 0 -0.256 0.128 -0.384 0.384 -0.384c 0.256 0 0.384 0.128 0.384 0.384v 4.56h 4.56c 0.256 0 0.384 0.128 0.384 0.384c 0 0.208 -0.176 0.384 -0.384 0.384Z "/></symbol><symbol id="g64AA6D97DC384EDB5F6925C9B5CF4089" overflow="visible"><path d="M 0 0m 1.808 -3.28c 0.88 0 1.584 0.608 2.08 1.84l 2.768 6.752c 0.272 0.64 0.752 0.96 1.472 0.96v 0.624c -0.528 -0.048 -0.944 -0.064 -1.248 -0.048l -1.424 0.048v -0.608c 0.496 -0.016 0.736 -0.224 0.736 -0.624c 0 -0.096 -0.032 -0.208 -0.096 -0.352l -1.52 -3.744l -1.696 4.096c -0.048 0.128 -0.08 0.224 -0.096 0.272c 0 0.224 0.304 0.336 0.896 0.336v 0.624l -1.792 -0.048c -0.384 -0.016 -0.912 0 -1.584 0.048v -0.624c 0.848 0 1.056 0.032 1.28 -0.512l 2.352 -5.744l -0.384 -0.896c -0.432 -1.024 -0.736 -1.92 -1.744 -1.92c -0.224 0 -0.416 0.064 -0.592 0.176c 0.368 0.08 0.544 0.32 0.544 0.704c 0 0.48 -0.24 0.72 -0.736 0.72c -0.48 0 -0.72 -0.24 -0.72 -0.736c 0 -0.784 0.72 -1.344 1.504 -1.344Z "/></symbol><symbol id="gDBFAE06AF79FDD9C3E51928051970166" overflow="visible"><path d="M 0 0m 0.912 0h 5.232l 0.272 3.056h -0.512c -0.08 -0.992 -0.24 -1.664 -0.528 -2.016c -0.288 -0.352 -0.848 -0.528 -1.696 -0.528h -1.728l 4.272 5.808c 0.112 0.144 0.16 0.24 0.16 0.304c 0 0.176 -0.16 0.272 -0.464 0.272h -5.072l -0.192 -2.656h 0.528c 0.048 0.88 0.208 1.456 0.464 1.744c 0.256 0.288 0.784 0.448 1.584 0.448h 1.664l -4.288 -5.824c -0.112 -0.144 -0.16 -0.24 -0.16 -0.32c 0 -0.272 0.112 -0.288 0.464 -0.288Z "/></symbol><symbol id="gC0832B6C2AF3D05AA2320B6E93F37B72" overflow="visible"><path d="M 0 0m 0.72 -4h 1.904v 16h -1.904c -0.24 0 -0.368 -0.128 -0.368 -0.384c 0 -0.256 0.128 -0.384 0.368 -0.384h 1.184v -14.464h -1.184c -0.24 0 -0.368 -0.128 -0.368 -0.384c 0 -0.256 0.128 -0.384 0.368 -0.384Z "/></symbol><symbol id="gDC2710B0DEEB8F8A015586148491CBF8" overflow="visible"><path d="M 0 0m 5.648 10.832c -0.144 0 -0.272 -0.08 -0.368 -0.224l -4.832 -7.424v -0.576h 4.176v -1.312c 0 -0.288 -0.064 -0.48 -0.176 -0.56c -0.112 -0.08 -0.416 -0.112 -0.944 -0.112h -0.4v -0.624c 0.464 0.032 1.2 0.048 2.192 0.048c 0.992 0 1.728 -0.016 2.192 -0.048v 0.624h -0.4c -0.528 0 -0.832 0.032 -0.944 0.112c -0.112 0.08 -0.176 0.272 -0.176 0.56v 1.312h 1.568v 0.624h -1.568v 7.328c 0 0.16 -0.112 0.272 -0.32 0.272Z m -0.928 -1.984v -5.616h -3.648Z "/></symbol><symbol id="gF0099E97FCE47D86CFFAA01886DF78DA" overflow="visible"><path d="M 0 0m 11.168 5.872h -9.888c -0.256 0 -0.384 -0.128 -0.384 -0.368c 0 -0.24 0.128 -0.368 0.384 -0.368h 9.888c 0.256 0 0.384 0.128 0.384 0.368c 0 0.192 -0.176 0.368 -0.384 0.368Z m 0 -3.008h -9.888c -0.256 0 -0.384 -0.128 -0.384 -0.368c 0 -0.24 0.128 -0.368 0.384 -0.368h 9.888c 0.256 0 0.384 0.128 0.384 0.368c 0 0.208 -0.176 0.368 -0.384 0.368Z "/></symbol><symbol id="gEEA27574DB27C08E1CA07C210D64160F" overflow="visible"><path d="M 0 0m 3.984 -0.352c 2.256 0 3.376 1.824 3.376 5.472c 0 2.448 -0.512 4.08 -1.52 4.88c -0.56 0.432 -1.184 0.656 -1.84 0.656c -2.256 0 -3.376 -1.84 -3.376 -5.536c 0 -2.944 0.784 -5.472 3.36 -5.472Z m 1.792 8.736c 0.112 -0.56 0.16 -1.584 0.16 -3.072c 0 -1.472 -0.064 -2.56 -0.176 -3.264c -0.208 -1.28 -0.8 -1.92 -1.776 -1.92c -0.368 0 -0.736 0.144 -1.072 0.416c -0.432 0.368 -0.688 1.12 -0.8 2.272c -0.048 0.4 -0.064 1.232 -0.064 2.496c 0 1.392 0.048 2.368 0.128 2.896c 0.144 0.88 0.432 1.44 0.88 1.68c 0.352 0.192 0.656 0.288 0.928 0.288c 1.04 0 1.616 -0.848 1.792 -1.792Z "/></symbol><symbol id="g8C34A5E102379CA54DADE164EA618DB" overflow="visible"><path d="M 0 0m 6.672 6.144v -3.924c 0 -0.228 0 -0.36 -0.084 -0.36c -0.048 0 -0.228 0.216 -0.576 0.66l -4.116 5.22l -1.62 0.024c -0.072 -0.072 -0.072 -0.324 0 -0.396c 0.516 -0.036 0.876 -0.456 0.948 -0.768v -5.004c 0 -1.068 -0.204 -1.14 -1.044 -1.224c -0.072 -0.072 -0.072 -0.324 0 -0.396c 0.516 0.012 1.056 0.024 1.344 0.024c 0.276 0 0.828 -0.012 1.332 -0.024c 0.072 0.072 0.072 0.324 0 0.396c -0.84 0.084 -1.044 0.132 -1.044 1.224v 3.672c 0 0.408 0 0.588 0.096 0.588c 0.072 0 0.204 -0.132 0.408 -0.396l 4.188 -5.292c 0.132 -0.18 0.288 -0.288 0.48 -0.288c 0.168 0 0.276 0.144 0.276 0.372v 5.892c 0 1.068 0.204 1.14 1.044 1.224c 0.072 0.072 0.072 0.324 0 0.396c -0.492 -0.012 -1.056 -0.024 -1.344 -0.024c -0.252 0 -0.804 0.012 -1.332 0.024c -0.072 -0.072 -0.072 -0.324 0 -0.396c 0.84 -0.084 1.044 -0.132 1.044 -1.224Z "/></symbol><symbol id="g30001D7828CC398501D0D953534F2217" overflow="visible"><path d="M 0 0m 4.632 1.116c -0.444 -0.456 -0.792 -0.648 -1.488 -0.648c -0.432 0 -0.936 0.252 -1.308 0.864c -0.24 0.396 -0.384 0.948 -0.384 1.644l 3.192 -0.024c 0.144 0 0.228 0.072 0.228 0.204c 0 1.008 -0.36 2.088 -2.028 2.088c -1.044 0 -2.4 -0.996 -2.4 -2.82c 0 -0.672 0.168 -1.32 0.564 -1.776c 0.408 -0.48 0.972 -0.768 1.836 -0.768c 0.912 0 1.56 0.42 2.04 1.044c -0.036 0.12 -0.108 0.18 -0.252 0.192Z m -3.144 2.268c 0.228 1.356 1.068 1.464 1.356 1.464c 0.456 0 0.996 -0.252 0.996 -1.26c 0 -0.108 -0.048 -0.168 -0.18 -0.168Z "/></symbol><symbol id="gDEDC019FF1F409029582831C73222AA3" overflow="visible"><path d="M 0 0m 0.492 2.46c 0 -1.224 0.816 -2.58 2.52 -2.58c 0.768 0 1.356 0.276 1.764 0.672c 0.54 0.528 0.78 1.284 0.78 2.016c 0 1.248 -0.684 2.7 -2.52 2.7c -0.792 0 -1.44 -0.324 -1.884 -0.84c -0.432 -0.516 -0.66 -1.212 -0.66 -1.968Z m 2.364 2.388c 1.032 0 1.668 -0.936 1.668 -2.664c 0 -1.512 -0.78 -1.884 -1.344 -1.884c -1.248 0 -1.656 1.512 -1.656 2.436c 0 1.044 0.252 2.112 1.332 2.112Z "/></symbol><symbol id="g5723DCFBFCE5C740FA2BDFF816BBC144" overflow="visible"><path d="M 0 0m 3.9 4.776c 0.648 -0.048 0.72 -0.192 0.468 -0.804l -0.972 -2.352c -0.192 -0.468 -0.252 -0.468 -0.444 0.036l -0.864 2.316c -0.216 0.576 -0.264 0.72 0.372 0.804c 0.072 0.072 0.072 0.324 0 0.396c -0.396 -0.012 -0.816 -0.024 -1.212 -0.024c -0.396 0 -0.756 0.012 -1.116 0.024c -0.072 -0.072 -0.072 -0.324 0 -0.396c 0.636 -0.072 0.72 -0.264 0.96 -0.876l 1.536 -3.792c 0.072 -0.18 0.144 -0.252 0.3 -0.252c 0.12 0 0.204 0.072 0.288 0.276l 1.596 3.756c 0.228 0.528 0.36 0.828 1.032 0.888c 0.072 0.072 0.072 0.324 0 0.396c -0.24 -0.012 -0.528 -0.024 -0.84 -0.024c -0.396 0 -0.804 0.012 -1.104 0.024c -0.072 -0.072 -0.072 -0.324 0 -0.396Z "/></symbol><symbol id="g289ED535C508AEA31A604F0DADFA8DC1" overflow="visible"><path d="M 0 0m 2.172 1.464v 2.388c 0 0.6 0.048 1.368 0.048 1.368c 0 0.048 -0.06 0.084 -0.156 0.084c -0.336 -0.132 -0.816 -0.24 -1.644 -0.348c -0.024 -0.072 0 -0.264 0.024 -0.336c 0.66 -0.06 0.78 -0.132 0.78 -0.816v -2.34c 0 -0.996 -0.132 -1.032 -0.864 -1.092c -0.072 -0.072 -0.072 -0.324 0 -0.396c 0.396 0.012 0.864 0.024 1.344 0.024c 0.48 0 0.936 -0.012 1.332 -0.024c 0.072 0.072 0.072 0.324 0 0.396c -0.732 0.048 -0.864 0.096 -0.864 1.092Z m -1.092 5.724c 0 -0.312 0.288 -0.624 0.576 -0.624c 0.336 0 0.624 0.324 0.624 0.576c 0 0.288 -0.252 0.624 -0.576 0.624c -0.288 0 -0.624 -0.288 -0.624 -0.576Z "/></symbol><symbol id="gFEBA94A6A36FE679041CEBCA8D53F665" overflow="visible"><path d="M 0 0m 2.604 -0.12c 0.468 0 1.032 0.24 1.62 0.72c 0.06 0.048 0.168 0.072 0.18 -0.012c 0.036 -0.3 0.132 -0.708 0.132 -0.708c 0.096 -0.036 0.156 -0.024 0.228 0c 0.264 0.216 0.684 0.396 1.416 0.48c 0.072 0.072 0.072 0.252 0 0.324c -0.768 0.06 -0.876 0.288 -0.876 0.876v 2.304c 0 0.36 0.048 1.236 0.048 1.236c 0 0.036 -0.036 0.072 -0.096 0.072c -0.06 -0.012 -0.24 -0.024 -0.42 -0.024c -0.384 0 -0.816 0.012 -1.224 0.024c -0.072 -0.072 -0.072 -0.324 0 -0.396c 0.588 -0.036 0.744 -0.18 0.744 -0.972v -2.316c 0 -0.228 -0.024 -0.324 -0.192 -0.468c -0.444 -0.384 -0.9 -0.576 -1.2 -0.576c -0.36 0 -0.96 0.168 -0.96 1.236v 2.184c 0 0.36 0.048 1.236 0.048 1.236c 0 0.036 -0.036 0.072 -0.096 0.072c -0.06 -0.012 -0.24 -0.024 -0.42 -0.024c -0.384 0 -0.816 0.012 -1.224 0.024c -0.072 -0.072 -0.072 -0.324 0 -0.396c 0.576 -0.048 0.744 -0.18 0.744 -0.96v -2.304c 0 -0.828 0.36 -1.632 1.548 -1.632Z "/></symbol><symbol id="g2CAEDCB9708166472B607F1B64064810" overflow="visible"><path d="M 0 0m 0.576 1.656c 0.048 -0.588 0.084 -1.152 0.084 -1.656c 0.12 0.024 0.24 0.036 0.3 0.036c 0.084 0 0.156 0 0.24 -0.024c 0.324 -0.084 0.648 -0.132 1.092 -0.132c 0.672 0 1.908 0.324 1.908 1.512c 0 0.816 -0.588 1.296 -1.404 1.596c -0.72 0.276 -1.2 0.456 -1.2 1.116c 0 0.492 0.432 0.768 0.84 0.768c 0.264 0 0.96 -0.096 1.116 -1.116c 0.072 -0.072 0.312 -0.06 0.384 0.012c 0.036 0.432 0.06 0.876 0.072 1.272c -0.372 0.06 -0.948 0.228 -1.572 0.228c -0.888 0 -1.692 -0.576 -1.692 -1.344c 0 -0.876 0.396 -1.248 1.32 -1.632c 0.996 -0.408 1.224 -0.66 1.224 -1.176c 0 -0.588 -0.576 -0.84 -1.02 -0.84c -0.468 0 -0.732 0.156 -0.852 0.288c -0.264 0.276 -0.396 0.804 -0.468 1.104c -0.072 0.072 -0.3 0.06 -0.372 -0.012Z "/></symbol></defs></svg>