<svg viewBox="0 0 791.872 72.152" width="791.872pt" height="72.152pt" xmlns="http://www.w3.org/2000/svg" xmlns:xlink="http://www.w3.org/1999/xlink" xmlns:h5="http://www.w3.org/1999/xhtml"><g transform="matrix(1 0 0 -1 20 23.32)"><use xlink:href="#g24DE49A13CDC41C2938F6A46FEBE412" x="0" y="0" fill="#e0e0e0" fill-rule="nonzero"/><use xlink:href="#gB961DF2D72343F15FFACB9292F3E3495" x="6.832" y="0" fill="#e0e0e0" fill-rule="nonzero"/><use xlink:href="#gCB9A71EB920C461BD1B2AF5BFD4CBB8E" x="14.128" y="0" fill="#e0e0e0" fill-rule="nonzero"/><use xlink:href="#gFA5E099F827298ECACF5BACC82664FF7" x="24.032" y="0" fill="#e0e0e0" fill-rule="nonzero"/><use xlink:href="#g93C47B6E2C658313C4D527F43DE01E01" x="36.464" y="0" fill="#e0e0e0" fill-rule="nonzero"/><use xlink:href="#g61A0002E42392354EB85782A553A6EEE" x="44.56" y="0" fill="#e0e0e0" fill-rule="nonzero"/><use xlink:href="#g1BE338DD2F7C6DA6E7FAEE3EC879055B" x="51.408" y="0" fill="#e0e0e0" fill-rule="nonzero"/><use xlink:href="#g7F7C024FAF4D2294907C4143ABA88D1F" x="58.64" y="0" fill="#e0e0e0" fill-rule="nonzero"/><use xlink:href="#g3421F383F5463C054AA2595D6837E6A5" x="64.368" y="0" fill="#e0e0e0" fill-rule="nonzero"/></g><g transform="matrix(1 0 0 -1 20 41.288)"><use xlink:href="#g6B2BD8417A153D7B2322B2C53F78B77D" x="0" y="0" fill="#e0e0e0" fill-rule="nonzero"/><use xlink:href="#gDB5A245C5132F56829007895C751A9B9" x="6.304" y="0" fill="#e0e0e0" fill-rule="nonzero"/><use xlink:href="#g2D6E657268474CEE13627634B0892604" x="10.752" y="0" fill="#e0e0e0" fill-rule="nonzero"/><use xlink:href="#gFE76948C2BAC56DB366E75C5D3E395C9" x="19.648" y="0" fill="#e0e0e0" fill-rule="nonzero"/><use xlink:href="#g7F1CDFC9C50812C85F36807E567EABDF" x="25.872" y="0" fill="#e0e0e0" fill-rule="nonzero"/><use xlink:href="#gA3525D446D3D83A5B7E735BB6646CDBD" x="34.32" y="0" fill="#e0e0e0" fill-rule="nonzero"/><use xlink:href="#g4A60CE28263A0313E2F1F2501A07CE8B" x="42.768" y="0" fill="#e0e0e0" fill-rule="nonzero"/><use xlink:href="#g6B2BD8417A153D7B2322B2C53F78B77D" x="54.304" y="0" fill="#e0e0e0" fill-rule="nonzero"/><use xlink:href="#gDB5A245C5132F56829007895C751A9B9" x="60.608" y="0" fill="#e0e0e0" fill-rule="nonzero"/><use xlink:href="#g2D6E657268474CEE13627634B0892604" x="65.056" y="0" fill="#e0e0e0" fill-rule="nonzero"/><use xlink:href="#gFE76948C2BAC56DB366E75C5D3E395C9" x="73.952" y="0" fill="#e0e0e0" fill-rule="nonzero"/><use xlink:href="#g7F1CDFC9C50812C85F36807E567EABDF" x="80.176" y="0" fill="#e0e0e0" fill-rule="nonzero"/><use xlink:href="#g64AA6D97DC384EDB5F6925C9B5CF4089" x="88.624" y="0" fill="#e0e0e0" fill-rule="nonzero"/><use xlink:href="#g4A60CE28263A0313E2F1F2501A07CE8B" x="97.072" y="0" fill="#e0e0e0" fill-rule="nonzero"/><use xlink:href="#g6B2BD8417A153D7B2322B2C53F78B77D" x="108.608" y="0" fill="#e0e0e0" fill-rule="nonzero"/><use xlink:href="#gDB5A245C5132F56829007895C751A9B9" x="114.912" y="0" fill="#e0e0e0" fill-rule="nonzero"/><use xlink:href="#g2D6E657268474CEE13627634B0892604" x="119.36" y="0" fill="#e0e0e0" fill-rule="nonzero"/><use xlink:href="#gFE76948C2BAC56DB366E75C5D3E395C9" x="128.256" y="0" fill="#e0e0e0" fill-rule="nonzero"/><use xlink:href="#g7F1CDFC9C50812C85F36807E567EABDF" x="134.48" y="0" fill="#e0e0e0" fill-rule="nonzero"/><use xlink:href="#gDBFAE06AF79FDD9C3E51928051970166" x="142.928" y="0" fill="#e0e0e0" fill-rule="nonzero"/><use xlink:href="#g4A60CE28263A0313E2F1F2501A07CE8B" x="150.032" y="0" fill="#e0e0e0" fill-rule="nonzero"/><use xlink:href="#gD1F745F93AA9122F5DF54DDA8243F5F3" x="161.568" y="0" fill="#e0e0e0" fill-rule="nonzero"/><use xlink:href="#g6B2BD8417A153D7B2322B2C53F78B77D" x="179.328" y="0" fill="#e0e0e0" fill-rule="nonzero"/><use xlink:href="#gDB5A245C5132F56829007895C751A9B9" x="185.632" y="0" fill="#e0e0e0" fill-rule="nonzero"/><use xlink:href="#g2D6E657268474CEE13627634B0892604" x="190.08" y="0" fill="#e0e0e0" fill-rule="nonzero"/><use xlink:href="#gFE76948C2BAC56DB366E75C5D3E395C9" x="198.976" y="0" fill="#e0e0e0" fill-rule="nonzero"/><use xlink:href="#g7F1CDFC9C50812C85F36807E567EABDF" x="205.2" y="0" fill="#e0e0e0" fill-rule="nonzero"/><use xlink:href="#gA3525D446D3D83A5B7E735BB6646CDBD" x="213.648" y="0" fill="#e0e0e0" fill-rule="nonzero"/><use xlink:href="#g4A60CE28263A0313E2F1F2501A07CE8B" x="222.096" y="0" fill="#e0e0e0" fill-rule="nonzero"/><use xlink:href="#g6962E09401F6289A28317FAA8E7FC9C1" x="233.632" y="0" fill="#e0e0e0" fill-rule="nonzero"/><use xlink:href="#gB655B06F60CB612733AD7B4C8BAD552D" x="240.736" y="0" fill="#e0e0e0" fill-rule="nonzero"/><use xlink:href="#g6B2BD8417A153D7B2322B2C53F78B77D" x="248.736" y="0" fill="#e0e0e0" fill-rule="nonzero"/><use xlink:href="#gFE76948C2BAC56DB366E75C5D3E395C9" x="255.04" y="0" fill="#e0e0e0" fill-rule="nonzero"/><use xlink:href="#g7F1CDFC9C50812C85F36807E567EABDF" x="261.264" y="0" fill="#e0e0e0" fill-rule="nonzero"/><use xlink:href="#g64AA6D97DC384EDB5F6925C9B5CF4089" x="269.712" y="0" fill="#e0e0e0" fill-rule="nonzero"/><use xlink:href="#g4A60CE28263A0313E2F1F2501A07CE8B" x="278.16" y="0" fill="#e0e0e0" fill-rule="nonzero"/><use xlink:href="#g6962E09401F6289A28317FAA8E7FC9C1" x="289.696" y="0" fill="#e0e0e0" fill-rule="nonzero"/><use xlink:href="#gB655B06F60CB612733AD7B4C8BAD552D" x="296.8" y="0" fill="#e0e0e0" fill-rule="nonzero"/><use xlink:href="#g6B2BD8417A153D7B2322B2C53F78B77D" x="304.8" y="0" fill="#e0e0e0" fill-rule="nonzero"/><use xlink:href="#gFE76948C2BAC56DB366E75C5D3E395C9" x="311.104" y="0" fill="#e0e0e0" fill-rule="nonzero"/><use xlink:href="#g7F1CDFC9C50812C85F36807E567EABDF" x="317.328" y="0" fill="#e0e0e0" fill-rule="nonzero"/><use xlink:href="#gDBFAE06AF79FDD9C3E51928051970166" x="325.776" y="0" fill="#e0e0e0" fill-rule="nonzero"/><use xlink:href="#g4A60CE28263A0313E2F1F2501A07CE8B" x="332.88" y="0" fill="#e0e0e0" fill-rule="nonzero"/><use xlink:href="#gD1F745F93AA9122F5DF54DDA8243F5F3" x="344.416" y="0" fill="#e0e0e0" fill-rule="nonzero"/><use xlink:href="#g6962E09401F6289A28317FAA8E7FC9C1" x="362.176" y="0" fill="#e0e0e0" fill-rule="nonzero"/><use xlink:href="#gB655B06F60CB612733AD7B4C8BAD552D" x="369.28" y="0" fill="#e0e0e0" fill-rule="nonzero"/><use xlink:href="#g6B2BD8417A153D7B2322B2C53F78B77D" x="377.28" y="0" fill="#e0e0e0" fill-rule="nonzero"/><use xlink:href="#gFE76948C2BAC56DB366E75C5D3E395C9" x="383.584" y="0" fill="#e0e0e0" fill-rule="nonzero"/><use xlink:href="#g7F1CDFC9C50812C85F36807E567EABDF" x="389.808" y="0" fill="#e0e0e0" fill-rule="nonzero"/><use xlink:href="#gA3525D446D3D83A5B7E735BB6646CDBD" x="398.256" y="0" fill="#e0e0e0" fill-rule="nonzero"/><use xlink:href="#g4A60CE28263A0313E2F1F2501A07CE8B" x="406.704" y="0" fill="#e0e0e0" fill-rule="nonzero"/><use xlink:href="#g6B2BD8417A153D7B2322B2C53F78B77D" x="418.24" y="0" fill="#e0e0e0" fill-rule="nonzero"/><use xlink:href="#gDB5A245C5132F56829007895C751A9B9" x="424.544" y="0" fill="#e0e0e0" fill-rule="nonzero"/><use xlink:href="#g2D6E657268474CEE13627634B0892604" x="428.992" y="0" fill="#e0e0e0" fill-rule="nonzero"/><use xlink:href="#gFE76948C2BAC56DB366E75C5D3E395C9" x="437.888" y="0" fill="#e0e0e0" fill-rule="nonzero"/><use xlink:href="#g7F1CDFC9C50812C85F36807E567EABDF" x="444.112" y="0" fill="#e0e0e0" fill-rule="nonzero"/><use xlink:href="#g64AA6D97DC384EDB5F6925C9B5CF4089" x="452.56" y="0" fill="#e0e0e0" fill-rule="nonzero"/><use xlink:href="#g4A60CE28263A0313E2F1F2501A07CE8B" x="461.008" y="0" fill="#e0e0e0" fill-rule="nonzero"/><use xlink:href="#g6962E09401F6289A28317FAA8E7FC9C1" x="472.544" y="0" fill="#e0e0e0" fill-rule="nonzero"/><use xlink:href="#gB655B06F60CB612733AD7B4C8BAD552D" x="479.648" y="0" fill="#e0e0e0" fill-rule="nonzero"/><use xlink:href="#g6B2BD8417A153D7B2322B2C53F78B77D" x="487.648" y="0" fill="#e0e0e0" fill-rule="nonzero"/><use xlink:href="#gFE76948C2BAC56DB366E75C5D3E395C9" x="493.952" y="0" fill="#e0e0e0" fill-rule="nonzero"/><use xlink:href="#g7F1CDFC9C50812C85F36807E567EABDF" x="500.176" y="0" fill="#e0e0e0" fill-rule="nonzero"/><use xlink:href="#gDBFAE06AF79FDD9C3E51928051970166" x="508.624" y="0" fill="#e0e0e0" fill-rule="nonzero"/><use xlink:href="#g4A60CE28263A0313E2F1F2501A07CE8B" x="515.728" y="0" fill="#e0e0e0" fill-rule="nonzero"/><use xlink:href="#gD1F745F93AA9122F5DF54DDA8243F5F3" x="527.264" y="0" fill="#e0e0e0" fill-rule="nonzero"/><use xlink:href="#g6962E09401F6289A28317FAA8E7FC9C1" x="545.024" y="0" fill="#e0e0e0" fill-rule="nonzero"/><use xlink:href="#gB655B06F60CB612733AD7B4C8BAD552D" x="552.128" y="0" fill="#e0e0e0" fill-rule="nonzero"/><use xlink:href="#g6B2BD8417A153D7B2322B2C53F78B77D" x="560.128" y="0" fill="#e0e0e0" fill-rule="nonzero"/><use xlink:href="#gFE76948C2BAC56DB366E75C5D3E395C9" x="566.432" y="0" fill="#e0e0e0" fill-rule="nonzero"/><use xlink:href="#g7F1CDFC9C50812C85F36807E567EABDF" x="572.656" y="0" fill="#e0e0e0" fill-rule="nonzero"/><use xlink:href="#gA3525D446D3D83A5B7E735BB6646CDBD" x="581.104" y="0" fill="#e0e0e0" fill-rule="nonzero"/><use xlink:href="#g4A60CE28263A0313E2F1F2501A07CE8B" x="589.552" y="0" fill="#e0e0e0" fill-rule="nonzero"/><use xlink:href="#g6962E09401F6289A28317FAA8E7FC9C1" x="601.088" y="0" fill="#e0e0e0" fill-rule="nonzero"/><use xlink:href="#gB655B06F60CB612733AD7B4C8BAD552D" x="608.192" y="0" fill="#e0e0e0" fill-rule="nonzero"/><use xlink:href="#g6B2BD8417A153D7B2322B2C53F78B77D" x="616.192" y="0" fill="#e0e0e0" fill-rule="nonzero"/><use xlink:href="#gFE76948C2BAC56DB366E75C5D3E395C9" x="622.496" y="0" fill="#e0e0e0" fill-rule="nonzero"/><use xlink:href="#g7F1CDFC9C50812C85F36807E567EABDF" x="628.72" y="0" fill="#e0e0e0" fill-rule="nonzero"/><use xlink:href="#g64AA6D97DC384EDB5F6925C9B5CF4089" x="637.168" y="0" fill="#e0e0e0" fill-rule="nonzero"/><use xlink:href="#g4A60CE28263A0313E2F1F2501A07CE8B" x="645.616" y="0" fill="#e0e0e0" fill-rule="nonzero"/><use xlink:href="#g6B2BD8417A153D7B2322B2C53F78B77D" x="657.152" y="0" fill="#e0e0e0" fill-rule="nonzero"/><use xlink:href="#gDB5A245C5132F56829007895C751A9B9" x="663.456" y="0" fill="#e0e0e0" fill-rule="nonzero"/><use xlink:href="#g2D6E657268474CEE13627634B0892604" x="667.904" y="0" fill="#e0e0e0" fill-rule="nonzero"/><use xlink:href="#gFE76948C2BAC56DB366E75C5D3E395C9" x="676.8" y="0" fill="#e0e0e0" fill-rule="nonzero"/><use xlink:href="#g7F1CDFC9C50812C85F36807E567EABDF" x="683.024" y="0" fill="#e0e0e0" fill-rule="nonzero"/><use xlink:href="#gDBFAE06AF79FDD9C3E51928051970166" x="691.472" y="0" fill="#e0e0e0" fill-rule="nonzero"/><use xlink:href="#g4A60CE28263A0313E2F1F2501A07CE8B" x="698.576" y="0" fill="#e0e0e0" fill-rule="nonzero"/><use xlink:href="#gF0099E97FCE47D86CFFAA01886DF78DA" x="710.112" y="0" fill="#e0e0e0" fill-rule="nonzero"/><use xlink:href="#gEEA27574DB27C08E1CA07C210D64160F" x="727.872" y="0" fill="#e0e0e0" fill-rule="nonzero"/></g><g transform="matrix(1 0 0 -1 20 59.152)"><use xlink:href="#gCD2A422B721EC165ADF1AD046FEAA4F5" x="0" y="0" fill="#999999" fill-rule="nonzero"/><use xlink:href="#g82AC2E51D964EFE9E0DB4B48AD0990AD" x="5.82" y="0" fill="#999999" fill-rule="nonzero"/><use xlink:href="#g261D98180777C8DD2F1A4AD87800C02B" x="10.956" y="0" fill="#999999" fill-rule="nonzero"/><use xlink:href="#gE9ACADB42D28DBA099623B4AE8D52B22" x="17.412" y="0" fill="#999999" fill-rule="nonzero"/><use xlink:href="#g8DDE925CCDC057959473A1B259BD0B2" x="26.376" y="0" fill="#999999" fill-rule="nonzero"/><use xlink:href="#g1BCB9C828DF030506619E4914135A997" x="31.86" y="0" fill="#999999" fill-rule="nonzero"/><use xlink:href="#g8B7961406E04CC575B5ED65D9B46760E" x="36.324" y="0" fill="#999999" fill-rule="nonzero"/><use xlink:href="#g118348B4FF47B5DD19B89283D3938805" x="44.412" y="0" fill="#999999" fill-rule="nonzero"/><use xlink:href="#gC718F7B3FEBDE5FBB71AFCF9D705B32C" x="55.824" y="0" fill="#999999" fill-rule="nonzero"/><use xlink:href="#g118348B4FF47B5DD19B89283D3938805" x="59.4" y="0" fill="#999999" fill-rule="nonzero"/><use xlink:href="#g289ED535C508AEA31A604F0DADFA8DC1" x="67.812" y="0" fill="#999999" fill-rule="nonzero"/><use xlink:href="#g8DDE925CCDC057959473A1B259BD0B2" x="71.064" y="0" fill="#999999" fill-rule="nonzero"/><use xlink:href="#g55A61ECC645EBF4C4CFC2CFFE578F745" x="76.548" y="0" fill="#999999" fill-rule="nonzero"/><use xlink:href="#gDEDC019FF1F409029582831C73222AA3" x="86.028" y="0" fill="#999999" fill-rule="nonzero"/><use xlink:href="#g2F2DE93C75BB70AB44F4889228F287DB" x="92.076" y="0" fill="#999999" fill-rule="nonzero"/><use xlink:href="#gA9D8AA38C81E5F63D053CA30FE947007" x="98.58" y="0" fill="#999999" fill-rule="nonzero"/><use xlink:href="#gD2D6418B9074FCF2C80BD3C34EA5A6FC" x="104.652" y="0" fill="#999999" fill-rule="nonzero"/></g><defs><symbol id="g24DE49A13CDC41C2938F6A46FEBE412" overflow="visible"><path d="M 0 0m 0.768 2.336c 0.064 -0.784 0.144 -1.536 0.272 -2.144c 0.304 -0.096 1.328 -0.352 2.224 -0.352c 1.232 0 2.768 0.672 2.768 2.064c 0 0.544 -0.128 0.976 -0.496 1.376c -0.448 0.512 -1.12 0.912 -1.856 1.232c -0.64 0.272 -0.864 0.784 -0.864 1.248c 0 0.368 0.304 0.672 0.768 0.672c 0.56 0 1.104 -0.512 1.504 -1.488c 0.288 -0.048 0.464 -0.032 0.624 0.08c 0 0.576 -0.064 1.184 -0.208 1.696c -0.512 0.224 -0.912 0.384 -1.792 0.384c -0.848 0 -1.648 -0.32 -2.16 -0.832c -0.368 -0.368 -0.544 -0.816 -0.544 -1.248c 0 -0.48 0.192 -0.864 0.496 -1.2c 0.496 -0.544 1.376 -1.104 1.856 -1.328c 0.64 -0.288 0.816 -0.864 0.816 -1.248c 0 -0.512 -0.512 -0.784 -0.944 -0.784c -0.72 0 -1.488 0.736 -1.824 1.904c -0.256 0.048 -0.384 0.032 -0.64 -0.032Z "/></symbol><symbol id="gB961DF2D72343F15FFACB9292F3E3495" overflow="visible"><path d="M 0 0m 6.752 1.392c 0 0.192 -0.032 0.496 -0.208 0.496c -0.64 -0.592 -1.184 -0.896 -1.648 -0.896c -1.2 0 -2.144 0.864 -2.144 2.784c 0 1.776 0.4 2.656 1.248 2.656c 0.592 0 0.832 -0.624 0.88 -1.136c 0.048 -0.432 0.48 -0.752 0.992 -0.752c 0.512 0 0.88 0.4 0.88 0.896c 0 0.72 -0.864 1.664 -2.608 1.664c -1.888 0 -3.552 -1.52 -3.552 -3.888c 0 -1.04 0.368 -1.952 0.992 -2.544c 0.624 -0.592 1.36 -0.832 2.496 -0.832c 0.96 0 2.064 0.672 2.672 1.552Z "/></symbol><symbol id="gCB9A71EB920C461BD1B2AF5BFD4CBB8E" overflow="visible"><path d="M 0 0m 8.448 2.048v 2.496c 0 1.76 -0.752 2.56 -2.128 2.56c -0.592 0 -1.728 -0.592 -2.64 -1.152v 3.376c 0 1.04 0.048 1.632 0.048 1.632c 0 0.144 -0.112 0.208 -0.256 0.208c -0.592 -0.192 -1.872 -0.368 -3.008 -0.416c -0.048 -0.192 -0.032 -0.368 0.048 -0.512c 1.008 -0.08 1.088 -0.096 1.088 -1.2v -7.008c 0 -1.328 -0.256 -1.472 -1.232 -1.52c -0.096 -0.096 -0.096 -0.448 0 -0.544c 0.672 0.016 1.392 0.032 2.272 0.032c 0.768 0 1.264 -0.016 1.952 -0.032c 0.096 0.096 0.096 0.448 0 0.544c -0.672 0.048 -0.912 0.192 -0.912 1.52v 3.28c 0.672 0.416 1.2 0.608 1.488 0.608c 0.64 0 1.2 -0.288 1.2 -1.2v -2.672c 0 -1.344 -0.256 -1.488 -0.912 -1.536c -0.096 -0.096 -0.096 -0.448 0 -0.544c 0.672 0.016 1.184 0.032 1.952 0.032c 0.88 0 1.584 -0.016 2.272 -0.032c 0.096 0.096 0.096 0.448 0 0.544c -0.976 0.048 -1.232 0.192 -1.232 1.536Z "/></symbol><symbol id="gFA5E099F827298ECACF5BACC82664FF7" overflow="visible"><path d="M 0 0m 7.712 5.296c -0.304 0.768 -0.496 1.472 -0.496 1.472c -0.288 -0.016 -0.592 -0.016 -0.896 0.016l -1.52 -4.224c -0.048 -0.112 -0.112 -0.144 -0.176 0.016l -0.912 2.72c -0.016 0.048 -0.032 0.08 -0.048 0.128c -0.224 0.672 -0.32 0.928 0.624 1.008c 0.096 0.096 0.096 0.448 0 0.544c -0.592 -0.016 -1.28 -0.032 -2.096 -0.032c -0.56 0 -1.376 0.016 -1.968 0.032c -0.096 -0.096 -0.096 -0.448 0 -0.544c 0.928 -0.112 0.976 -0.416 1.28 -1.232l 1.952 -5.056c 0.112 -0.304 0.32 -0.336 0.528 -0.336c 0.16 0 0.464 0.032 0.592 0.368l 1.504 3.952l 1.536 -3.984c 0.112 -0.288 0.416 -0.336 0.624 -0.336c 0.16 0 0.432 0.048 0.56 0.368l 1.968 4.88c 0.272 0.688 0.544 1.296 1.44 1.376c 0.096 0.096 0.096 0.448 0 0.544c -0.352 -0.016 -0.64 -0.032 -1.056 -0.032c -0.592 0 -1.28 0.016 -1.872 0.032c -0.096 -0.096 -0.096 -0.448 0 -0.544c 0.864 -0.064 0.944 -0.48 0.64 -1.264l -0.928 -2.528c -0.064 -0.192 -0.16 -0.176 -0.224 -0.016Z "/></symbol><symbol id="g93C47B6E2C658313C4D527F43DE01E01" overflow="visible"><path d="M 0 0m 4.72 0.784c 0.112 -0.656 0.544 -0.944 1.248 -0.944c 0.88 0 1.504 0.336 2.096 0.896c -0.032 0.192 -0.096 0.32 -0.288 0.448c -0.208 -0.16 -0.368 -0.224 -0.672 -0.224c -0.352 0 -0.448 0.288 -0.448 1.072l 0.032 2.304c 0 2.304 -1.424 2.768 -2.736 2.768c -1.168 0 -2.96 -0.672 -2.96 -1.728c 0 -0.448 0.192 -0.8 0.816 -0.8c 0.576 0 0.992 0.352 0.992 0.736c 0 0.08 -0.016 0.176 -0.032 0.272c -0.032 0.16 -0.064 0.32 -0.032 0.48c 0.016 0.176 0.144 0.368 0.672 0.368c 0.672 0 1.232 -0.288 1.232 -2.32l -1.072 -0.336c -1.68 -0.528 -2.864 -0.992 -2.864 -2.256c 0 -1.104 0.608 -1.68 2 -1.68c 0.464 0 1.392 0.512 1.92 0.928Z m -0.08 2.704v -2.112c -0.4 -0.32 -0.8 -0.576 -1.088 -0.576c -0.688 0 -0.928 0.464 -0.928 0.96c 0 0.592 0.048 1.088 1.184 1.456Z "/></symbol><symbol id="g61A0002E42392354EB85782A553A6EEE" overflow="visible"><path d="M 0 0m 3.648 4.288c 0 0.576 0.176 0.816 0.384 1.056c 0.128 0.16 0.272 0.272 0.512 0.272c 0.144 0 0.32 -0.144 0.448 -0.304c 0.112 -0.128 0.384 -0.256 0.752 -0.256c 0.464 0 0.912 0.48 0.912 1.152c 0 0.416 -0.48 0.896 -1.056 0.896c -0.56 0 -1.168 -0.48 -1.904 -1.536h -0.064c -0.032 0.48 -0.112 1.264 -0.112 1.264c -0.016 0.144 -0.144 0.272 -0.368 0.272c -0.752 -0.192 -1.6 -0.416 -2.656 -0.528c -0.032 -0.096 0 -0.4 0.032 -0.496c 0.88 -0.08 1.04 -0.224 1.04 -1.136v -2.992c 0 -1.328 -0.176 -1.36 -1.152 -1.44c -0.096 -0.096 -0.096 -0.448 0 -0.544c 0.672 0.016 1.344 0.032 2.192 0.032c 0.848 0 1.504 -0.016 2.192 -0.032c 0.096 0.096 0.096 0.448 0 0.544c -0.976 0.064 -1.152 0.112 -1.152 1.44Z "/></symbol><symbol id="g1BE338DD2F7C6DA6E7FAEE3EC879055B" overflow="visible"><path d="M 0 0m 0.976 7.136c -0.032 0 -0.096 -0.064 -0.096 -0.096c -0.016 -0.72 -0.112 -1.44 -0.24 -2.224c 0.144 -0.064 0.496 -0.096 0.688 -0.048c 0.32 1.168 0.816 1.52 1.296 1.536l 1.632 0.048l 0.032 -0.032c -1.088 -1.808 -2.656 -4.16 -3.872 -5.808c -0.144 -0.192 -0.144 -0.24 -0.144 -0.32c 0 -0.112 0.128 -0.192 0.368 -0.192l 5.632 -0.048c 0.192 0.544 0.4 1.376 0.512 2.176c -0.096 0.064 -0.448 0.096 -0.64 0.096l -0.224 -0.464c -0.4 -0.848 -0.736 -1.136 -1.568 -1.136h -1.536l -0.016 0.048c 1.184 1.52 2.784 4.048 3.744 5.632c 0.24 0.4 0.288 0.528 0.288 0.592c 0 0.064 -0.08 0.112 -0.192 0.112c -0.08 0 -1.168 -0.032 -1.632 -0.032h -3.088c -0.512 0 -0.656 0.112 -0.944 0.16Z "/></symbol><symbol id="g7F7C024FAF4D2294907C4143ABA88D1F" overflow="visible"><path d="M 0 0m 4.368 3.44c 0.368 0 0.752 0.72 0.752 0.928c 0 0.176 -0.128 0.336 -0.576 0.336h -3.2c -0.336 0 -0.736 -0.656 -0.736 -0.928c 0 -0.176 0.208 -0.336 0.592 -0.336Z "/></symbol><symbol id="g3421F383F5463C054AA2595D6837E6A5" overflow="visible"><path d="M 0 0m 5.68 0.768c 0.032 -0.384 0.064 -0.656 0.064 -0.656c 0.016 -0.192 0.144 -0.272 0.368 -0.272c 0.592 0.16 1.552 0.384 2.656 0.528c 0.032 0.096 0 0.416 -0.032 0.512c -0.864 0.08 -1.04 0.336 -1.04 1.248v 7.2c 0 1.04 0.048 1.632 0.048 1.632c 0 0.144 -0.112 0.208 -0.256 0.208c -0.592 -0.192 -1.872 -0.368 -3.008 -0.416c -0.048 -0.192 -0.032 -0.4 0.048 -0.544c 1.008 -0.08 1.088 -0.096 1.088 -1.2v -2.08c -0.304 0.096 -0.688 0.176 -1.152 0.176c -2.064 0 -3.872 -1.808 -3.872 -3.936c 0 -0.944 0.336 -2.048 1.12 -2.656c 0.576 -0.448 0.976 -0.672 1.872 -0.672c 0.432 0 1.616 0.704 1.952 0.928Z m -0.048 0.752c -0.336 -0.272 -1.184 -0.624 -1.376 -0.624c -0.8 0 -1.424 0.896 -1.424 2.768c 0 0.848 0.096 1.584 0.4 2.08c 0.272 0.432 0.704 0.688 1.184 0.688c 0.416 0 0.816 -0.048 1.2 -0.576v -3.936c 0 -0.128 0 -0.272 0.016 -0.4Z "/></symbol><symbol id="g6B2BD8417A153D7B2322B2C53F78B77D" overflow="visible"><path d="M 0 0m 5.76 2.08c 0 1.216 -0.832 1.984 -2.48 2.304c -0.752 0.144 -1.232 0.32 -1.488 0.496c -0.256 0.176 -0.384 0.432 -0.384 0.736c 0 0.752 0.56 1.12 1.68 1.12c 1.088 0 1.68 -0.608 1.76 -1.84c 0.016 -0.128 0.096 -0.192 0.256 -0.192c 0.176 0 0.272 0.144 0.272 0.432v 1.584c 0 0.304 -0.08 0.448 -0.24 0.448c -0.176 0 -0.416 -0.288 -0.576 -0.416c -0.4 0.272 -0.896 0.416 -1.472 0.416c -1.424 0 -2.56 -0.64 -2.56 -2c 0 -0.544 0.224 -1.008 0.688 -1.376c 0.56 -0.464 1.088 -0.56 2.096 -0.736c 1.04 -0.208 1.568 -0.672 1.568 -1.392c 0 -0.912 -0.56 -1.376 -1.696 -1.376c -1.104 0 -1.808 0.736 -2.112 2.192c -0.048 0.208 -0.128 0.32 -0.272 0.32c -0.176 0 -0.272 -0.16 -0.272 -0.464v -2.064c 0 -0.304 0.08 -0.448 0.24 -0.448c 0.048 0 0.128 0.048 0.256 0.16c 0.288 0.256 0.16 0.208 0.448 0.496c 0.464 -0.432 1.04 -0.656 1.712 -0.656c 1.52 0 2.576 0.784 2.576 2.256Z "/></symbol><symbol id="gDB5A245C5132F56829007895C751A9B9" overflow="visible"><path d="M 0 0m 3.104 9.616c 0 0.48 -0.4 0.896 -0.88 0.896c -0.48 0 -0.896 -0.416 -0.896 -0.896c 0 -0.48 0.4 -0.912 0.88 -0.912c 0.496 0 0.896 0.416 0.896 0.912Z m -0.816 -9.568l 1.664 -0.048v 0.624c -0.528 0 -0.848 0.032 -0.944 0.096c -0.096 0.064 -0.128 0.24 -0.128 0.528v 5.872l -2.288 -0.192v -0.608c 0.528 0 0.864 -0.048 0.976 -0.128c 0.112 -0.08 0.16 -0.304 0.16 -0.672v -4.256c 0 -0.304 -0.048 -0.496 -0.16 -0.56c -0.112 -0.064 -0.464 -0.08 -1.04 -0.08v -0.624Z "/></symbol><symbol id="g2D6E657268474CEE13627634B0892604" overflow="visible"><path d="M 0 0m 5.024 6.608c 0.72 0 1.088 -0.56 1.088 -1.696v -3.648c 0 -0.304 -0.048 -0.496 -0.16 -0.56c -0.112 -0.064 -0.464 -0.096 -1.056 -0.096v -0.608l 1.84 0.048l 1.824 -0.048v 0.608c -0.512 0 -0.848 0.016 -1.008 0.064c -0.16 0.048 -0.224 0.16 -0.224 0.352v 2.992c 0 0.752 -0.016 1.28 -0.064 1.584c -0.16 0.976 -0.88 1.472 -2.144 1.472c -1.008 0 -1.76 -0.48 -2.256 -1.44v 1.44l -2.352 -0.176v -0.608c 0.576 0 0.928 -0.048 1.056 -0.144c 0.128 -0.096 0.176 -0.304 0.176 -0.672v -4.208c 0 -0.304 -0.064 -0.496 -0.176 -0.56c -0.112 -0.064 -0.464 -0.096 -1.056 -0.096v -0.608l 1.84 0.048l 1.824 -0.048v 0.608c -0.592 0 -0.928 0.032 -1.04 0.096c -0.112 0.064 -0.176 0.256 -0.176 0.56v 2.88c 0 1.296 0.816 2.464 2.064 2.464Z "/></symbol><symbol id="gFE76948C2BAC56DB366E75C5D3E395C9" overflow="visible"><path d="M 0 0m 5.088 -3.968c 0.144 0 0.224 0.08 0.224 0.224c 0 0.048 -0.032 0.112 -0.08 0.176c -0.832 0.64 -1.504 1.696 -2 3.152c -0.432 1.264 -0.656 2.512 -0.656 3.744v 1.344c 0 1.232 0.224 2.48 0.656 3.744c 0.496 1.456 1.168 2.512 2 3.152c 0.048 0.048 0.08 0.112 0.08 0.176c 0 0.144 -0.08 0.224 -0.224 0.224c -0.016 0 -0.064 -0.016 -0.112 -0.048c -0.96 -0.736 -1.76 -1.824 -2.416 -3.28c -0.624 -1.392 -0.944 -2.704 -0.944 -3.968v -1.344c 0 -1.264 0.32 -2.576 0.944 -3.968c 0.656 -1.456 1.456 -2.544 2.416 -3.28c 0.048 -0.032 0.096 -0.048 0.112 -0.048Z "/></symbol><symbol id="g7F1CDFC9C50812C85F36807E567EABDF" overflow="visible"><path d="M 0 0m 6.752 0.048c 0.32 0.016 0.8 0 1.424 -0.048v 0.624c -0.384 0 -0.672 0.048 -0.864 0.128c -0.192 0.08 -0.416 0.304 -0.672 0.672l -2 2.832c -0.048 0.144 -0.08 0.192 -0.08 0.144c 0 0.016 0.16 0.16 0.496 0.448c 0.56 0.496 0.976 0.816 1.248 0.992c 0.496 0.304 0.992 0.464 1.504 0.496v 0.608c -0.336 -0.032 -0.72 -0.048 -1.152 -0.048c -0.736 0 -1.344 0.016 -1.84 0.048v -0.608c 0.304 -0.016 0.464 -0.128 0.464 -0.336c 0 -0.192 -0.112 -0.384 -0.32 -0.576l -2.112 -1.84v 7.52l -2.4 -0.176v -0.608c 0.576 0 0.928 -0.048 1.056 -0.144c 0.128 -0.096 0.176 -0.32 0.176 -0.688v -8.224c 0 -0.304 -0.064 -0.496 -0.176 -0.56c -0.112 -0.064 -0.464 -0.08 -1.056 -0.08v -0.624l 1.776 0.048l 1.792 -0.048v 0.624c -0.592 0 -0.928 0.016 -1.04 0.08c -0.112 0.064 -0.176 0.256 -0.176 0.56v 1.6l 0.928 0.816l 0.256 -0.384c 1.04 -1.44 1.568 -2.24 1.568 -2.384c 0 -0.192 -0.192 -0.288 -0.576 -0.288v -0.624Z "/></symbol><symbol id="gA3525D446D3D83A5B7E735BB6646CDBD" overflow="visible"><path d="M 0 0m 6.688 0.048c 0.368 0.016 0.896 0 1.568 -0.048v 0.608c -0.848 0 -1.168 0.016 -1.504 0.464l -2.08 2.688c 0.688 0.848 1.152 1.424 1.408 1.728c 0.448 0.512 1.072 0.784 1.888 0.8v 0.608c -0.448 -0.032 -0.896 -0.048 -1.344 -0.048c -0.592 0 -1.12 0.016 -1.584 0.048v -0.608c 0.304 -0.032 0.464 -0.176 0.464 -0.432c 0 -0.144 -0.08 -0.32 -0.224 -0.512l -0.928 -1.152l -1.184 1.52c -0.08 0.112 -0.128 0.192 -0.128 0.24c 0 0.208 0.192 0.32 0.56 0.336v 0.608l -1.776 -0.048c -0.416 -0.016 -0.928 0 -1.552 0.048v -0.608c 0.576 0 0.944 -0.048 1.104 -0.128c 0.16 -0.08 0.416 -0.352 0.768 -0.816l 1.52 -1.984c -0.784 -1.008 -1.264 -1.616 -1.44 -1.824c -0.512 -0.624 -1.184 -0.928 -2.032 -0.928v -0.608c 0.592 0.048 1.04 0.064 1.376 0.048l 1.552 -0.048v 0.608c -0.304 0.048 -0.448 0.192 -0.448 0.432c 0 0.064 0.016 0.144 0.048 0.224c 0.096 0.208 0.528 0.752 1.296 1.664l 1.152 -1.504c 0.176 -0.224 0.272 -0.384 0.32 -0.48c 0 -0.208 -0.192 -0.32 -0.576 -0.336v -0.608Z "/></symbol><symbol id="g4A60CE28263A0313E2F1F2501A07CE8B" overflow="visible"><path d="M 0 0m 1.248 -3.92c 0.96 0.736 1.76 1.824 2.416 3.28c 0.624 1.392 0.944 2.704 0.944 3.968v 1.344c 0 1.264 -0.32 2.576 -0.944 3.968c -0.656 1.456 -1.456 2.544 -2.416 3.28c -0.048 0.032 -0.096 0.048 -0.112 0.048c -0.144 0 -0.224 -0.08 -0.224 -0.224c 0 -0.064 0.032 -0.128 0.08 -0.176c 0.832 -0.64 1.504 -1.696 2 -3.152c 0.432 -1.264 0.656 -2.512 0.656 -3.744v -1.344c 0 -1.232 -0.224 -2.48 -0.656 -3.744c -0.496 -1.456 -1.168 -2.512 -2 -3.152c -0.048 -0.064 -0.08 -0.128 -0.08 -0.176c 0 -0.144 0.08 -0.224 0.224 -0.224c 0.016 0 0.064 0.016 0.112 0.048Z "/></symbol><symbol id="g64AA6D97DC384EDB5F6925C9B5CF4089" overflow="visible"><path d="M 0 0m 1.808 -3.28c 0.88 0 1.584 0.608 2.08 1.84l 2.768 6.752c 0.272 0.64 0.752 0.96 1.472 0.96v 0.624c -0.528 -0.048 -0.944 -0.064 -1.248 -0.048l -1.424 0.048v -0.608c 0.496 -0.016 0.736 -0.224 0.736 -0.624c 0 -0.096 -0.032 -0.208 -0.096 -0.352l -1.52 -3.744l -1.696 4.096c -0.048 0.128 -0.08 0.224 -0.096 0.272c 0 0.224 0.304 0.336 0.896 0.336v 0.624l -1.792 -0.048c -0.384 -0.016 -0.912 0 -1.584 0.048v -0.624c 0.848 0 1.056 0.032 1.28 -0.512l 2.352 -5.744l -0.384 -0.896c -0.432 -1.024 -0.736 -1.92 -1.744 -1.92c -0.224 0 -0.416 0.064 -0.592 0.176c 0.368 0.08 0.544 0.32 0.544 0.704c 0 0.48 -0.24 0.72 -0.736 0.72c -0.48 0 -0.72 -0.24 -0.72 -0.736c 0 -0.784 0.72 -1.344 1.504 -1.344Z "/></symbol><symbol id="gDBFAE06AF79FDD9C3E51928051970166" overflow="visible"><path d="M 0 0m 0.912 0h 5.232l 0.272 3.056h -0.512c -0.08 -0.992 -0.24 -1.664 -0.528 -2.016c -0.288 -0.352 -0.848 -0.528 -1.696 -0.528h -1.728l 4.272 5.808c 0.112 0.144 0.16 0.24 0.16 0.304c 0 0.176 -0.16 0.272 -0.464 0.272h -5.072l -0.192 -2.656h 0.528c 0.048 0.88 0.208 1.456 0.464 1.744c 0.256 0.288 0.784 0.448 1.584 0.448h 1.664l -4.288 -5.824c -0.112 -0.144 -0.16 -0.24 -0.16 -0.32c 0 -0.272 0.112 -0.288 0.464 -0.288Z "/></symbol><symbol id="gD1F745F93AA9122F5DF54DDA8243F5F3" overflow="visible"><path d="M 0 0m 11.168 4.384h -4.56v 4.56c 0 0.256 -0.128 0.384 -0.384 0.384c -0.256 0 -0.384 -0.128 -0.384 -0.384v -4.56h -4.56c -0.256 0 -0.384 -0.128 -0.384 -0.384c 0 -0.256 0.128 -0.384 0.384 -0.384h 4.56v -4.56c 0 -0.256 0.128 -0.384 0.384 -0.384c 0.256 0 0.384 0.128 0.384 0.384v 4.56h 4.56c 0.256 0 0.384 0.128 0.384 0.384c 0 0.208 -0.176 0.384 -0.384 0.384Z "/></symbol><symbol id="g6962E09401F6289A28317FAA8E7FC9C1" overflow="visible"><path d="M 0 0m 4.016 6.656c 0.672 0 1.184 -0.16 1.536 -0.48c -0.384 -0.048 -0.656 -0.4 -0.656 -0.768c 0 -0.528 0.256 -0.784 0.784 -0.784c 0.528 0 0.784 0.272 0.784 0.8c 0 1.136 -1.232 1.744 -2.464 1.744c -0.992 0 -1.808 -0.352 -2.464 -1.088c -0.656 -0.736 -0.992 -1.616 -0.992 -2.624c 0 -0.976 0.336 -1.84 0.992 -2.56c 0.656 -0.72 1.456 -1.072 2.432 -1.072c 0.8 0 1.424 0.224 1.872 0.688c 0.368 0.368 0.608 0.736 0.736 1.12c 0.048 0.144 0.064 0.24 0.064 0.304c 0 0.144 -0.096 0.208 -0.272 0.208c -0.128 0 -0.208 -0.064 -0.256 -0.192c -0.336 -1.072 -0.992 -1.616 -2 -1.616c -0.464 0 -0.912 0.208 -1.36 0.64c -0.528 0.496 -0.784 1.328 -0.784 2.512c 0 1.6 0.608 3.168 2.048 3.168Z "/></symbol><symbol id="gB655B06F60CB612733AD7B4C8BAD552D" overflow="visible"><path d="M 0 0m 3.984 -0.176c 0.992 0 1.824 0.352 2.512 1.056c 0.688 0.704 1.04 1.552 1.04 2.544c 0 1.008 -0.336 1.888 -1.008 2.624c -0.672 0.736 -1.52 1.12 -2.528 1.12c -1.008 0 -1.84 -0.384 -2.528 -1.12c -0.688 -0.736 -1.024 -1.616 -1.024 -2.624c 0 -0.992 0.336 -1.84 1.024 -2.544c 0.688 -0.704 1.536 -1.056 2.512 -1.056Z m 0.016 0.512c -0.768 0 -1.344 0.336 -1.744 1.024c -0.256 0.448 -0.384 1.184 -0.384 2.192c 0 0.976 0.128 1.68 0.368 2.128c 0.384 0.688 0.96 1.024 1.744 1.024c 0.752 0 1.328 -0.336 1.728 -0.992c 0.272 -0.448 0.4 -1.168 0.4 -2.16c 0 -1.856 -0.544 -3.216 -2.112 -3.216Z "/></symbol><symbol id="gF0099E97FCE47D86CFFAA01886DF78DA" overflow="visible"><path d="M 0 0m 11.168 5.872h -9.888c -0.256 0 -0.384 -0.128 -0.384 -0.368c 0 -0.24 0.128 -0.368 0.384 -0.368h 9.888c 0.256 0 0.384 0.128 0.384 0.368c 0 0.192 -0.176 0.368 -0.384 0.368Z m 0 -3.008h -9.888c -0.256 0 -0.384 -0.128 -0.384 -0.368c 0 -0.24 0.128 -0.368 0.384 -0.368h 9.888c 0.256 0 0.384 0.128 0.384 0.368c 0 0.208 -0.176 0.368 -0.384 0.368Z "/></symbol><symbol id="gEEA27574DB27C08E1CA07C210D64160F" overflow="visible"><path d="M 0 0m 3.984 -0.352c 2.256 0 3.376 1.824 3.376 5.472c 0 2.448 -0.512 4.08 -1.52 4.88c -0.56 0.432 -1.184 0.656 -1.84 0.656c -2.256 0 -3.376 -1.84 -3.376 -5.536c 0 -2.944 0.784 -5.472 3.36 -5.472Z m 1.792 8.736c 0.112 -0.56 0.16 -1.584 0.16 -3.072c 0 -1.472 -0.064 -2.56 -0.176 -3.264c -0.208 -1.28 -0.8 -1.92 -1.776 -1.92c -0.368 0 -0.736 0.144 -1.072 0.416c -0.432 0.368 -0.688 1.12 -0.8 2.272c -0.048 0.4 -0.064 1.232 -0.064 2.496c 0 1.392 0.048 2.368 0.128 2.896c 0.144 0.88 0.432 1.44 0.88 1.68c 0.352 0.192 0.656 0.288 0.928 0.288c 1.04 0 1.616 -0.848 1.792 -1.792Z "/></symbol><symbol id="gCD2A422B721EC165ADF1AD046FEAA4F5" overflow="visible"><path d="M 0 0m 4.74 7.572c -0.696 0.096 -0.672 0.324 -1.848 0.324c -1.212 0 -2.28 -0.804 -2.28 -2.076c 0 -1.26 1.044 -1.836 2.1 -2.244c 0.72 -0.276 1.608 -0.612 1.608 -1.788c 0 -0.972 -0.54 -1.476 -1.5 -1.476c -1.116 0 -1.836 0.516 -2.1 1.704c -0.156 0.048 -0.276 0.024 -0.396 -0.036c 0.048 -0.924 0.096 -1.236 0.24 -1.824c 0.756 0 1.092 -0.276 2.16 -0.276c 0.54 0 1.056 0.132 1.476 0.396c 0.696 0.432 1.128 1.164 1.128 1.932c 0 1.272 -0.96 1.836 -1.944 2.208c -0.72 0.264 -1.92 0.72 -1.92 1.728c 0 0.672 0.612 1.344 1.32 1.344c 1.164 0 1.536 -0.744 1.776 -1.536c 0.132 -0.024 0.288 -0.012 0.396 0.072c -0.048 0.576 -0.096 0.912 -0.216 1.548Z "/></symbol><symbol id="g82AC2E51D964EFE9E0DB4B48AD0990AD" overflow="visible"><path d="M 0 0m 4.776 1.092c -0.048 0.108 -0.144 0.156 -0.252 0.168c -0.408 -0.528 -0.924 -0.792 -1.44 -0.792c -0.876 0 -1.608 0.888 -1.608 2.292c 0 1.32 0.576 2.112 1.368 2.112c 0.708 0 0.804 -0.42 0.852 -0.84c 0.036 -0.324 0.204 -0.432 0.456 -0.432c 0.252 0 0.588 0.156 0.588 0.528c 0 0.66 -0.684 1.14 -1.836 1.14c -1.188 0 -2.46 -1.068 -2.46 -2.772c 0 -1.548 0.864 -2.616 2.376 -2.616c 0.72 0 1.356 0.228 1.956 1.212Z "/></symbol><symbol id="g261D98180777C8DD2F1A4AD87800C02B" overflow="visible"><path d="M 0 0m 2.004 3.432c 0 0.252 0.108 0.396 0.204 0.504c 0.456 0.444 1.068 0.708 1.536 0.708c 0.24 0 0.492 -0.156 0.636 -0.432c 0.12 -0.24 0.144 -0.564 0.144 -0.924v -1.824c 0 -0.984 -0.12 -1.032 -0.744 -1.092c -0.06 -0.072 -0.06 -0.324 0 -0.396c 0.336 0.012 0.744 0.024 1.224 0.024c 0.48 0 0.876 -0.012 1.272 -0.024c 0.06 0.072 0.06 0.324 0 0.396c -0.672 0.06 -0.804 0.108 -0.804 1.092v 1.788c 0 0.66 -0.048 1.248 -0.324 1.608c -0.204 0.264 -0.576 0.408 -0.996 0.408c -0.588 0 -1.308 -0.156 -2.04 -0.972c 0 -0.012 -0.012 -0.012 -0.024 -0.024c -0.036 -0.048 -0.096 -0.12 -0.096 0.024l 0.012 2.7c 0 0.78 0.048 1.26 0.048 1.26c 0 0.084 -0.048 0.12 -0.156 0.12c -0.3 -0.12 -1.2 -0.288 -1.68 -0.324c -0.024 -0.096 0 -0.288 0.072 -0.36c 0.036 0 0.072 0 0.108 0c 0.528 -0.036 0.66 -0.036 0.66 -0.984v -5.244c 0 -0.996 -0.144 -1.044 -0.84 -1.092c -0.072 -0.072 -0.072 -0.324 0 -0.396c 0.396 0.012 0.84 0.024 1.32 0.024c 0.456 0 0.852 -0.012 1.188 -0.024c 0.072 0.072 0.072 0.324 0 0.396c -0.612 0.048 -0.72 0.096 -0.72 1.092Z "/></symbol><symbol id="gE9ACADB42D28DBA099623B4AE8D52B22" overflow="visible"><path d="M 0 0m 2.436 4.776c 0.072 0.072 0.072 0.324 0 0.396c -0.36 -0.012 -0.78 -0.024 -1.212 -0.024c -0.456 0 -0.78 0.012 -1.092 0.024c -0.072 -0.072 -0.072 -0.324 0 -0.396c 0.564 -0.06 0.696 -0.18 0.948 -0.804l 1.572 -3.876c 0.072 -0.168 0.168 -0.24 0.288 -0.24c 0.108 0 0.204 0.072 0.288 0.264l 1.212 2.952l 1.236 -2.976c 0.072 -0.168 0.168 -0.24 0.288 -0.24c 0.108 0 0.204 0.072 0.276 0.252l 1.572 3.804c 0.192 0.492 0.396 0.828 1.008 0.864c 0.072 0.072 0.072 0.324 0 0.396c -0.24 -0.012 -0.504 -0.024 -0.864 -0.024c -0.36 0 -0.864 0.012 -1.224 0.024c -0.072 -0.072 -0.072 -0.324 0 -0.396c 0.9 -0.048 0.78 -0.396 0.612 -0.816l -1.008 -2.496c -0.12 -0.3 -0.168 -0.3 -0.264 -0.048l -1.032 2.628c -0.228 0.564 -0.204 0.684 0.432 0.732c 0.072 0.072 0.072 0.324 0 0.396c -0.36 -0.012 -0.84 -0.024 -1.2 -0.024c -0.3 0 -0.696 0.012 -1.056 0.024c -0.072 -0.072 -0.072 -0.324 0 -0.396c 0.564 -0.048 0.708 -0.396 0.924 -0.936l 0.072 -0.192l -0.84 -2.124c -0.156 -0.396 -0.18 -0.408 -0.336 -0.024l -0.96 2.472c -0.228 0.576 -0.216 0.768 0.36 0.804Z "/></symbol><symbol id="g8DDE925CCDC057959473A1B259BD0B2" overflow="visible"><path d="M 0 0m 3.516 0.576c 0.072 -0.372 0.204 -0.696 0.804 -0.696c 0.456 0 0.888 0.204 1.14 0.444c -0.024 0.144 -0.072 0.252 -0.204 0.324c -0.084 -0.072 -0.288 -0.192 -0.444 -0.192c -0.348 0 -0.36 0.468 -0.36 1.02v 1.764c 0 1.704 -0.936 2.028 -1.812 2.028c -0.984 0 -1.98 -0.648 -1.98 -1.332c 0 -0.288 0.144 -0.432 0.42 -0.432c 0.348 0 0.564 0.252 0.564 0.408c 0 0.084 -0.012 0.168 -0.036 0.216c -0.012 0.036 -0.024 0.108 -0.024 0.24c 0 0.372 0.504 0.504 0.96 0.504c 0.408 0 0.972 -0.204 0.972 -1.56c 0 -0.084 -0.036 -0.132 -0.072 -0.144l -1.032 -0.252c -1.152 -0.288 -1.98 -0.924 -1.98 -1.74c 0 -0.984 0.672 -1.296 1.512 -1.296c 0.42 0 0.78 0.096 1.308 0.504l 0.24 0.192Z m 0 2.22v -1.584c 0 -0.156 -0.072 -0.24 -0.168 -0.312c -0.312 -0.252 -0.72 -0.528 -1.056 -0.528c -0.6 0 -0.864 0.48 -0.864 0.852c 0 0.54 0.252 1.092 1.14 1.32Z "/></symbol><symbol id="g1BCB9C828DF030506619E4914135A997" overflow="visible"><path d="M 0 0m 2.112 4.296c -0.024 0.48 -0.036 0.792 -0.096 0.912c -0.024 0.06 -0.048 0.096 -0.144 0.096c -0.336 -0.132 -0.648 -0.24 -1.476 -0.348c -0.024 -0.072 0 -0.264 0.024 -0.336c 0.648 -0.06 0.78 -0.12 0.78 -0.816v -2.34c 0 -0.996 -0.144 -1.044 -0.888 -1.092c -0.072 -0.072 -0.072 -0.324 0 -0.396c 0.42 0.012 0.888 0.024 1.368 0.024c 0.48 0 1.032 -0.012 1.452 -0.024c 0.072 0.072 0.072 0.324 0 0.396c -0.84 0.06 -0.984 0.096 -0.984 1.092v 1.668c 0 0.312 0.144 0.588 0.288 0.804c 0.132 0.192 0.408 0.588 0.552 0.588c 0.108 0 0.216 -0.024 0.312 -0.156c 0.084 -0.12 0.228 -0.276 0.432 -0.276c 0.288 0 0.564 0.3 0.564 0.6c 0 0.228 -0.216 0.576 -0.72 0.576c -0.564 0 -1.056 -0.528 -1.332 -0.996c -0.072 -0.132 -0.132 -0.036 -0.132 0.024Z "/></symbol><symbol id="g8B7961406E04CC575B5ED65D9B46760E" overflow="visible"><path d="M 0 0m 0.852 5.268c -0.024 0 -0.072 -0.048 -0.072 -0.072c -0.012 -0.54 -0.072 -0.96 -0.18 -1.548c 0.108 -0.048 0.252 -0.072 0.396 -0.036c 0.24 0.876 0.612 1.08 0.972 1.092l 1.536 0.036c -0.816 -1.368 -2.016 -3.096 -2.952 -4.356c -0.108 -0.144 -0.108 -0.18 -0.108 -0.24c 0 -0.084 0.096 -0.144 0.276 -0.144l 3.744 -0.036c 0.144 0.408 0.3 1.032 0.384 1.632c -0.072 0.048 -0.216 0.072 -0.36 0.072l -0.168 -0.348c -0.3 -0.636 -0.552 -0.9 -1.176 -0.912h -1.596c 0.888 1.128 2.136 3.012 2.88 4.236c 0.18 0.3 0.216 0.396 0.216 0.444c 0 0.048 -0.06 0.084 -0.144 0.084c -0.06 0 -0.396 -0.024 -0.744 -0.024h -2.196c -0.384 0 -0.528 0.06 -0.708 0.12Z "/></symbol><symbol id="g118348B4FF47B5DD19B89283D3938805" overflow="visible"><path d="M 0 0m 1.776 7.74c -0.432 0 -1.068 0.012 -1.548 0.024c -0.072 -0.072 -0.072 -0.324 0 -0.396c 0.84 -0.036 1.044 -0.096 1.044 -1.092v -4.812c 0 -0.996 -0.204 -1.056 -1.044 -1.092c -0.072 -0.072 -0.072 -0.324 0 -0.396c 0.468 0.012 1.104 0.024 1.56 0.024c 0.444 0 0.948 -0.024 2.184 -0.024c 1.692 0 3.924 0.768 3.924 3.72c 0 2.232 -1.836 4.068 -4.14 4.068c -0.852 0 -1.512 -0.024 -1.98 -0.024Z m 0.516 -6.732v 5.76c 0 0.42 0.42 0.588 1.008 0.588c 2.592 0 3.444 -2.1 3.444 -3.948c 0 -2.424 -1.452 -3.024 -3.144 -3.024c -1.176 0 -1.308 0.24 -1.308 0.624Z "/></symbol><symbol id="gC718F7B3FEBDE5FBB71AFCF9D705B32C" overflow="visible"><path d="M 0 0m 0.528 3.024c 0 -0.54 0.048 -3.312 2.544 -5.472c 0.12 0.024 0.216 0.108 0.252 0.204c -0.396 0.456 -1.8 2.112 -1.8 5.268c 0 3.156 1.416 4.812 1.8 5.244c -0.036 0.12 -0.12 0.204 -0.252 0.216c -1.428 -1.224 -2.544 -3.228 -2.544 -5.46Z "/></symbol><symbol id="g289ED535C508AEA31A604F0DADFA8DC1" overflow="visible"><path d="M 0 0m 2.172 1.464v 2.388c 0 0.6 0.048 1.368 0.048 1.368c 0 0.048 -0.06 0.084 -0.156 0.084c -0.336 -0.132 -0.816 -0.24 -1.644 -0.348c -0.024 -0.072 0 -0.264 0.024 -0.336c 0.66 -0.06 0.78 -0.132 0.78 -0.816v -2.34c 0 -0.996 -0.132 -1.032 -0.864 -1.092c -0.072 -0.072 -0.072 -0.324 0 -0.396c 0.396 0.012 0.864 0.024 1.344 0.024c 0.48 0 0.936 -0.012 1.332 -0.024c 0.072 0.072 0.072 0.324 0 0.396c -0.732 0.048 -0.864 0.096 -0.864 1.092Z m -1.092 5.724c 0 -0.312 0.288 -0.624 0.576 -0.624c 0.336 0 0.624 0.324 0.624 0.576c 0 0.288 -0.252 0.624 -0.576 0.624c -0.288 0 -0.624 -0.288 -0.624 -0.576Z "/></symbol><symbol id="g55A61ECC645EBF4C4CFC2CFFE578F745" overflow="visible"><path d="M 0 0m 2.04 4.296c -0.012 0.36 -0.036 0.792 -0.096 0.912c -0.024 0.06 -0.048 0.096 -0.144 0.096c -0.336 -0.132 -0.648 -0.24 -1.476 -0.348c -0.024 -0.072 0 -0.264 0.024 -0.336c 0.648 -0.06 0.78 -0.12 0.78 -0.816v -2.34c 0 -0.984 -0.156 -1.044 -0.816 -1.092c -0.072 -0.072 -0.072 -0.324 0 -0.396c 0.36 0.012 0.816 0.024 1.296 0.024c 0.48 0 0.852 -0.012 1.212 -0.024c 0.072 0.072 0.072 0.324 0 0.396c -0.612 0.06 -0.744 0.108 -0.744 1.092v 1.968c 0 0.252 0.108 0.396 0.204 0.504c 0.48 0.468 0.924 0.708 1.296 0.708c 0.456 0 0.792 -0.288 0.792 -1.092v -2.088c 0 -0.984 -0.096 -1.044 -0.744 -1.092c -0.06 -0.072 -0.06 -0.324 0 -0.396c 0.3 0.012 0.744 0.024 1.224 0.024c 0.48 0 0.876 -0.012 1.176 -0.024c 0.06 0.072 0.06 0.324 0 0.396c -0.6 0.048 -0.708 0.108 -0.708 1.092v 1.908c 0 0.168 0 0.336 -0.012 0.48c 0.576 0.636 1.116 0.792 1.584 0.792c 0.456 0 0.72 -0.264 0.72 -1.068v -2.112c 0 -0.984 -0.12 -1.044 -0.744 -1.092c -0.06 -0.072 -0.06 -0.324 0 -0.396c 0.3 0.012 0.744 0.024 1.224 0.024c 0.48 0 0.9 -0.012 1.236 -0.024c 0.06 0.072 0.06 0.324 0 0.396c -0.66 0.048 -0.768 0.108 -0.768 1.092v 1.896c 0 1.068 -0.18 1.908 -1.236 1.908c -0.612 0 -1.356 -0.228 -1.98 -0.888c -0.036 -0.036 -0.108 -0.096 -0.132 0.012c -0.108 0.492 -0.576 0.876 -1.2 0.876c -0.696 0 -1.32 -0.408 -1.824 -0.972c -0.06 -0.06 -0.132 -0.144 -0.144 0Z "/></symbol><symbol id="gDEDC019FF1F409029582831C73222AA3" overflow="visible"><path d="M 0 0m 0.492 2.46c 0 -1.224 0.816 -2.58 2.52 -2.58c 0.768 0 1.356 0.276 1.764 0.672c 0.54 0.528 0.78 1.284 0.78 2.016c 0 1.248 -0.684 2.7 -2.52 2.7c -0.792 0 -1.44 -0.324 -1.884 -0.84c -0.432 -0.516 -0.66 -1.212 -0.66 -1.968Z m 2.364 2.388c 1.032 0 1.668 -0.936 1.668 -2.664c 0 -1.512 -0.78 -1.884 -1.344 -1.884c -1.248 0 -1.656 1.512 -1.656 2.436c 0 1.044 0.252 2.112 1.332 2.112Z "/></symbol><symbol id="g2F2DE93C75BB70AB44F4889228F287DB" overflow="visible"><path d="M 0 0m 2.208 4.296c -0.072 -0.084 -0.144 -0.108 -0.144 0c -0.012 0.324 -0.036 0.792 -0.096 0.912c -0.024 0.06 -0.048 0.096 -0.144 0.096c -0.336 -0.132 -0.648 -0.24 -1.476 -0.348c -0.024 -0.072 0 -0.264 0.024 -0.336c 0.648 -0.06 0.78 -0.12 0.78 -0.816v -2.34c 0 -0.984 -0.12 -1.032 -0.84 -1.092c -0.072 -0.072 -0.072 -0.324 0 -0.396c 0.36 0.012 0.84 0.024 1.32 0.024c 0.48 0 0.84 -0.012 1.2 -0.024c 0.072 0.072 0.072 0.324 0 0.396c -0.612 0.06 -0.732 0.108 -0.732 1.092v 1.968c 0 0.252 0.108 0.396 0.204 0.504c 0.456 0.444 0.996 0.708 1.464 0.708c 0.24 0 0.492 -0.156 0.636 -0.432c 0.12 -0.24 0.144 -0.564 0.144 -0.924v -1.824c 0 -0.984 -0.12 -1.032 -0.744 -1.092c -0.06 -0.072 -0.06 -0.324 0 -0.396c 0.36 0.012 0.744 0.024 1.224 0.024c 0.48 0 0.912 -0.012 1.272 -0.024c 0.06 0.072 0.06 0.324 0 0.396c -0.672 0.06 -0.804 0.108 -0.804 1.092v 1.788c 0 0.66 -0.048 1.236 -0.324 1.608c -0.204 0.264 -0.576 0.408 -0.996 0.408c -0.588 0 -1.26 -0.156 -1.968 -0.972Z "/></symbol><symbol id="gA9D8AA38C81E5F63D053CA30FE947007" overflow="visible"><path d="M 0 0m 4.008 0.6c 0.06 0.048 0.168 0.072 0.18 -0.012c 0.036 -0.288 0.132 -0.708 0.132 -0.708c 0.096 -0.036 0.156 -0.024 0.228 0c 0.264 0.216 0.684 0.396 1.416 0.48c 0.072 0.072 0.072 0.252 0 0.324c -0.768 0.06 -0.876 0.288 -0.876 0.876v 5.436c 0 0.78 0.048 1.26 0.048 1.26c 0 0.084 -0.048 0.12 -0.156 0.12c -0.3 -0.12 -1.2 -0.288 -1.68 -0.324c -0.024 -0.096 0 -0.288 0.072 -0.36c 0.036 0 0.072 0 0.108 0c 0.528 -0.036 0.66 -0.036 0.66 -0.984v -1.536c 0 -0.084 -0.024 -0.108 -0.108 -0.108c -0.048 0 -0.54 0.204 -0.936 0.204c -0.792 0 -1.32 -0.264 -1.8 -0.72c -0.516 -0.516 -0.828 -1.224 -0.828 -2.112c 0 -1.476 0.744 -2.556 2.04 -2.556c 0.468 0 0.912 0.24 1.5 0.72Z m 0.132 0.888c 0 -0.228 -0.024 -0.324 -0.192 -0.468c -0.444 -0.384 -0.828 -0.576 -1.128 -0.576c -0.648 0 -1.32 0.708 -1.32 2.208c 0 0.864 0.168 1.344 0.348 1.596c 0.372 0.564 0.876 0.6 1.116 0.6c 0.432 0 0.732 -0.156 0.972 -0.432c 0.168 -0.192 0.204 -0.276 0.204 -0.648Z "/></symbol><symbol id="gD2D6418B9074FCF2C80BD3C34EA5A6FC" overflow="visible"><path d="M 0 0m 3.048 3.024c 0 0.54 -0.048 3.312 -2.544 5.472c -0.12 -0.024 -0.216 -0.108 -0.252 -0.204c 0.396 -0.456 1.8 -2.112 1.8 -5.268c 0 -3.156 -1.416 -4.812 -1.8 -5.244c 0.036 -0.12 0.12 -0.204 0.252 -0.216c 1.428 1.224 2.544 3.228 2.544 5.46Z "/></symbol></defs></svg>