<svg viewBox="0 0 223.072 71.416" width="223.072pt" height="71.416pt" xmlns="http://www.w3.org/2000/svg" xmlns:xlink="http://www.w3.org/1999/xlink" xmlns:h5="http://www.w3.org/1999/xhtml"><g transform="matrix(1 0 0 -1 20 23.32)"><use xlink:href="#g24DE49A13CDC41C2938F6A46FEBE412" x="0" y="0" fill="#e0e0e0" fill-rule="nonzero"/><use xlink:href="#g25675555B4AE832A515728C7334821C8" x="6.832" y="0" fill="#e0e0e0" fill-rule="nonzero"/><use xlink:href="#gCB9A71EB920C461BD1B2AF5BFD4CBB8E" x="16.128" y="0" fill="#e0e0e0" fill-rule="nonzero"/><use xlink:href="#gD45453FCBA9F32034F18E47DB84C4F61" x="26.032" y="0" fill="#e0e0e0" fill-rule="nonzero"/><use xlink:href="#g61A0002E42392354EB85782A553A6EEE" x="33.856" y="0" fill="#e0e0e0" fill-rule="nonzero"/><use xlink:href="#gD45453FCBA9F32034F18E47DB84C4F61" x="40.576" y="0" fill="#e0e0e0" fill-rule="nonzero"/></g><g transform="matrix(1 0 0 -1 20 41.24)"><use xlink:href="#gA3525D446D3D83A5B7E735BB6646CDBD" x="0" y="0" fill="#e0e0e0" fill-rule="nonzero"/><use xlink:href="#g133DEAAC92DDDB19A715B202EDAB877D" x="8.448" y="0" fill="#e0e0e0" fill-rule="nonzero"/><use xlink:href="#g61D8EC4F8C3F73283F1E8A8BB7A6372D" x="17.344" y="0" fill="#e0e0e0" fill-rule="nonzero"/><use xlink:href="#gD1F745F93AA9122F5DF54DDA8243F5F3" x="30.656" y="0" fill="#e0e0e0" fill-rule="nonzero"/><use xlink:href="#g64AA6D97DC384EDB5F6925C9B5CF4089" x="48.416" y="0" fill="#e0e0e0" fill-rule="nonzero"/><use xlink:href="#g133DEAAC92DDDB19A715B202EDAB877D" x="56.864" y="0" fill="#e0e0e0" fill-rule="nonzero"/><use xlink:href="#g61D8EC4F8C3F73283F1E8A8BB7A6372D" x="65.76" y="0" fill="#e0e0e0" fill-rule="nonzero"/><use xlink:href="#gD1F745F93AA9122F5DF54DDA8243F5F3" x="79.072" y="0" fill="#e0e0e0" fill-rule="nonzero"/><use xlink:href="#gDBFAE06AF79FDD9C3E51928051970166" x="96.832" y="0" fill="#e0e0e0" fill-rule="nonzero"/><use xlink:href="#g133DEAAC92DDDB19A715B202EDAB877D" x="103.936" y="0" fill="#e0e0e0" fill-rule="nonzero"/><use xlink:href="#g61D8EC4F8C3F73283F1E8A8BB7A6372D" x="112.832" y="0" fill="#e0e0e0" fill-rule="nonzero"/><use xlink:href="#gF0099E97FCE47D86CFFAA01886DF78DA" x="126.144" y="0" fill="#e0e0e0" fill-rule="nonzero"/><use xlink:href="#g78383E8554B616CCBD975C3AF7F2B8E1" x="143.904" y="0" fill="#e0e0e0" fill-rule="nonzero"/><use xlink:href="#g133DEAAC92DDDB19A715B202EDAB877D" x="150.176" y="0" fill="#e0e0e0" fill-rule="nonzero"/><use xlink:href="#g61D8EC4F8C3F73283F1E8A8BB7A6372D" x="159.072" y="0" fill="#e0e0e0" fill-rule="nonzero"/></g><g transform="matrix(1 0 0 -1 20 58.416)"><use xlink:href="#gF2FA6952BE331EABB0A764456239871F" x="0" y="0" fill="#999999" fill-rule="nonzero"/><use xlink:href="#g1BCB9C828DF030506619E4914135A997" x="6.492" y="0" fill="#999999" fill-rule="nonzero"/><use xlink:href="#g289ED535C508AEA31A604F0DADFA8DC1" x="10.956" y="0" fill="#999999" fill-rule="nonzero"/><use xlink:href="#g55A61ECC645EBF4C4CFC2CFFE578F745" x="14.208" y="0" fill="#999999" fill-rule="nonzero"/><use xlink:href="#g289ED535C508AEA31A604F0DADFA8DC1" x="23.688" y="0" fill="#999999" fill-rule="nonzero"/><use xlink:href="#g84516DFCDCD61F2511AA629C71D7DB90" x="26.94" y="0" fill="#999999" fill-rule="nonzero"/><use xlink:href="#g289ED535C508AEA31A604F0DADFA8DC1" x="30.732" y="0" fill="#999999" fill-rule="nonzero"/><use xlink:href="#g5723DCFBFCE5C740FA2BDFF816BBC144" x="33.984" y="0" fill="#999999" fill-rule="nonzero"/><use xlink:href="#g30001D7828CC398501D0D953534F2217" x="39.852" y="0" fill="#999999" fill-rule="nonzero"/></g><defs><symbol id="g24DE49A13CDC41C2938F6A46FEBE412" overflow="visible"><path d="M 0 0m 0.768 2.336c 0.064 -0.784 0.144 -1.536 0.272 -2.144c 0.304 -0.096 1.328 -0.352 2.224 -0.352c 1.232 0 2.768 0.672 2.768 2.064c 0 0.544 -0.128 0.976 -0.496 1.376c -0.448 0.512 -1.12 0.912 -1.856 1.232c -0.64 0.272 -0.864 0.784 -0.864 1.248c 0 0.368 0.304 0.672 0.768 0.672c 0.56 0 1.104 -0.512 1.504 -1.488c 0.288 -0.048 0.464 -0.032 0.624 0.08c 0 0.576 -0.064 1.184 -0.208 1.696c -0.512 0.224 -0.912 0.384 -1.792 0.384c -0.848 0 -1.648 -0.32 -2.16 -0.832c -0.368 -0.368 -0.544 -0.816 -0.544 -1.248c 0 -0.48 0.192 -0.864 0.496 -1.2c 0.496 -0.544 1.376 -1.104 1.856 -1.328c 0.64 -0.288 0.816 -0.864 0.816 -1.248c 0 -0.512 -0.512 -0.784 -0.944 -0.784c -0.72 0 -1.488 0.736 -1.824 1.904c -0.256 0.048 -0.384 0.032 -0.64 -0.032Z "/></symbol><symbol id="g25675555B4AE832A515728C7334821C8" overflow="visible"><path d="M 0 0m 1.52 4.944v -6.704c 0 -1.328 -0.176 -1.36 -1.152 -1.44c -0.096 -0.096 -0.096 -0.448 0 -0.544c 0.672 0.016 1.344 0.032 2.192 0.032c 0.848 0 1.504 -0.016 2.192 -0.032c 0.096 0.096 0.096 0.448 0 0.544c -0.976 0.064 -1.152 0.112 -1.152 1.44v 1.872c 0.352 -0.176 0.688 -0.272 1.072 -0.272c 2.432 0 4.016 1.6 4.016 3.952c 0 0.896 -0.336 1.888 -0.96 2.512c -0.56 0.56 -1.36 0.8 -2.192 0.8c -0.464 0 -1.328 -0.56 -1.888 -1.072h -0.096c -0.032 0.448 -0.08 0.8 -0.08 0.8c -0.016 0.192 -0.144 0.272 -0.368 0.272c -0.592 -0.16 -1.552 -0.384 -2.656 -0.528c -0.032 -0.096 0 -0.416 0.032 -0.512c 0.88 -0.08 1.04 -0.208 1.04 -1.12Z m 2.08 -3.904v 4.096c 0 0.096 0 0.176 0 0.272c 0.464 0.416 1.056 0.624 1.424 0.624c 0.656 0 1.424 -0.8 1.424 -2.672c 0 -1.344 -0.48 -2.848 -1.872 -2.848c -0.176 0 -0.576 0.096 -0.976 0.528Z "/></symbol><symbol id="gCB9A71EB920C461BD1B2AF5BFD4CBB8E" overflow="visible"><path d="M 0 0m 8.448 2.048v 2.496c 0 1.76 -0.752 2.56 -2.128 2.56c -0.592 0 -1.728 -0.592 -2.64 -1.152v 3.376c 0 1.04 0.048 1.632 0.048 1.632c 0 0.144 -0.112 0.208 -0.256 0.208c -0.592 -0.192 -1.872 -0.368 -3.008 -0.416c -0.048 -0.192 -0.032 -0.368 0.048 -0.512c 1.008 -0.08 1.088 -0.096 1.088 -1.2v -7.008c 0 -1.328 -0.256 -1.472 -1.232 -1.52c -0.096 -0.096 -0.096 -0.448 0 -0.544c 0.672 0.016 1.392 0.032 2.272 0.032c 0.768 0 1.264 -0.016 1.952 -0.032c 0.096 0.096 0.096 0.448 0 0.544c -0.672 0.048 -0.912 0.192 -0.912 1.52v 3.28c 0.672 0.416 1.2 0.608 1.488 0.608c 0.64 0 1.2 -0.288 1.2 -1.2v -2.672c 0 -1.344 -0.256 -1.488 -0.912 -1.536c -0.096 -0.096 -0.096 -0.448 0 -0.544c 0.672 0.016 1.184 0.032 1.952 0.032c 0.88 0 1.584 -0.016 2.272 -0.032c 0.096 0.096 0.096 0.448 0 0.544c -0.976 0.048 -1.232 0.192 -1.232 1.536Z "/></symbol><symbol id="gD45453FCBA9F32034F18E47DB84C4F61" overflow="visible"><path d="M 0 0m 6.896 2.064c -0.656 -0.672 -1.52 -0.848 -2.128 -0.848c -1.248 0 -2.016 0.72 -2.016 2.288c 0 0.112 0.016 0.176 0.016 0.256h 3.84c 0.384 0 0.464 0.272 0.464 0.496c 0 1.36 -0.528 2.848 -2.88 2.848c -1.68 0 -3.6 -1.488 -3.6 -3.936c 0 -0.928 0.336 -1.904 1.024 -2.528c 0.608 -0.544 1.392 -0.8 2.528 -0.8c 1.104 0 2.192 0.56 2.992 1.728c 0 0.208 -0.08 0.496 -0.24 0.496Z m -4.064 2.336c 0.016 0.56 0.096 1.168 0.32 1.488c 0.256 0.384 0.688 0.544 0.864 0.544c 0.432 0 1.024 -0.416 1.024 -1.696c 0 -0.096 0 -0.304 -0.032 -0.336Z "/></symbol><symbol id="g61A0002E42392354EB85782A553A6EEE" overflow="visible"><path d="M 0 0m 3.648 4.288c 0 0.576 0.176 0.816 0.384 1.056c 0.128 0.16 0.272 0.272 0.512 0.272c 0.144 0 0.32 -0.144 0.448 -0.304c 0.112 -0.128 0.384 -0.256 0.752 -0.256c 0.464 0 0.912 0.48 0.912 1.152c 0 0.416 -0.48 0.896 -1.056 0.896c -0.56 0 -1.168 -0.48 -1.904 -1.536h -0.064c -0.032 0.48 -0.112 1.264 -0.112 1.264c -0.016 0.144 -0.144 0.272 -0.368 0.272c -0.752 -0.192 -1.6 -0.416 -2.656 -0.528c -0.032 -0.096 0 -0.4 0.032 -0.496c 0.88 -0.08 1.04 -0.224 1.04 -1.136v -2.992c 0 -1.328 -0.176 -1.36 -1.152 -1.44c -0.096 -0.096 -0.096 -0.448 0 -0.544c 0.672 0.016 1.344 0.032 2.192 0.032c 0.848 0 1.504 -0.016 2.192 -0.032c 0.096 0.096 0.096 0.448 0 0.544c -0.976 0.064 -1.152 0.112 -1.152 1.44Z "/></symbol><symbol id="gA3525D446D3D83A5B7E735BB6646CDBD" overflow="visible"><path d="M 0 0m 6.688 0.048c 0.368 0.016 0.896 0 1.568 -0.048v 0.608c -0.848 0 -1.168 0.016 -1.504 0.464l -2.08 2.688c 0.688 0.848 1.152 1.424 1.408 1.728c 0.448 0.512 1.072 0.784 1.888 0.8v 0.608c -0.448 -0.032 -0.896 -0.048 -1.344 -0.048c -0.592 0 -1.12 0.016 -1.584 0.048v -0.608c 0.304 -0.032 0.464 -0.176 0.464 -0.432c 0 -0.144 -0.08 -0.32 -0.224 -0.512l -0.928 -1.152l -1.184 1.52c -0.08 0.112 -0.128 0.192 -0.128 0.24c 0 0.208 0.192 0.32 0.56 0.336v 0.608l -1.776 -0.048c -0.416 -0.016 -0.928 0 -1.552 0.048v -0.608c 0.576 0 0.944 -0.048 1.104 -0.128c 0.16 -0.08 0.416 -0.352 0.768 -0.816l 1.52 -1.984c -0.784 -1.008 -1.264 -1.616 -1.44 -1.824c -0.512 -0.624 -1.184 -0.928 -2.032 -0.928v -0.608c 0.592 0.048 1.04 0.064 1.376 0.048l 1.552 -0.048v 0.608c -0.304 0.048 -0.448 0.192 -0.448 0.432c 0 0.064 0.016 0.144 0.048 0.224c 0.096 0.208 0.528 0.752 1.296 1.664l 1.152 -1.504c 0.176 -0.224 0.272 -0.384 0.32 -0.48c 0 -0.208 -0.192 -0.32 -0.576 -0.336v -0.608Z "/></symbol><symbol id="g133DEAAC92DDDB19A715B202EDAB877D" overflow="visible"><path d="M 0 0m 8.752 8.976l 0.24 0.432l -4.544 2.512l -4.544 -2.512l 0.224 -0.432l 4.304 1.888Z "/></symbol><symbol id="g61D8EC4F8C3F73283F1E8A8BB7A6372D" overflow="visible"><path d="M 0 0m 3.792 10.656c -0.816 0 -1.504 -0.288 -2.096 -0.864c -0.592 -0.576 -0.896 -1.248 -0.896 -2.064c 0 -0.544 0.4 -0.944 0.896 -0.944c 0.48 0 0.88 0.416 0.88 0.896c 0 0.528 -0.384 0.896 -0.896 0.896c -0.048 0 -0.08 0 -0.112 -0.016c 0.304 0.784 1.008 1.472 2.016 1.472c 1.312 0 2.048 -1.136 2.048 -2.512c 0 -1.072 -0.544 -2.224 -1.632 -3.44l -3.008 -3.392c -0.208 -0.24 -0.192 -0.224 -0.192 -0.688h 5.936l 0.464 2.88h -0.528c -0.128 -0.816 -0.24 -1.28 -0.336 -1.424c -0.08 -0.08 -0.56 -0.112 -1.44 -0.112h -2.672l 1.552 1.52c 1.088 1.024 2.464 2.128 2.928 2.976c 0.32 0.56 0.48 1.12 0.48 1.68c 0 1.888 -1.472 3.136 -3.392 3.136Z "/></symbol><symbol id="gD1F745F93AA9122F5DF54DDA8243F5F3" overflow="visible"><path d="M 0 0m 11.168 4.384h -4.56v 4.56c 0 0.256 -0.128 0.384 -0.384 0.384c -0.256 0 -0.384 -0.128 -0.384 -0.384v -4.56h -4.56c -0.256 0 -0.384 -0.128 -0.384 -0.384c 0 -0.256 0.128 -0.384 0.384 -0.384h 4.56v -4.56c 0 -0.256 0.128 -0.384 0.384 -0.384c 0.256 0 0.384 0.128 0.384 0.384v 4.56h 4.56c 0.256 0 0.384 0.128 0.384 0.384c 0 0.208 -0.176 0.384 -0.384 0.384Z "/></symbol><symbol id="g64AA6D97DC384EDB5F6925C9B5CF4089" overflow="visible"><path d="M 0 0m 1.808 -3.28c 0.88 0 1.584 0.608 2.08 1.84l 2.768 6.752c 0.272 0.64 0.752 0.96 1.472 0.96v 0.624c -0.528 -0.048 -0.944 -0.064 -1.248 -0.048l -1.424 0.048v -0.608c 0.496 -0.016 0.736 -0.224 0.736 -0.624c 0 -0.096 -0.032 -0.208 -0.096 -0.352l -1.52 -3.744l -1.696 4.096c -0.048 0.128 -0.08 0.224 -0.096 0.272c 0 0.224 0.304 0.336 0.896 0.336v 0.624l -1.792 -0.048c -0.384 -0.016 -0.912 0 -1.584 0.048v -0.624c 0.848 0 1.056 0.032 1.28 -0.512l 2.352 -5.744l -0.384 -0.896c -0.432 -1.024 -0.736 -1.92 -1.744 -1.92c -0.224 0 -0.416 0.064 -0.592 0.176c 0.368 0.08 0.544 0.32 0.544 0.704c 0 0.48 -0.24 0.72 -0.736 0.72c -0.48 0 -0.72 -0.24 -0.72 -0.736c 0 -0.784 0.72 -1.344 1.504 -1.344Z "/></symbol><symbol id="gDBFAE06AF79FDD9C3E51928051970166" overflow="visible"><path d="M 0 0m 0.912 0h 5.232l 0.272 3.056h -0.512c -0.08 -0.992 -0.24 -1.664 -0.528 -2.016c -0.288 -0.352 -0.848 -0.528 -1.696 -0.528h -1.728l 4.272 5.808c 0.112 0.144 0.16 0.24 0.16 0.304c 0 0.176 -0.16 0.272 -0.464 0.272h -5.072l -0.192 -2.656h 0.528c 0.048 0.88 0.208 1.456 0.464 1.744c 0.256 0.288 0.784 0.448 1.584 0.448h 1.664l -4.288 -5.824c -0.112 -0.144 -0.16 -0.24 -0.16 -0.32c 0 -0.272 0.112 -0.288 0.464 -0.288Z "/></symbol><symbol id="gF0099E97FCE47D86CFFAA01886DF78DA" overflow="visible"><path d="M 0 0m 11.168 5.872h -9.888c -0.256 0 -0.384 -0.128 -0.384 -0.368c 0 -0.24 0.128 -0.368 0.384 -0.368h 9.888c 0.256 0 0.384 0.128 0.384 0.368c 0 0.192 -0.176 0.368 -0.384 0.368Z m 0 -3.008h -9.888c -0.256 0 -0.384 -0.128 -0.384 -0.368c 0 -0.24 0.128 -0.368 0.384 -0.368h 9.888c 0.256 0 0.384 0.128 0.384 0.368c 0 0.208 -0.176 0.368 -0.384 0.368Z "/></symbol><symbol id="g78383E8554B616CCBD975C3AF7F2B8E1" overflow="visible"><path d="M 0 0m 5.824 6.048c 0 0.624 -0.592 1.024 -1.216 1.024c -0.816 0 -1.44 -0.48 -1.856 -1.456v 1.456l -2.304 -0.176v -0.608c 0.56 0 0.896 -0.048 1.024 -0.144c 0.128 -0.096 0.192 -0.304 0.192 -0.672v -4.208c 0 -0.304 -0.048 -0.496 -0.16 -0.56c -0.112 -0.064 -0.464 -0.096 -1.056 -0.096v -0.608l 1.84 0.048c 0.672 0.016 1.36 0 2.048 -0.048v 0.608h -0.384c -0.528 0 -0.864 0.048 -0.976 0.128c -0.112 0.08 -0.16 0.272 -0.16 0.56v 2.416c 0 0.688 0.128 1.312 0.368 1.84c 0.32 0.688 0.784 1.04 1.408 1.056c -0.16 -0.16 -0.24 -0.352 -0.24 -0.576c 0 -0.496 0.24 -0.736 0.736 -0.736c 0.432 0 0.736 0.336 0.736 0.752Z "/></symbol><symbol id="gF2FA6952BE331EABB0A764456239871F" overflow="visible"><path d="M 0 0m 1.248 6.276v -4.812c 0 -0.996 -0.204 -1.056 -1.044 -1.092c -0.072 -0.072 -0.072 -0.324 0 -0.396c 0.54 0.012 1.128 0.024 1.56 0.024c 0.42 0 1.128 -0.012 1.728 -0.024c 0.072 0.072 0.072 0.324 0 0.396c -0.936 0.048 -1.224 0.096 -1.224 1.092v 2.04c 0.264 -0.084 0.552 -0.12 0.972 -0.12c 2.184 0 2.844 1.428 2.844 2.448c 0 0.708 -0.468 1.992 -2.688 1.992c -0.456 0 -1.164 -0.084 -1.644 -0.084c -0.444 0 -1.068 0.012 -1.548 0.024c -0.072 -0.072 -0.072 -0.324 0 -0.396c 0.84 -0.036 1.044 -0.096 1.044 -1.092Z m 1.02 0.372c 0 0.348 0.18 0.768 1.044 0.768c 0.828 0 1.656 -0.276 1.656 -1.8c 0 -1.296 -0.624 -1.824 -1.788 -1.824c -0.3 0 -0.78 0.024 -0.912 0.06Z "/></symbol><symbol id="g1BCB9C828DF030506619E4914135A997" overflow="visible"><path d="M 0 0m 2.112 4.296c -0.024 0.48 -0.036 0.792 -0.096 0.912c -0.024 0.06 -0.048 0.096 -0.144 0.096c -0.336 -0.132 -0.648 -0.24 -1.476 -0.348c -0.024 -0.072 0 -0.264 0.024 -0.336c 0.648 -0.06 0.78 -0.12 0.78 -0.816v -2.34c 0 -0.996 -0.144 -1.044 -0.888 -1.092c -0.072 -0.072 -0.072 -0.324 0 -0.396c 0.42 0.012 0.888 0.024 1.368 0.024c 0.48 0 1.032 -0.012 1.452 -0.024c 0.072 0.072 0.072 0.324 0 0.396c -0.84 0.06 -0.984 0.096 -0.984 1.092v 1.668c 0 0.312 0.144 0.588 0.288 0.804c 0.132 0.192 0.408 0.588 0.552 0.588c 0.108 0 0.216 -0.024 0.312 -0.156c 0.084 -0.12 0.228 -0.276 0.432 -0.276c 0.288 0 0.564 0.3 0.564 0.6c 0 0.228 -0.216 0.576 -0.72 0.576c -0.564 0 -1.056 -0.528 -1.332 -0.996c -0.072 -0.132 -0.132 -0.036 -0.132 0.024Z "/></symbol><symbol id="g289ED535C508AEA31A604F0DADFA8DC1" overflow="visible"><path d="M 0 0m 2.172 1.464v 2.388c 0 0.6 0.048 1.368 0.048 1.368c 0 0.048 -0.06 0.084 -0.156 0.084c -0.336 -0.132 -0.816 -0.24 -1.644 -0.348c -0.024 -0.072 0 -0.264 0.024 -0.336c 0.66 -0.06 0.78 -0.132 0.78 -0.816v -2.34c 0 -0.996 -0.132 -1.032 -0.864 -1.092c -0.072 -0.072 -0.072 -0.324 0 -0.396c 0.396 0.012 0.864 0.024 1.344 0.024c 0.48 0 0.936 -0.012 1.332 -0.024c 0.072 0.072 0.072 0.324 0 0.396c -0.732 0.048 -0.864 0.096 -0.864 1.092Z m -1.092 5.724c 0 -0.312 0.288 -0.624 0.576 -0.624c 0.336 0 0.624 0.324 0.624 0.576c 0 0.288 -0.252 0.624 -0.576 0.624c -0.288 0 -0.624 -0.288 -0.624 -0.576Z "/></symbol><symbol id="g55A61ECC645EBF4C4CFC2CFFE578F745" overflow="visible"><path d="M 0 0m 2.04 4.296c -0.012 0.36 -0.036 0.792 -0.096 0.912c -0.024 0.06 -0.048 0.096 -0.144 0.096c -0.336 -0.132 -0.648 -0.24 -1.476 -0.348c -0.024 -0.072 0 -0.264 0.024 -0.336c 0.648 -0.06 0.78 -0.12 0.78 -0.816v -2.34c 0 -0.984 -0.156 -1.044 -0.816 -1.092c -0.072 -0.072 -0.072 -0.324 0 -0.396c 0.36 0.012 0.816 0.024 1.296 0.024c 0.48 0 0.852 -0.012 1.212 -0.024c 0.072 0.072 0.072 0.324 0 0.396c -0.612 0.06 -0.744 0.108 -0.744 1.092v 1.968c 0 0.252 0.108 0.396 0.204 0.504c 0.48 0.468 0.924 0.708 1.296 0.708c 0.456 0 0.792 -0.288 0.792 -1.092v -2.088c 0 -0.984 -0.096 -1.044 -0.744 -1.092c -0.06 -0.072 -0.06 -0.324 0 -0.396c 0.3 0.012 0.744 0.024 1.224 0.024c 0.48 0 0.876 -0.012 1.176 -0.024c 0.06 0.072 0.06 0.324 0 0.396c -0.6 0.048 -0.708 0.108 -0.708 1.092v 1.908c 0 0.168 0 0.336 -0.012 0.48c 0.576 0.636 1.116 0.792 1.584 0.792c 0.456 0 0.72 -0.264 0.72 -1.068v -2.112c 0 -0.984 -0.12 -1.044 -0.744 -1.092c -0.06 -0.072 -0.06 -0.324 0 -0.396c 0.3 0.012 0.744 0.024 1.224 0.024c 0.48 0 0.9 -0.012 1.236 -0.024c 0.06 0.072 0.06 0.324 0 0.396c -0.66 0.048 -0.768 0.108 -0.768 1.092v 1.896c 0 1.068 -0.18 1.908 -1.236 1.908c -0.612 0 -1.356 -0.228 -1.98 -0.888c -0.036 -0.036 -0.108 -0.096 -0.132 0.012c -0.108 0.492 -0.576 0.876 -1.2 0.876c -0.696 0 -1.32 -0.408 -1.824 -0.972c -0.06 -0.06 -0.132 -0.144 -0.144 0Z "/></symbol><symbol id="g84516DFCDCD61F2511AA629C71D7DB90" overflow="visible"><path d="M 0 0m 0.516 5.148c -0.168 0 -0.216 -0.144 -0.216 -0.24v -0.156c 0 -0.06 0.012 -0.072 0.06 -0.072h 0.708v -3.612c 0 -0.852 0.372 -1.188 0.924 -1.188c 0.552 0 1.152 0.264 1.62 0.792c -0.024 0.12 -0.096 0.192 -0.216 0.204c -0.312 -0.24 -0.672 -0.336 -0.984 -0.336c -0.324 0 -0.396 0.36 -0.396 1.104v 3.036h 1.248c 0.12 0 0.288 0.048 0.288 0.156v 0.24c 0 0.048 -0.036 0.072 -0.096 0.072h -1.44v 0.468c 0 0.78 0.048 1.26 0.048 1.26c 0 0.072 -0.036 0.108 -0.096 0.108c -0.048 0 -0.156 -0.048 -0.264 -0.108c -0.132 -0.072 -0.252 -0.132 -0.408 -0.168c -0.144 -0.048 -0.264 -0.084 -0.264 -0.168c 0 -0.144 0.036 -0.06 0.036 -1.392Z "/></symbol><symbol id="g5723DCFBFCE5C740FA2BDFF816BBC144" overflow="visible"><path d="M 0 0m 3.9 4.776c 0.648 -0.048 0.72 -0.192 0.468 -0.804l -0.972 -2.352c -0.192 -0.468 -0.252 -0.468 -0.444 0.036l -0.864 2.316c -0.216 0.576 -0.264 0.72 0.372 0.804c 0.072 0.072 0.072 0.324 0 0.396c -0.396 -0.012 -0.816 -0.024 -1.212 -0.024c -0.396 0 -0.756 0.012 -1.116 0.024c -0.072 -0.072 -0.072 -0.324 0 -0.396c 0.636 -0.072 0.72 -0.264 0.96 -0.876l 1.536 -3.792c 0.072 -0.18 0.144 -0.252 0.3 -0.252c 0.12 0 0.204 0.072 0.288 0.276l 1.596 3.756c 0.228 0.528 0.36 0.828 1.032 0.888c 0.072 0.072 0.072 0.324 0 0.396c -0.24 -0.012 -0.528 -0.024 -0.84 -0.024c -0.396 0 -0.804 0.012 -1.104 0.024c -0.072 -0.072 -0.072 -0.324 0 -0.396Z "/></symbol><symbol id="g30001D7828CC398501D0D953534F2217" overflow="visible"><path d="M 0 0m 4.632 1.116c -0.444 -0.456 -0.792 -0.648 -1.488 -0.648c -0.432 0 -0.936 0.252 -1.308 0.864c -0.24 0.396 -0.384 0.948 -0.384 1.644l 3.192 -0.024c 0.144 0 0.228 0.072 0.228 0.204c 0 1.008 -0.36 2.088 -2.028 2.088c -1.044 0 -2.4 -0.996 -2.4 -2.82c 0 -0.672 0.168 -1.32 0.564 -1.776c 0.408 -0.48 0.972 -0.768 1.836 -0.768c 0.912 0 1.56 0.42 2.04 1.044c -0.036 0.12 -0.108 0.18 -0.252 0.192Z m -3.144 2.268c 0.228 1.356 1.068 1.464 1.356 1.464c 0.456 0 0.996 -0.252 0.996 -1.26c 0 -0.108 -0.048 -0.168 -0.18 -0.168Z "/></symbol></defs></svg>